M48
;Layer_Color=9474304
;FILE_FORMAT=4:4
METRIC,LZ
;TYPE=PLATED
T1F00S00C0.5000
T2F00S00C0.7000
T3F00S00C0.7620
T4F00S00C0.8000
T5F00S00C1.0000
T6F00S00C1.2000
T7F00S00C1.3000
T8F00S00C1.5000
T9F00S00C1.8000
T10F00S00C3.2000
%
T01
X-001651Y-004572
Y-003683
X-000127Y-004572
X0013335
X0027305
X003683
X0044069Y-0037465
X002667Y-003683
X0046482Y-0020955
X0044069Y-0031115
X0037465Y-0027559
X0032766Y-0009525
X00316484Y-00029464
X00289814Y-00010922
X0024511Y-0001524
X002032Y000254
X0015621
X0006604Y0
X0007874Y-0011684
X00214376Y-00185166
X0013335Y-002794
X-0006096Y-0027051
X-001651Y-0028575
X-0010668Y-0018415
X-0013081Y-0013843
Y-00057404
X-0010795Y-0001905
X-0006985
Y000254
X-0010795
X-00260333Y-00003865
X-003302Y-00022952
Y0001778
X-00305816Y-00070104
X0Y-0036068
X-0036576Y-0001016
X-00371958Y00160958
X-00430276Y00165354
X-00445262Y00230886
X-00328422Y00206074
X-0017272Y0016002
X-0019606Y0012065
X-00122555Y00125095
X-0008636Y000889
X-00106172Y00212344
X-00130556Y00424942
X-00237236Y00416052
X-0001524Y0042418
X0009906Y0034036
Y002921
X0006604Y0026924
X0018796Y002921
Y0034036
X0027178Y0039878
X0032385Y0031242
X0032131Y0026924
X0040767Y0028956
X00407416Y0031623
X0040767Y003429
X0020701Y0021336
X002032Y0006604
X0007874Y0012065
X0046609Y0021209
X003556Y0044704
T02
X00466344Y-0002
Y0002
X00415544
Y-0002
X00349758Y-00134874
Y-00185674
X002921Y-0027051
X002413
X0016256Y-00143
X0011176
Y-0007747
X0016256
X0011811Y-000254
Y000254
X0001397
Y-000254
X0001753Y-0007747
X-0003327
Y-00143002
X0001753
X000254Y-0027051
X-000254
X-0041275Y00280416
X-0046355
X-0011176Y0026924
X-0006096
X-000254
X000254
X00017526Y0014478
X-00033274
X-0003327Y0007925
X0001753
X00112014Y00079248
X00162814
X0016256Y0014478
X0011176
X00350266Y00137668
Y00188468
X002921Y0026924
X002413
T03
X0019765Y-001397
X0029765
Y0014351
X0019765
T04
X-00259842Y-00070612
X-00191262Y-00118364
T05
X0045847Y-0034544
X0042247
X-0029972Y-0010414
X-0032512
X-0035052
X-004699Y-00127
Y-001524
Y-001778
Y-002032
Y-000762
Y-000508
Y-000254
Y0
Y000254
Y000508
Y000762
Y00127
Y001524
Y001778
Y002032
X-00442976Y00330454
Y00368554
Y00406654
X-00353822Y00324104
X-00303022
X-00220218Y0032385
X-00169418
X-00261366Y00121666
X-00286766
X-00312166
X-00337566
Y00096266
X-00312166
X-00286766
X-00261366
Y00070866
X-00286766
X-00312166
X-00337566
X-00442976Y00444754
T06
X002413Y-0033655
X002667
X002921
X000254
X0
X-000254
Y0033909
X0
X000254
X002413Y0034036
X002667
X002921
T07
X0043815Y-0010033
Y0010033
T08
X-0009144Y-0039497
X000889
X0017653
X0035687
X-000889Y003937
X0009144
X0017653
X0035687
T09
X0046609Y-0012827
Y-0010033
Y-0007366
X0041021
Y-0010033
Y-0012827
Y0007239
Y0010033
Y00127
X0046609
Y0010033
Y0007239
T10
X-003556Y-004445
X004445
Y004445
X-003556
M30
