G04 Layer_Color=8388736*
%FSLAX44Y44*%
%MOMM*%
G71*
G01*
G75*
%ADD48R,8.6360X8.6360*%
%ADD49R,2.3876X5.5626*%
%ADD50R,1.2032X1.8032*%
G04:AMPARAMS|DCode=51|XSize=1.2032mm|YSize=3.2032mm|CornerRadius=0.3516mm|HoleSize=0mm|Usage=FLASHONLY|Rotation=0.000|XOffset=0mm|YOffset=0mm|HoleType=Round|Shape=RoundedRectangle|*
%AMROUNDEDRECTD51*
21,1,1.2032,2.5000,0,0,0.0*
21,1,0.5000,3.2032,0,0,0.0*
1,1,0.7032,0.2500,-1.2500*
1,1,0.7032,-0.2500,-1.2500*
1,1,0.7032,-0.2500,1.2500*
1,1,0.7032,0.2500,1.2500*
%
%ADD51ROUNDEDRECTD51*%
%ADD52R,1.8032X1.2032*%
G04:AMPARAMS|DCode=53|XSize=1.2032mm|YSize=2.6032mm|CornerRadius=0.3516mm|HoleSize=0mm|Usage=FLASHONLY|Rotation=90.000|XOffset=0mm|YOffset=0mm|HoleType=Round|Shape=RoundedRectangle|*
%AMROUNDEDRECTD53*
21,1,1.2032,1.9000,0,0,90.0*
21,1,0.5000,2.6032,0,0,90.0*
1,1,0.7032,0.9500,0.2500*
1,1,0.7032,0.9500,-0.2500*
1,1,0.7032,-0.9500,-0.2500*
1,1,0.7032,-0.9500,0.2500*
%
%ADD53ROUNDEDRECTD53*%
%ADD54O,1.0032X1.8032*%
G04:AMPARAMS|DCode=55|XSize=2.2032mm|YSize=2.6032mm|CornerRadius=0.6016mm|HoleSize=0mm|Usage=FLASHONLY|Rotation=180.000|XOffset=0mm|YOffset=0mm|HoleType=Round|Shape=RoundedRectangle|*
%AMROUNDEDRECTD55*
21,1,2.2032,1.4000,0,0,180.0*
21,1,1.0000,2.6032,0,0,180.0*
1,1,1.2032,-0.5000,0.7000*
1,1,1.2032,0.5000,0.7000*
1,1,1.2032,0.5000,-0.7000*
1,1,1.2032,-0.5000,-0.7000*
%
%ADD55ROUNDEDRECTD55*%
G04:AMPARAMS|DCode=56|XSize=1.7032mm|YSize=2.2032mm|CornerRadius=0.4766mm|HoleSize=0mm|Usage=FLASHONLY|Rotation=270.000|XOffset=0mm|YOffset=0mm|HoleType=Round|Shape=RoundedRectangle|*
%AMROUNDEDRECTD56*
21,1,1.7032,1.2500,0,0,270.0*
21,1,0.7500,2.2032,0,0,270.0*
1,1,0.9532,-0.6250,-0.3750*
1,1,0.9532,-0.6250,0.3750*
1,1,0.9532,0.6250,0.3750*
1,1,0.9532,0.6250,-0.3750*
%
%ADD56ROUNDEDRECTD56*%
G04:AMPARAMS|DCode=57|XSize=6.2032mm|YSize=3.2032mm|CornerRadius=0.8516mm|HoleSize=0mm|Usage=FLASHONLY|Rotation=270.000|XOffset=0mm|YOffset=0mm|HoleType=Round|Shape=RoundedRectangle|*
%AMROUNDEDRECTD57*
21,1,6.2032,1.5000,0,0,270.0*
21,1,4.5000,3.2032,0,0,270.0*
1,1,1.7032,-0.7500,-2.2500*
1,1,1.7032,-0.7500,2.2500*
1,1,1.7032,0.7500,2.2500*
1,1,1.7032,0.7500,-2.2500*
%
%ADD57ROUNDEDRECTD57*%
G04:AMPARAMS|DCode=58|XSize=1.2032mm|YSize=3.2032mm|CornerRadius=0.3516mm|HoleSize=0mm|Usage=FLASHONLY|Rotation=270.000|XOffset=0mm|YOffset=0mm|HoleType=Round|Shape=RoundedRectangle|*
%AMROUNDEDRECTD58*
21,1,1.2032,2.5000,0,0,270.0*
21,1,0.5000,3.2032,0,0,270.0*
1,1,0.7032,-1.2500,-0.2500*
1,1,0.7032,-1.2500,0.2500*
1,1,0.7032,1.2500,0.2500*
1,1,0.7032,1.2500,-0.2500*
%
%ADD58ROUNDEDRECTD58*%
G04:AMPARAMS|DCode=59|XSize=1.2032mm|YSize=0.6032mm|CornerRadius=0.2016mm|HoleSize=0mm|Usage=FLASHONLY|Rotation=0.000|XOffset=0mm|YOffset=0mm|HoleType=Round|Shape=RoundedRectangle|*
%AMROUNDEDRECTD59*
21,1,1.2032,0.2000,0,0,0.0*
21,1,0.8000,0.6032,0,0,0.0*
1,1,0.4032,0.4000,-0.1000*
1,1,0.4032,-0.4000,-0.1000*
1,1,0.4032,-0.4000,0.1000*
1,1,0.4032,0.4000,0.1000*
%
%ADD59ROUNDEDRECTD59*%
%ADD60C,2.0032*%
%ADD61C,2.7032*%
%ADD62R,2.0032X2.0032*%
%ADD63O,2.1032X2.4032*%
%ADD64C,4.2032*%
G04:AMPARAMS|DCode=65|XSize=7.2032mm|YSize=7.2032mm|CornerRadius=1.8516mm|HoleSize=0mm|Usage=FLASHONLY|Rotation=0.000|XOffset=0mm|YOffset=0mm|HoleType=Round|Shape=RoundedRectangle|*
%AMROUNDEDRECTD65*
21,1,7.2032,3.5000,0,0,0.0*
21,1,3.5000,7.2032,0,0,0.0*
1,1,3.7032,1.7500,-1.7500*
1,1,3.7032,-1.7500,-1.7500*
1,1,3.7032,-1.7500,1.7500*
1,1,3.7032,1.7500,1.7500*
%
%ADD65ROUNDEDRECTD65*%
%ADD66R,2.0032X2.0032*%
%ADD67O,2.0032X1.7032*%
%ADD68R,2.2032X2.2032*%
%ADD69C,2.2032*%
%ADD70C,2.4032*%
%ADD71C,1.7032*%
%ADD72C,1.4032*%
%ADD73C,1.2032*%
D48*
X438150Y100330D02*
D03*
Y-100330D02*
D03*
D49*
X466090Y99695D02*
D03*
Y-100965D02*
D03*
D50*
X-336536Y-225298D02*
D03*
X-366536D02*
D03*
X-401560Y-162560D02*
D03*
X-431560D02*
D03*
X151920Y-188720D02*
D03*
X121920D02*
D03*
Y190500D02*
D03*
X151920D02*
D03*
X80786Y145288D02*
D03*
X50786D02*
D03*
X-231380Y-162560D02*
D03*
X-261380D02*
D03*
Y-190500D02*
D03*
X-231380D02*
D03*
X-181850Y-162560D02*
D03*
X-211850D02*
D03*
X-230872Y-106680D02*
D03*
X-260872D02*
D03*
X-181850Y-190500D02*
D03*
X-211850D02*
D03*
X-401560Y-134620D02*
D03*
X-431560D02*
D03*
Y91440D02*
D03*
X-401560D02*
D03*
X-431560Y119380D02*
D03*
X-401560D02*
D03*
X-225820Y63500D02*
D03*
X-195820D02*
D03*
X-196060Y91440D02*
D03*
X-226060D02*
D03*
Y120650D02*
D03*
X-196060D02*
D03*
X-401560Y-22860D02*
D03*
X-431560D02*
D03*
X-401560Y-50800D02*
D03*
X-431560D02*
D03*
X-401560Y-78740D02*
D03*
X-431560D02*
D03*
X-401560Y5080D02*
D03*
X-431560D02*
D03*
Y-190246D02*
D03*
X-401560D02*
D03*
X465328Y342900D02*
D03*
X435328D02*
D03*
Y289560D02*
D03*
X465328D02*
D03*
X8142Y190500D02*
D03*
X-21858D02*
D03*
X8142Y216662D02*
D03*
X-21858D02*
D03*
X8142Y-188722D02*
D03*
X-21858D02*
D03*
X8140Y-214630D02*
D03*
X-21860D02*
D03*
X48500Y-139700D02*
D03*
X78500D02*
D03*
X-431560Y-106680D02*
D03*
X-401560D02*
D03*
X425690Y-275590D02*
D03*
X455690D02*
D03*
D51*
X342900Y-24130D02*
D03*
Y22860D02*
D03*
X-130810Y25400D02*
D03*
Y-21590D02*
D03*
X179070D02*
D03*
Y25400D02*
D03*
X-48260Y-21590D02*
D03*
Y25400D02*
D03*
D52*
X289814Y15000D02*
D03*
Y-15000D02*
D03*
X77470Y99850D02*
D03*
Y69850D02*
D03*
X52070Y99850D02*
D03*
Y69850D02*
D03*
X50800Y-66520D02*
D03*
Y-96520D02*
D03*
X77470Y-66280D02*
D03*
Y-96280D02*
D03*
D53*
X-222758Y-39624D02*
D03*
X-189738D02*
D03*
X-424180Y48260D02*
D03*
X-391160D02*
D03*
X-190500Y15748D02*
D03*
X-223520D02*
D03*
D54*
X85240Y30020D02*
D03*
X72540D02*
D03*
X59840D02*
D03*
X47140D02*
D03*
X85290Y-28480D02*
D03*
X72540D02*
D03*
X59840D02*
D03*
X47140D02*
D03*
X-287120Y-137640D02*
D03*
X-299820D02*
D03*
X-312520D02*
D03*
X-325220D02*
D03*
X-337920D02*
D03*
X-350620D02*
D03*
X-363370D02*
D03*
X-287120Y-196140D02*
D03*
X-299820D02*
D03*
X-312520D02*
D03*
X-325220D02*
D03*
X-337920D02*
D03*
X-350620D02*
D03*
X-363320D02*
D03*
D55*
X-237490Y458470D02*
D03*
X-276860D02*
D03*
X-163830D02*
D03*
X-203200D02*
D03*
X-237490Y416560D02*
D03*
X-276860D02*
D03*
X-163830D02*
D03*
X-203200D02*
D03*
D56*
X-328422Y160274D02*
D03*
Y206074D02*
D03*
Y183174D02*
D03*
D57*
X-263422D02*
D03*
D58*
X-165100Y182880D02*
D03*
X-212090D02*
D03*
X-419962Y182651D02*
D03*
X-372971D02*
D03*
D59*
X-286754Y35444D02*
D03*
Y15944D02*
D03*
Y-3556D02*
D03*
Y-10056D02*
D03*
Y2944D02*
D03*
Y9444D02*
D03*
Y-16556D02*
D03*
Y-36056D02*
D03*
X-347714D02*
D03*
Y-16556D02*
D03*
Y-23056D02*
D03*
Y-29556D02*
D03*
Y9444D02*
D03*
Y2944D02*
D03*
Y-10056D02*
D03*
Y-3556D02*
D03*
Y22444D02*
D03*
Y15944D02*
D03*
Y28944D02*
D03*
Y35444D02*
D03*
X-286754Y28944D02*
D03*
Y22444D02*
D03*
Y-23056D02*
D03*
Y-29556D02*
D03*
D60*
X349758Y-134874D02*
D03*
Y-185674D02*
D03*
X350266Y188468D02*
D03*
Y137668D02*
D03*
X111760Y-143000D02*
D03*
X162560D02*
D03*
X111760Y-77470D02*
D03*
X162560D02*
D03*
X-33270Y79250D02*
D03*
X17530D02*
D03*
X-33274Y144780D02*
D03*
X17526D02*
D03*
X13970Y-25400D02*
D03*
Y25400D02*
D03*
X118110D02*
D03*
Y-25400D02*
D03*
X-350520Y-104140D02*
D03*
X-325120D02*
D03*
X292100Y-270510D02*
D03*
X241300D02*
D03*
X25400D02*
D03*
X-25400D02*
D03*
X-469900Y127000D02*
D03*
Y152400D02*
D03*
Y177800D02*
D03*
Y76200D02*
D03*
Y50800D02*
D03*
Y25400D02*
D03*
Y0D02*
D03*
Y-25400D02*
D03*
Y-76200D02*
D03*
Y-50800D02*
D03*
Y-203200D02*
D03*
Y-177800D02*
D03*
Y-152400D02*
D03*
X-286766Y121666D02*
D03*
X-312166D02*
D03*
X-286766Y96266D02*
D03*
X-312166D02*
D03*
X-286766Y70866D02*
D03*
X-312166D02*
D03*
X-337566D02*
D03*
X-111760Y269240D02*
D03*
X-60960D02*
D03*
X-463550Y280416D02*
D03*
X-412750D02*
D03*
X292100Y269240D02*
D03*
X241300D02*
D03*
X-25400D02*
D03*
X25400D02*
D03*
X415544Y-20000D02*
D03*
X466344D02*
D03*
X415544Y20000D02*
D03*
X466344D02*
D03*
X162560Y144780D02*
D03*
X111760D02*
D03*
X162814Y79248D02*
D03*
X112014D02*
D03*
X17530Y-77470D02*
D03*
X-33270D02*
D03*
X17530Y-143002D02*
D03*
X-33270D02*
D03*
D61*
X422470Y-345440D02*
D03*
X458470D02*
D03*
X297650Y143510D02*
D03*
X197650D02*
D03*
X297650Y-139700D02*
D03*
X197650D02*
D03*
X-169418Y323850D02*
D03*
X-220218D02*
D03*
X-303022Y324104D02*
D03*
X-353822D02*
D03*
X466090Y100330D02*
D03*
X410210D02*
D03*
Y72390D02*
D03*
X466090D02*
D03*
Y127000D02*
D03*
X410210D02*
D03*
X466090Y-100330D02*
D03*
X410210D02*
D03*
Y-128270D02*
D03*
X466090D02*
D03*
Y-73660D02*
D03*
X410210D02*
D03*
D62*
X-299720Y-104140D02*
D03*
X-261366Y121666D02*
D03*
D63*
X25400Y-336550D02*
D03*
X0D02*
D03*
X-25400D02*
D03*
X292100D02*
D03*
X266700D02*
D03*
X241300D02*
D03*
Y340360D02*
D03*
X266700D02*
D03*
X292100D02*
D03*
X25400Y339090D02*
D03*
X0D02*
D03*
X-25400D02*
D03*
D64*
X176530Y-394970D02*
D03*
X356870D02*
D03*
X91440Y393700D02*
D03*
X-88900D02*
D03*
X356870D02*
D03*
X176530D02*
D03*
X88900Y-394970D02*
D03*
X-91440D02*
D03*
D65*
X-355600Y-444500D02*
D03*
X444500Y444500D02*
D03*
X-355600D02*
D03*
X444500Y-444500D02*
D03*
D66*
X-469900Y203200D02*
D03*
Y-127000D02*
D03*
D67*
X-337566Y121666D02*
D03*
X-261366Y96266D02*
D03*
X-337566D02*
D03*
X-261366Y70866D02*
D03*
D68*
X-442976Y444754D02*
D03*
D69*
Y406654D02*
D03*
Y368554D02*
D03*
Y330454D02*
D03*
X321310Y269240D02*
D03*
X66040D02*
D03*
X-60960Y-270510D02*
D03*
X-106172Y212344D02*
D03*
D70*
X438150Y100330D02*
D03*
Y-100330D02*
D03*
D71*
X-191262Y-118364D02*
D03*
X-259842Y-70612D02*
D03*
X-237236Y416052D02*
D03*
D72*
X-445262Y230886D02*
D03*
D73*
X-328422Y206074D02*
D03*
X-196060Y120650D02*
D03*
M02*
