G04 Layer_Color=65535*
%FSLAX44Y44*%
%MOMM*%
G71*
G01*
G75*
%ADD11C,0.3000*%
%ADD14C,0.2540*%
%ADD46C,0.2000*%
%ADD47C,0.2032*%
G36*
X-431059Y-320636D02*
X-431035D01*
X-431010Y-320685D01*
X-430937Y-320734D01*
X-430839Y-320783D01*
X-430620Y-320978D01*
X-430327Y-321198D01*
X-430034Y-321490D01*
X-429716Y-321808D01*
X-429423Y-322174D01*
X-429179Y-322565D01*
X-429155Y-322613D01*
X-429082Y-322735D01*
X-428984Y-322955D01*
X-428862Y-323248D01*
X-428764Y-323614D01*
X-428667Y-324029D01*
X-428594Y-324517D01*
X-428569Y-325030D01*
Y-325054D01*
Y-325127D01*
Y-325225D01*
X-428594Y-325372D01*
X-428618Y-325567D01*
X-428642Y-325787D01*
X-428691Y-326006D01*
X-428764Y-326275D01*
X-428960Y-326836D01*
X-429082Y-327129D01*
X-429228Y-327446D01*
X-429423Y-327739D01*
X-429643Y-328032D01*
X-429887Y-328325D01*
X-430156Y-328618D01*
X-430180Y-328642D01*
X-430229Y-328691D01*
X-430302Y-328740D01*
X-430424Y-328838D01*
X-430595Y-328960D01*
X-430766Y-329082D01*
X-430986Y-329204D01*
X-431230Y-329326D01*
X-431474Y-329472D01*
X-431767Y-329594D01*
X-432426Y-329838D01*
X-432792Y-329936D01*
X-433183Y-329985D01*
X-433573Y-330034D01*
X-433988Y-330058D01*
X-434208D01*
X-434452Y-330034D01*
X-434769Y-330009D01*
X-435160Y-329936D01*
X-435575Y-329863D01*
X-436014Y-329741D01*
X-436478Y-329594D01*
Y-325445D01*
X-436429Y-325469D01*
X-436331Y-325542D01*
X-436136Y-325616D01*
X-435916Y-325713D01*
X-435672Y-325835D01*
X-435404Y-325909D01*
X-435135Y-325982D01*
X-434867Y-326006D01*
X-434745D01*
X-434598Y-325982D01*
X-434427Y-325933D01*
X-434232Y-325884D01*
X-434012Y-325787D01*
X-433793Y-325640D01*
X-433597Y-325469D01*
X-433573Y-325445D01*
X-433524Y-325372D01*
X-433427Y-325249D01*
X-433329Y-325103D01*
X-433256Y-324908D01*
X-433158Y-324688D01*
X-433109Y-324420D01*
X-433085Y-324151D01*
Y-324102D01*
Y-324005D01*
X-433134Y-323834D01*
X-433183Y-323614D01*
X-433280Y-323394D01*
X-433402Y-323150D01*
X-433597Y-322906D01*
X-433866Y-322687D01*
X-433890Y-322662D01*
X-434012Y-322589D01*
X-434183Y-322516D01*
X-434403Y-322394D01*
X-434696Y-322296D01*
X-435038Y-322223D01*
X-435428Y-322150D01*
X-435892Y-322125D01*
X-434818Y-319220D01*
X-436429D01*
Y-314973D01*
X-428642D01*
X-431059Y-320636D01*
D02*
G37*
G36*
X-444777Y-314631D02*
X-444606D01*
X-444411Y-314680D01*
X-443971Y-314753D01*
X-443483Y-314900D01*
X-442946Y-315120D01*
X-442678Y-315266D01*
X-442409Y-315413D01*
X-442165Y-315608D01*
X-441921Y-315828D01*
X-441897Y-315852D01*
X-441872Y-315876D01*
X-441799Y-315949D01*
X-441726Y-316047D01*
X-441628Y-316169D01*
X-441531Y-316316D01*
X-441287Y-316657D01*
X-441042Y-317097D01*
X-440847Y-317634D01*
X-440701Y-318220D01*
X-440676Y-318561D01*
X-440652Y-318903D01*
Y-318927D01*
Y-318952D01*
Y-319025D01*
Y-319123D01*
X-440701Y-319367D01*
X-440750Y-319660D01*
X-440847Y-320026D01*
X-440994Y-320416D01*
X-441189Y-320831D01*
X-441457Y-321246D01*
X-441409Y-321295D01*
X-441311Y-321417D01*
X-441164Y-321588D01*
X-440969Y-321832D01*
X-440750Y-322101D01*
X-440554Y-322394D01*
X-440359Y-322687D01*
X-440213Y-323004D01*
X-440188Y-323028D01*
X-440164Y-323150D01*
X-440090Y-323321D01*
X-440017Y-323541D01*
X-439968Y-323834D01*
X-439895Y-324151D01*
X-439871Y-324517D01*
X-439846Y-324932D01*
Y-324957D01*
Y-325030D01*
Y-325152D01*
X-439871Y-325298D01*
X-439895Y-325494D01*
X-439920Y-325713D01*
X-439968Y-325957D01*
X-440042Y-326202D01*
X-440213Y-326787D01*
X-440335Y-327105D01*
X-440481Y-327397D01*
X-440652Y-327715D01*
X-440872Y-328008D01*
X-441091Y-328301D01*
X-441360Y-328594D01*
X-441384Y-328618D01*
X-441433Y-328667D01*
X-441506Y-328740D01*
X-441628Y-328813D01*
X-441775Y-328935D01*
X-441945Y-329057D01*
X-442141Y-329179D01*
X-442385Y-329326D01*
X-442629Y-329472D01*
X-442922Y-329594D01*
X-443557Y-329838D01*
X-443898Y-329912D01*
X-444264Y-329985D01*
X-444655Y-330034D01*
X-445070Y-330058D01*
X-445290D01*
X-445436Y-330034D01*
X-445631Y-330009D01*
X-445851Y-329985D01*
X-446095Y-329936D01*
X-446388Y-329863D01*
X-446974Y-329692D01*
X-447267Y-329570D01*
X-447584Y-329448D01*
X-447901Y-329277D01*
X-448219Y-329082D01*
X-448512Y-328862D01*
X-448805Y-328594D01*
X-448829Y-328569D01*
X-448878Y-328520D01*
X-448951Y-328447D01*
X-449024Y-328325D01*
X-449146Y-328179D01*
X-449268Y-328008D01*
X-449415Y-327812D01*
X-449537Y-327593D01*
X-449683Y-327324D01*
X-449830Y-327056D01*
X-450050Y-326421D01*
X-450147Y-326079D01*
X-450220Y-325713D01*
X-450269Y-325323D01*
X-450294Y-324932D01*
Y-324908D01*
Y-324883D01*
Y-324737D01*
X-450269Y-324542D01*
X-450245Y-324273D01*
X-450220Y-323980D01*
X-450147Y-323663D01*
X-450074Y-323321D01*
X-449952Y-323004D01*
X-449927Y-322955D01*
X-449879Y-322857D01*
X-449781Y-322687D01*
X-449659Y-322467D01*
X-449488Y-322198D01*
X-449268Y-321905D01*
X-449000Y-321588D01*
X-448707Y-321246D01*
Y-321222D01*
X-448731Y-321198D01*
X-448829Y-321051D01*
X-448951Y-320856D01*
X-449098Y-320563D01*
X-449244Y-320221D01*
X-449366Y-319806D01*
X-449464Y-319367D01*
X-449488Y-318903D01*
Y-318879D01*
Y-318830D01*
Y-318732D01*
X-449464Y-318586D01*
X-449439Y-318439D01*
X-449415Y-318244D01*
X-449342Y-317829D01*
X-449195Y-317341D01*
X-448975Y-316828D01*
X-448829Y-316560D01*
X-448658Y-316316D01*
X-448487Y-316072D01*
X-448268Y-315828D01*
X-448243Y-315803D01*
X-448219Y-315779D01*
X-448145Y-315705D01*
X-448048Y-315632D01*
X-447926Y-315534D01*
X-447779Y-315437D01*
X-447413Y-315217D01*
X-446950Y-314998D01*
X-446413Y-314802D01*
X-445778Y-314656D01*
X-445436Y-314631D01*
X-445094Y-314607D01*
X-444899D01*
X-444777Y-314631D01*
D02*
G37*
G36*
X-453516D02*
X-453296Y-314656D01*
X-453027Y-314680D01*
X-452734Y-314729D01*
X-452393Y-314827D01*
X-452075Y-314924D01*
Y-319098D01*
X-452100D01*
X-452149Y-319074D01*
X-452246Y-319049D01*
X-452344Y-319025D01*
X-452588Y-318976D01*
X-452832Y-318952D01*
X-452905D01*
X-453003Y-318976D01*
X-453125Y-319001D01*
X-453247Y-319049D01*
X-453394Y-319123D01*
X-453540Y-319220D01*
X-453686Y-319342D01*
X-453711Y-319367D01*
X-453735Y-319416D01*
X-453784Y-319489D01*
X-453857Y-319587D01*
X-453979Y-319855D01*
X-454004Y-320026D01*
X-454028Y-320221D01*
Y-320246D01*
Y-320294D01*
X-454004Y-320392D01*
X-453979Y-320514D01*
X-453931Y-320685D01*
X-453882Y-320880D01*
X-453784Y-321100D01*
X-453662Y-321344D01*
X-453320Y-321905D01*
Y-321930D01*
X-453271Y-321979D01*
X-453223Y-322052D01*
X-453174Y-322174D01*
X-453101Y-322320D01*
X-453027Y-322491D01*
X-452856Y-322882D01*
X-452686Y-323346D01*
X-452539Y-323858D01*
X-452442Y-324395D01*
X-452393Y-324957D01*
Y-324981D01*
Y-325054D01*
Y-325152D01*
X-452417Y-325323D01*
X-452442Y-325494D01*
X-452466Y-325713D01*
X-452515Y-325957D01*
X-452588Y-326226D01*
X-452759Y-326787D01*
X-452881Y-327080D01*
X-453052Y-327397D01*
X-453223Y-327715D01*
X-453418Y-328008D01*
X-453662Y-328301D01*
X-453931Y-328594D01*
X-453955Y-328618D01*
X-454004Y-328667D01*
X-454077Y-328740D01*
X-454199Y-328813D01*
X-454346Y-328935D01*
X-454541Y-329057D01*
X-454736Y-329179D01*
X-454980Y-329326D01*
X-455224Y-329472D01*
X-455517Y-329594D01*
X-456152Y-329838D01*
X-456493Y-329912D01*
X-456884Y-329985D01*
X-457250Y-330034D01*
X-457665Y-330058D01*
X-457836D01*
X-458056Y-330034D01*
X-458324Y-330009D01*
X-458642Y-329936D01*
X-458983Y-329863D01*
X-459349Y-329741D01*
X-459740Y-329594D01*
Y-325323D01*
X-459716Y-325347D01*
X-459642Y-325372D01*
X-459520Y-325445D01*
X-459374Y-325518D01*
X-459008Y-325640D01*
X-458837Y-325689D01*
X-458642Y-325713D01*
X-458544D01*
X-458446Y-325689D01*
X-458300Y-325664D01*
X-458007Y-325567D01*
X-457836Y-325494D01*
X-457690Y-325396D01*
X-457665Y-325372D01*
X-457616Y-325347D01*
X-457568Y-325274D01*
X-457494Y-325176D01*
X-457348Y-324908D01*
X-457323Y-324737D01*
X-457299Y-324566D01*
Y-324542D01*
Y-324493D01*
X-457323Y-324395D01*
X-457372Y-324273D01*
X-457445Y-324078D01*
X-457568Y-323834D01*
X-457714Y-323516D01*
X-457934Y-323150D01*
Y-323126D01*
X-457982Y-323077D01*
X-458031Y-322979D01*
X-458080Y-322857D01*
X-458153Y-322711D01*
X-458227Y-322516D01*
X-458324Y-322320D01*
X-458397Y-322076D01*
X-458593Y-321564D01*
X-458739Y-320978D01*
X-458837Y-320343D01*
X-458886Y-319709D01*
Y-319684D01*
Y-319611D01*
Y-319513D01*
X-458861Y-319367D01*
X-458837Y-319172D01*
X-458812Y-318976D01*
X-458764Y-318732D01*
X-458690Y-318488D01*
X-458520Y-317927D01*
X-458397Y-317634D01*
X-458275Y-317316D01*
X-458105Y-317024D01*
X-457909Y-316706D01*
X-457690Y-316413D01*
X-457421Y-316120D01*
X-457397Y-316096D01*
X-457348Y-316047D01*
X-457275Y-315974D01*
X-457153Y-315876D01*
X-457006Y-315779D01*
X-456835Y-315632D01*
X-456640Y-315510D01*
X-456420Y-315364D01*
X-455908Y-315095D01*
X-455298Y-314851D01*
X-454956Y-314753D01*
X-454614Y-314680D01*
X-454248Y-314631D01*
X-453857Y-314607D01*
X-453711D01*
X-453516Y-314631D01*
D02*
G37*
%LPC*%
G36*
X-445094Y-323248D02*
X-445216D01*
X-445363Y-323272D01*
X-445534Y-323321D01*
X-445729Y-323370D01*
X-445924Y-323468D01*
X-446144Y-323614D01*
X-446339Y-323785D01*
X-446364Y-323809D01*
X-446413Y-323883D01*
X-446510Y-323980D01*
X-446583Y-324127D01*
X-446681Y-324297D01*
X-446779Y-324517D01*
X-446827Y-324737D01*
X-446852Y-325005D01*
Y-325030D01*
Y-325127D01*
X-446827Y-325298D01*
X-446779Y-325469D01*
X-446730Y-325689D01*
X-446657Y-325909D01*
X-446535Y-326128D01*
X-446364Y-326324D01*
X-446339Y-326348D01*
X-446266Y-326397D01*
X-446168Y-326494D01*
X-446022Y-326568D01*
X-445827Y-326665D01*
X-445607Y-326763D01*
X-445363Y-326812D01*
X-445094Y-326836D01*
X-444972D01*
X-444826Y-326812D01*
X-444655Y-326763D01*
X-444460Y-326714D01*
X-444240Y-326616D01*
X-444020Y-326494D01*
X-443825Y-326324D01*
X-443801Y-326299D01*
X-443752Y-326226D01*
X-443654Y-326128D01*
X-443557Y-325957D01*
X-443483Y-325787D01*
X-443386Y-325542D01*
X-443337Y-325298D01*
X-443312Y-325005D01*
Y-324981D01*
Y-324883D01*
X-443337Y-324761D01*
X-443386Y-324590D01*
X-443434Y-324395D01*
X-443532Y-324200D01*
X-443679Y-323980D01*
X-443849Y-323785D01*
X-443874Y-323760D01*
X-443947Y-323712D01*
X-444045Y-323614D01*
X-444216Y-323516D01*
X-444386Y-323419D01*
X-444606Y-323321D01*
X-444826Y-323272D01*
X-445094Y-323248D01*
D02*
G37*
G36*
X-445143Y-317756D02*
X-445216D01*
X-445314Y-317780D01*
X-445436Y-317805D01*
X-445558Y-317853D01*
X-445705Y-317902D01*
X-445827Y-318000D01*
X-445973Y-318122D01*
X-445998Y-318146D01*
X-446022Y-318195D01*
X-446071Y-318268D01*
X-446144Y-318366D01*
X-446266Y-318634D01*
X-446290Y-318781D01*
X-446315Y-318952D01*
Y-318976D01*
Y-319049D01*
X-446290Y-319147D01*
X-446266Y-319269D01*
X-446168Y-319562D01*
X-446095Y-319709D01*
X-445973Y-319855D01*
X-445949Y-319879D01*
X-445900Y-319904D01*
X-445827Y-319953D01*
X-445729Y-320026D01*
X-445607Y-320099D01*
X-445461Y-320148D01*
X-445290Y-320172D01*
X-445094Y-320197D01*
X-445021D01*
X-444924Y-320172D01*
X-444801Y-320148D01*
X-444533Y-320050D01*
X-444386Y-319977D01*
X-444264Y-319855D01*
X-444240Y-319831D01*
X-444216Y-319782D01*
X-444142Y-319709D01*
X-444069Y-319611D01*
X-443947Y-319318D01*
X-443923Y-319172D01*
X-443898Y-318976D01*
Y-318952D01*
Y-318879D01*
X-443923Y-318805D01*
X-443947Y-318683D01*
X-443996Y-318537D01*
X-444045Y-318390D01*
X-444142Y-318244D01*
X-444264Y-318122D01*
X-444289Y-318097D01*
X-444338Y-318073D01*
X-444411Y-318000D01*
X-444509Y-317927D01*
X-444777Y-317805D01*
X-444948Y-317780D01*
X-445143Y-317756D01*
D02*
G37*
%LPD*%
D11*
X-422639Y-322224D02*
G03*
X-422656Y-323088I-22132J0D01*
G01*
D14*
X482470Y-345440D02*
G03*
X482470Y-345440I-42000J0D01*
G01*
X-129818Y323850D02*
G03*
X-129818Y323850I-65000J0D01*
G01*
X-263422Y324104D02*
G03*
X-263422Y324104I-65000J0D01*
G01*
X-322834Y-230632D02*
Y-220635D01*
X-317836D01*
X-316169Y-222301D01*
Y-225634D01*
X-317836Y-227300D01*
X-322834D01*
X-319502D02*
X-316169Y-230632D01*
X-312837Y-222301D02*
X-311171Y-220635D01*
X-307839D01*
X-306173Y-222301D01*
Y-223967D01*
X-307839Y-225634D01*
X-309505D01*
X-307839D01*
X-306173Y-227300D01*
Y-228966D01*
X-307839Y-230632D01*
X-311171D01*
X-312837Y-228966D01*
X-296176Y-220635D02*
X-302840D01*
Y-225634D01*
X-299508Y-223967D01*
X-297842D01*
X-296176Y-225634D01*
Y-228966D01*
X-297842Y-230632D01*
X-301174D01*
X-302840Y-228966D01*
X-378460Y-174498D02*
X-388457D01*
Y-169500D01*
X-386791Y-167833D01*
X-383458D01*
X-381792Y-169500D01*
Y-174498D01*
Y-171166D02*
X-378460Y-167833D01*
Y-164501D02*
Y-161169D01*
Y-162835D01*
X-388457D01*
X-386791Y-164501D01*
Y-156171D02*
X-388457Y-154504D01*
Y-151172D01*
X-386791Y-149506D01*
X-385125D01*
X-383458Y-151172D01*
X-381792Y-149506D01*
X-380126D01*
X-378460Y-151172D01*
Y-154504D01*
X-380126Y-156171D01*
X-381792D01*
X-383458Y-154504D01*
X-385125Y-156171D01*
X-386791D01*
X-383458Y-154504D02*
Y-151172D01*
X335594Y56083D02*
X333928Y57749D01*
X330596D01*
X328930Y56083D01*
Y49418D01*
X330596Y47752D01*
X333928D01*
X335594Y49418D01*
X338927Y56083D02*
X340593Y57749D01*
X343925D01*
X345591Y56083D01*
Y54416D01*
X343925Y52750D01*
X342259D01*
X343925D01*
X345591Y51084D01*
Y49418D01*
X343925Y47752D01*
X340593D01*
X338927Y49418D01*
X353922Y47752D02*
Y57749D01*
X348924Y52750D01*
X355588D01*
X270459Y7305D02*
X272125Y8972D01*
Y12304D01*
X270459Y13970D01*
X263794D01*
X262128Y12304D01*
Y8972D01*
X263794Y7305D01*
X270459Y3973D02*
X272125Y2307D01*
Y-1025D01*
X270459Y-2691D01*
X268792D01*
X267126Y-1025D01*
Y641D01*
Y-1025D01*
X265460Y-2691D01*
X263794D01*
X262128Y-1025D01*
Y2307D01*
X263794Y3973D01*
X272125Y-12688D02*
X270459Y-9356D01*
X267126Y-6024D01*
X263794D01*
X262128Y-7690D01*
Y-11022D01*
X263794Y-12688D01*
X265460D01*
X267126Y-11022D01*
Y-6024D01*
X232410Y-111760D02*
Y-101763D01*
X237408D01*
X239074Y-103429D01*
Y-106762D01*
X237408Y-108428D01*
X232410D01*
X235742D02*
X239074Y-111760D01*
X242407D02*
X245739D01*
X244073D01*
Y-101763D01*
X242407Y-103429D01*
X255736Y-111760D02*
Y-101763D01*
X250737Y-106762D01*
X257402D01*
X234950Y167640D02*
Y177637D01*
X239948D01*
X241614Y175971D01*
Y172638D01*
X239948Y170972D01*
X234950D01*
X238282D02*
X241614Y167640D01*
X244947D02*
X248279D01*
X246613D01*
Y177637D01*
X244947Y175971D01*
X253277D02*
X254944Y177637D01*
X258276D01*
X259942Y175971D01*
Y174305D01*
X258276Y172638D01*
X256610D01*
X258276D01*
X259942Y170972D01*
Y169306D01*
X258276Y167640D01*
X254944D01*
X253277Y169306D01*
X17221Y6036D02*
X18887Y7702D01*
Y11034D01*
X17221Y12700D01*
X10556D01*
X8890Y11034D01*
Y7702D01*
X10556Y6036D01*
X8890Y-3961D02*
Y2703D01*
X15554Y-3961D01*
X17221D01*
X18887Y-2295D01*
Y1037D01*
X17221Y2703D01*
X18887Y-7294D02*
Y-13958D01*
X17221D01*
X10556Y-7294D01*
X8890D01*
X114859Y-4766D02*
X113193Y-6432D01*
Y-9764D01*
X114859Y-11430D01*
X121524D01*
X123190Y-9764D01*
Y-6432D01*
X121524Y-4766D01*
X123190Y5231D02*
Y-1433D01*
X116525Y5231D01*
X114859D01*
X113193Y3565D01*
Y233D01*
X114859Y-1433D01*
X123190Y13562D02*
X113193D01*
X118192Y8564D01*
Y15228D01*
X39370Y113030D02*
Y123027D01*
X44368D01*
X46034Y121361D01*
Y118028D01*
X44368Y116362D01*
X39370D01*
X42702D02*
X46034Y113030D01*
X49367D02*
X52699D01*
X51033D01*
Y123027D01*
X49367Y121361D01*
X57697D02*
X59364Y123027D01*
X62696D01*
X64362Y121361D01*
Y114696D01*
X62696Y113030D01*
X59364D01*
X57697Y114696D01*
Y121361D01*
X67310Y46990D02*
Y56987D01*
X72308D01*
X73974Y55321D01*
Y51988D01*
X72308Y50322D01*
X67310D01*
X70642D02*
X73974Y46990D01*
X77307Y48656D02*
X78973Y46990D01*
X82305D01*
X83971Y48656D01*
Y55321D01*
X82305Y56987D01*
X78973D01*
X77307Y55321D01*
Y53654D01*
X78973Y51988D01*
X83971D01*
X54356Y160528D02*
Y170525D01*
X59354D01*
X61020Y168859D01*
Y165526D01*
X59354Y163860D01*
X54356D01*
X57688D02*
X61020Y160528D01*
X71017Y170525D02*
X67685Y168859D01*
X64353Y165526D01*
Y162194D01*
X66019Y160528D01*
X69351D01*
X71017Y162194D01*
Y163860D01*
X69351Y165526D01*
X64353D01*
X128016Y208534D02*
Y218531D01*
X133014D01*
X134681Y216865D01*
Y213532D01*
X133014Y211866D01*
X128016D01*
X131348D02*
X134681Y208534D01*
X144677Y218531D02*
X138013D01*
Y213532D01*
X141345Y215198D01*
X143011D01*
X144677Y213532D01*
Y210200D01*
X143011Y208534D01*
X139679D01*
X138013Y210200D01*
X43343Y-11430D02*
Y-8098D01*
Y-9764D01*
X53340D01*
Y-11430D01*
Y-8098D01*
X45009Y3565D02*
X43343Y1899D01*
Y-1433D01*
X45009Y-3099D01*
X51674D01*
X53340Y-1433D01*
Y1899D01*
X51674Y3565D01*
X53340Y11896D02*
X43343D01*
X48342Y6897D01*
Y13562D01*
X342453Y217373D02*
X340786Y219039D01*
X337454D01*
X335788Y217373D01*
Y210708D01*
X337454Y209042D01*
X340786D01*
X342453Y210708D01*
X352449Y209042D02*
X345785D01*
X352449Y215707D01*
Y217373D01*
X350783Y219039D01*
X347451D01*
X345785Y217373D01*
X362446Y219039D02*
X355782D01*
Y214040D01*
X359114Y215707D01*
X360780D01*
X362446Y214040D01*
Y210708D01*
X360780Y209042D01*
X357448D01*
X355782Y210708D01*
X-61519Y96206D02*
X-59853Y97872D01*
Y101204D01*
X-61519Y102870D01*
X-68184D01*
X-69850Y101204D01*
Y97872D01*
X-68184Y96206D01*
X-69850Y92873D02*
Y89541D01*
Y91207D01*
X-59853D01*
X-61519Y92873D01*
Y84543D02*
X-59853Y82876D01*
Y79544D01*
X-61519Y77878D01*
X-68184D01*
X-69850Y79544D01*
Y82876D01*
X-68184Y84543D01*
X-61519D01*
X133665Y64211D02*
X131998Y65877D01*
X128666D01*
X127000Y64211D01*
Y57546D01*
X128666Y55880D01*
X131998D01*
X133665Y57546D01*
X136997D02*
X138663Y55880D01*
X141995D01*
X143661Y57546D01*
Y64211D01*
X141995Y65877D01*
X138663D01*
X136997Y64211D01*
Y62544D01*
X138663Y60878D01*
X143661D01*
X-68773Y149555D02*
X-70440Y151221D01*
X-73772D01*
X-75438Y149555D01*
Y142890D01*
X-73772Y141224D01*
X-70440D01*
X-68773Y142890D01*
X-65441Y149555D02*
X-63775Y151221D01*
X-60443D01*
X-58777Y149555D01*
Y147888D01*
X-60443Y146222D01*
X-62109D01*
X-60443D01*
X-58777Y144556D01*
Y142890D01*
X-60443Y141224D01*
X-63775D01*
X-65441Y142890D01*
X86166Y188163D02*
X84500Y189829D01*
X81168D01*
X79502Y188163D01*
Y181498D01*
X81168Y179832D01*
X84500D01*
X86166Y181498D01*
X96163Y179832D02*
X89499D01*
X96163Y186497D01*
Y188163D01*
X94497Y189829D01*
X91165D01*
X89499Y188163D01*
X3647Y-430530D02*
X-6350D01*
X-1352D01*
Y-437195D01*
X3647D01*
X-6350D01*
Y-447191D02*
Y-440527D01*
X314Y-447191D01*
X1981D01*
X3647Y-445525D01*
Y-442193D01*
X1981Y-440527D01*
X270347Y-430530D02*
X260350D01*
X265348D01*
Y-437195D01*
X270347D01*
X260350D01*
Y-440527D02*
Y-443859D01*
Y-442193D01*
X270347D01*
X268681Y-440527D01*
X357378Y-348325D02*
X354046D01*
X355712D01*
Y-338328D01*
X357378D01*
X354046D01*
X342383Y-346659D02*
X344049Y-348325D01*
X347381D01*
X349047Y-346659D01*
Y-339994D01*
X347381Y-338328D01*
X344049D01*
X342383Y-339994D01*
X339051Y-338328D02*
X335718D01*
X337384D01*
Y-348325D01*
X339051Y-346659D01*
X91440Y-348579D02*
X88108D01*
X89774D01*
Y-338582D01*
X91440D01*
X88108D01*
X76445Y-346913D02*
X78111Y-348579D01*
X81443D01*
X83109Y-346913D01*
Y-340248D01*
X81443Y-338582D01*
X78111D01*
X76445Y-340248D01*
X73113Y-346913D02*
X71446Y-348579D01*
X68114D01*
X66448Y-346913D01*
Y-345247D01*
X68114Y-343580D01*
X69780D01*
X68114D01*
X66448Y-341914D01*
Y-340248D01*
X68114Y-338582D01*
X71446D01*
X73113Y-340248D01*
X319846Y-267005D02*
X318180Y-265339D01*
X314848D01*
X313182Y-267005D01*
Y-273670D01*
X314848Y-275336D01*
X318180D01*
X319846Y-273670D01*
X323179Y-265339D02*
X329843D01*
Y-267005D01*
X323179Y-273670D01*
Y-275336D01*
X472491Y-297374D02*
X470825Y-299040D01*
Y-302372D01*
X472491Y-304038D01*
X479156D01*
X480822Y-302372D01*
Y-299040D01*
X479156Y-297374D01*
X480822Y-294041D02*
Y-290709D01*
Y-292375D01*
X470825D01*
X472491Y-294041D01*
X55433Y-267005D02*
X53766Y-265339D01*
X50434D01*
X48768Y-267005D01*
Y-273670D01*
X50434Y-275336D01*
X53766D01*
X55433Y-273670D01*
X58765Y-275336D02*
X62097D01*
X60431D01*
Y-265339D01*
X58765Y-267005D01*
X67095D02*
X68762Y-265339D01*
X72094D01*
X73760Y-267005D01*
Y-268671D01*
X72094Y-270338D01*
X73760Y-272004D01*
Y-273670D01*
X72094Y-275336D01*
X68762D01*
X67095Y-273670D01*
Y-272004D01*
X68762Y-270338D01*
X67095Y-268671D01*
Y-267005D01*
X68762Y-270338D02*
X72094D01*
X-267462Y46319D02*
X-260798Y36322D01*
Y46319D02*
X-267462Y36322D01*
X-250801Y46319D02*
X-254133Y44653D01*
X-257465Y41320D01*
Y37988D01*
X-255799Y36322D01*
X-252467D01*
X-250801Y37988D01*
Y39654D01*
X-252467Y41320D01*
X-257465D01*
X-316230Y-260767D02*
X-312898D01*
X-314564D01*
Y-270764D01*
X-316230D01*
X-312898D01*
X-301235Y-262433D02*
X-302901Y-260767D01*
X-306233D01*
X-307899Y-262433D01*
Y-269098D01*
X-306233Y-270764D01*
X-302901D01*
X-301235Y-269098D01*
X-297903Y-262433D02*
X-296236Y-260767D01*
X-292904D01*
X-291238Y-262433D01*
Y-264100D01*
X-292904Y-265766D01*
X-291238Y-267432D01*
Y-269098D01*
X-292904Y-270764D01*
X-296236D01*
X-297903Y-269098D01*
Y-267432D01*
X-296236Y-265766D01*
X-297903Y-264100D01*
Y-262433D01*
X-296236Y-265766D02*
X-292904D01*
X-477520Y-226223D02*
X-470855Y-236220D01*
Y-226223D02*
X-477520Y-236220D01*
X-467523Y-227889D02*
X-465857Y-226223D01*
X-462525D01*
X-460859Y-227889D01*
Y-229555D01*
X-462525Y-231222D01*
X-464191D01*
X-462525D01*
X-460859Y-232888D01*
Y-234554D01*
X-462525Y-236220D01*
X-465857D01*
X-467523Y-234554D01*
X-317500Y103977D02*
X-310835Y93980D01*
Y103977D02*
X-317500Y93980D01*
X-302505D02*
Y103977D01*
X-307503Y98978D01*
X-300839D01*
X-477266Y235549D02*
X-470602Y225552D01*
Y235549D02*
X-477266Y225552D01*
X-460605D02*
X-467269D01*
X-460605Y232216D01*
Y233883D01*
X-462271Y235549D01*
X-465603D01*
X-467269Y233883D01*
X-77917Y60147D02*
X-79584Y61813D01*
X-82916D01*
X-84582Y60147D01*
Y53482D01*
X-82916Y51816D01*
X-79584D01*
X-77917Y53482D01*
X-67921Y51816D02*
X-74585D01*
X-67921Y58481D01*
Y60147D01*
X-69587Y61813D01*
X-72919D01*
X-74585Y60147D01*
X-57924Y51816D02*
X-64588D01*
X-57924Y58481D01*
Y60147D01*
X-59590Y61813D01*
X-62922D01*
X-64588Y60147D01*
X177800Y352897D02*
X181132D01*
X179466D01*
Y342900D01*
X177800D01*
X181132D01*
X192795Y351231D02*
X191129Y352897D01*
X187797D01*
X186131Y351231D01*
Y344566D01*
X187797Y342900D01*
X191129D01*
X192795Y344566D01*
X202792Y352897D02*
X196127D01*
Y347898D01*
X199460Y349565D01*
X201126D01*
X202792Y347898D01*
Y344566D01*
X201126Y342900D01*
X197794D01*
X196127Y344566D01*
X224333Y-5274D02*
X222667Y-6940D01*
Y-10272D01*
X224333Y-11938D01*
X230998D01*
X232664Y-10272D01*
Y-6940D01*
X230998Y-5274D01*
X232664Y4723D02*
Y-1941D01*
X226000Y4723D01*
X224333D01*
X222667Y3057D01*
Y-275D01*
X224333Y-1941D01*
Y8056D02*
X222667Y9722D01*
Y13054D01*
X224333Y14720D01*
X226000D01*
X227666Y13054D01*
Y11388D01*
Y13054D01*
X229332Y14720D01*
X230998D01*
X232664Y13054D01*
Y9722D01*
X230998Y8056D01*
X-87316Y310591D02*
X-88982Y312257D01*
X-92314D01*
X-93980Y310591D01*
Y303926D01*
X-92314Y302260D01*
X-88982D01*
X-87316Y303926D01*
X-83983Y302260D02*
X-80651D01*
X-82317D01*
Y312257D01*
X-83983Y310591D01*
X-68988Y312257D02*
X-72320Y310591D01*
X-75653Y307258D01*
Y303926D01*
X-73986Y302260D01*
X-70654D01*
X-68988Y303926D01*
Y305592D01*
X-70654Y307258D01*
X-75653D01*
X-332740Y-71283D02*
X-326076Y-81280D01*
Y-71283D02*
X-332740Y-81280D01*
X-316079Y-71283D02*
X-322743D01*
Y-76282D01*
X-319411Y-74616D01*
X-317745D01*
X-316079Y-76282D01*
Y-79614D01*
X-317745Y-81280D01*
X-321077D01*
X-322743Y-79614D01*
X-378460Y-143510D02*
X-388457D01*
Y-138512D01*
X-386791Y-136846D01*
X-383458D01*
X-381792Y-138512D01*
Y-143510D01*
Y-140178D02*
X-378460Y-136846D01*
Y-133513D02*
Y-130181D01*
Y-131847D01*
X-388457D01*
X-386791Y-133513D01*
X-380126Y-125183D02*
X-378460Y-123516D01*
Y-120184D01*
X-380126Y-118518D01*
X-386791D01*
X-388457Y-120184D01*
Y-123516D01*
X-386791Y-125183D01*
X-385125D01*
X-383458Y-123516D01*
Y-118518D01*
X-208788Y-215900D02*
Y-205903D01*
X-203790D01*
X-202124Y-207569D01*
Y-210902D01*
X-203790Y-212568D01*
X-208788D01*
X-205456D02*
X-202124Y-215900D01*
X-198791Y-207569D02*
X-197125Y-205903D01*
X-193793D01*
X-192127Y-207569D01*
Y-209235D01*
X-193793Y-210902D01*
X-195459D01*
X-193793D01*
X-192127Y-212568D01*
Y-214234D01*
X-193793Y-215900D01*
X-197125D01*
X-198791Y-214234D01*
X-188794Y-207569D02*
X-187128Y-205903D01*
X-183796D01*
X-182130Y-207569D01*
Y-209235D01*
X-183796Y-210902D01*
X-185462D01*
X-183796D01*
X-182130Y-212568D01*
Y-214234D01*
X-183796Y-215900D01*
X-187128D01*
X-188794Y-214234D01*
X-258826Y-145034D02*
Y-135037D01*
X-253828D01*
X-252162Y-136703D01*
Y-140036D01*
X-253828Y-141702D01*
X-258826D01*
X-255494D02*
X-252162Y-145034D01*
X-248829Y-136703D02*
X-247163Y-135037D01*
X-243831D01*
X-242165Y-136703D01*
Y-138370D01*
X-243831Y-140036D01*
X-245497D01*
X-243831D01*
X-242165Y-141702D01*
Y-143368D01*
X-243831Y-145034D01*
X-247163D01*
X-248829Y-143368D01*
X-233834Y-145034D02*
Y-135037D01*
X-238832Y-140036D01*
X-232168D01*
X-264160Y-205649D02*
Y-215646D01*
X-257495D01*
X-247499Y-205649D02*
X-254163D01*
Y-215646D01*
X-247499D01*
X-254163Y-210648D02*
X-250831D01*
X-244166Y-205649D02*
Y-215646D01*
X-239168D01*
X-237502Y-213980D01*
Y-207315D01*
X-239168Y-205649D01*
X-244166D01*
X-227505D02*
X-234170D01*
Y-210648D01*
X-230837Y-208981D01*
X-229171D01*
X-227505Y-210648D01*
Y-213980D01*
X-229171Y-215646D01*
X-232504D01*
X-234170Y-213980D01*
X-217170Y-101255D02*
Y-111252D01*
X-212172D01*
X-210506Y-109586D01*
Y-102921D01*
X-212172Y-101255D01*
X-217170D01*
X-207173Y-109586D02*
X-205507Y-111252D01*
X-202175D01*
X-200509Y-109586D01*
Y-102921D01*
X-202175Y-101255D01*
X-205507D01*
X-207173Y-102921D01*
Y-104587D01*
X-205507Y-106254D01*
X-200509D01*
X-203902Y-137211D02*
X-205568Y-135545D01*
X-208900D01*
X-210566Y-137211D01*
Y-143876D01*
X-208900Y-145542D01*
X-205568D01*
X-203902Y-143876D01*
X-200569Y-137211D02*
X-198903Y-135545D01*
X-195571D01*
X-193905Y-137211D01*
Y-138877D01*
X-195571Y-140544D01*
X-197237D01*
X-195571D01*
X-193905Y-142210D01*
Y-143876D01*
X-195571Y-145542D01*
X-198903D01*
X-200569Y-143876D01*
X-190572Y-137211D02*
X-188906Y-135545D01*
X-185574D01*
X-183908Y-137211D01*
Y-138877D01*
X-185574Y-140544D01*
X-183908Y-142210D01*
Y-143876D01*
X-185574Y-145542D01*
X-188906D01*
X-190572Y-143876D01*
Y-142210D01*
X-188906Y-140544D01*
X-190572Y-138877D01*
Y-137211D01*
X-188906Y-140544D02*
X-185574D01*
X-386791Y-107889D02*
X-388457Y-109556D01*
Y-112888D01*
X-386791Y-114554D01*
X-380126D01*
X-378460Y-112888D01*
Y-109556D01*
X-380126Y-107889D01*
X-386791Y-104557D02*
X-388457Y-102891D01*
Y-99559D01*
X-386791Y-97893D01*
X-385125D01*
X-383458Y-99559D01*
Y-101225D01*
Y-99559D01*
X-381792Y-97893D01*
X-380126D01*
X-378460Y-99559D01*
Y-102891D01*
X-380126Y-104557D01*
X-386791Y-94560D02*
X-388457Y-92894D01*
Y-89562D01*
X-386791Y-87896D01*
X-385125D01*
X-383458Y-89562D01*
Y-91228D01*
Y-89562D01*
X-381792Y-87896D01*
X-380126D01*
X-378460Y-89562D01*
Y-92894D01*
X-380126Y-94560D01*
X-335026Y-50963D02*
X-331694D01*
X-333360D01*
Y-60960D01*
X-335026D01*
X-331694D01*
X-320031Y-52629D02*
X-321697Y-50963D01*
X-325029D01*
X-326695Y-52629D01*
Y-59294D01*
X-325029Y-60960D01*
X-321697D01*
X-320031Y-59294D01*
X-316699Y-60960D02*
X-313366D01*
X-315032D01*
Y-50963D01*
X-316699Y-52629D01*
X-308368D02*
X-306702Y-50963D01*
X-303370D01*
X-301703Y-52629D01*
Y-59294D01*
X-303370Y-60960D01*
X-306702D01*
X-308368Y-59294D01*
Y-52629D01*
X261783Y426720D02*
X271780D01*
X266782D01*
Y433385D01*
X261783D01*
X271780D01*
X263449Y436717D02*
X261783Y438383D01*
Y441715D01*
X263449Y443381D01*
X265116D01*
X266782Y441715D01*
Y440049D01*
Y441715D01*
X268448Y443381D01*
X270114D01*
X271780Y441715D01*
Y438383D01*
X270114Y436717D01*
X-4917Y430530D02*
X5080D01*
X82D01*
Y437195D01*
X-4917D01*
X5080D01*
Y445525D02*
X-4917D01*
X82Y440527D01*
Y447191D01*
X-362509Y56835D02*
X-360843Y58502D01*
Y61834D01*
X-362509Y63500D01*
X-369174D01*
X-370840Y61834D01*
Y58502D01*
X-369174Y56835D01*
X-362509Y53503D02*
X-360843Y51837D01*
Y48505D01*
X-362509Y46839D01*
X-364175D01*
X-365842Y48505D01*
Y50171D01*
Y48505D01*
X-367508Y46839D01*
X-369174D01*
X-370840Y48505D01*
Y51837D01*
X-369174Y53503D01*
X-362509Y43506D02*
X-360843Y41840D01*
Y38508D01*
X-362509Y36842D01*
X-369174D01*
X-370840Y38508D01*
Y41840D01*
X-369174Y43506D01*
X-362509D01*
X-213808Y-72187D02*
X-215474Y-70521D01*
X-218806D01*
X-220472Y-72187D01*
Y-78852D01*
X-218806Y-80518D01*
X-215474D01*
X-213808Y-78852D01*
X-205477Y-80518D02*
Y-70521D01*
X-210475Y-75520D01*
X-203811D01*
X-200478Y-72187D02*
X-198812Y-70521D01*
X-195480D01*
X-193814Y-72187D01*
Y-78852D01*
X-195480Y-80518D01*
X-198812D01*
X-200478Y-78852D01*
Y-72187D01*
X-381447Y9347D02*
X-383114Y11013D01*
X-386446D01*
X-388112Y9347D01*
Y2682D01*
X-386446Y1016D01*
X-383114D01*
X-381447Y2682D01*
X-378115Y9347D02*
X-376449Y11013D01*
X-373117D01*
X-371451Y9347D01*
Y7681D01*
X-373117Y6014D01*
X-374783D01*
X-373117D01*
X-371451Y4348D01*
Y2682D01*
X-373117Y1016D01*
X-376449D01*
X-378115Y2682D01*
X-368118Y1016D02*
X-364786D01*
X-366452D01*
Y11013D01*
X-368118Y9347D01*
X-262829Y20777D02*
X-264496Y22443D01*
X-267828D01*
X-269494Y20777D01*
Y14112D01*
X-267828Y12446D01*
X-264496D01*
X-262829Y14112D01*
X-259497Y20777D02*
X-257831Y22443D01*
X-254499D01*
X-252833Y20777D01*
Y19110D01*
X-254499Y17444D01*
X-256165D01*
X-254499D01*
X-252833Y15778D01*
Y14112D01*
X-254499Y12446D01*
X-257831D01*
X-259497Y14112D01*
X-249500D02*
X-247834Y12446D01*
X-244502D01*
X-242836Y14112D01*
Y20777D01*
X-244502Y22443D01*
X-247834D01*
X-249500Y20777D01*
Y19110D01*
X-247834Y17444D01*
X-242836D01*
X-387096Y-81534D02*
Y-71537D01*
X-382098D01*
X-380432Y-73203D01*
Y-76536D01*
X-382098Y-78202D01*
X-387096D01*
X-383764D02*
X-380432Y-81534D01*
X-370435D02*
X-377099D01*
X-370435Y-74869D01*
Y-73203D01*
X-372101Y-71537D01*
X-375433D01*
X-377099Y-73203D01*
X-367102Y-71537D02*
X-360438D01*
Y-73203D01*
X-367102Y-79868D01*
Y-81534D01*
X-387604Y-56134D02*
Y-46137D01*
X-382606D01*
X-380939Y-47803D01*
Y-51136D01*
X-382606Y-52802D01*
X-387604D01*
X-384272D02*
X-380939Y-56134D01*
X-370943D02*
X-377607D01*
X-370943Y-49469D01*
Y-47803D01*
X-372609Y-46137D01*
X-375941D01*
X-377607Y-47803D01*
X-360946Y-46137D02*
X-364278Y-47803D01*
X-367610Y-51136D01*
Y-54468D01*
X-365944Y-56134D01*
X-362612D01*
X-360946Y-54468D01*
Y-52802D01*
X-362612Y-51136D01*
X-367610D01*
X-387604Y-30988D02*
Y-20991D01*
X-382606D01*
X-380939Y-22657D01*
Y-25990D01*
X-382606Y-27656D01*
X-387604D01*
X-384272D02*
X-380939Y-30988D01*
X-370943D02*
X-377607D01*
X-370943Y-24323D01*
Y-22657D01*
X-372609Y-20991D01*
X-375941D01*
X-377607Y-22657D01*
X-360946Y-20991D02*
X-367610D01*
Y-25990D01*
X-364278Y-24323D01*
X-362612D01*
X-360946Y-25990D01*
Y-29322D01*
X-362612Y-30988D01*
X-365944D01*
X-367610Y-29322D01*
X-375098Y139141D02*
X-376764Y140807D01*
X-380096D01*
X-381762Y139141D01*
Y132476D01*
X-380096Y130810D01*
X-376764D01*
X-375098Y132476D01*
X-365101Y140807D02*
X-368433Y139141D01*
X-371765Y135808D01*
Y132476D01*
X-370099Y130810D01*
X-366767D01*
X-365101Y132476D01*
Y134142D01*
X-366767Y135808D01*
X-371765D01*
X-121606Y60401D02*
X-123272Y62067D01*
X-126604D01*
X-128270Y60401D01*
Y53736D01*
X-126604Y52070D01*
X-123272D01*
X-121606Y53736D01*
X-113275Y52070D02*
Y62067D01*
X-118273Y57068D01*
X-111609D01*
X-108276Y60401D02*
X-106610Y62067D01*
X-103278D01*
X-101612Y60401D01*
Y58734D01*
X-103278Y57068D01*
X-104944D01*
X-103278D01*
X-101612Y55402D01*
Y53736D01*
X-103278Y52070D01*
X-106610D01*
X-108276Y53736D01*
X-188916Y234391D02*
X-190582Y236057D01*
X-193914D01*
X-195580Y234391D01*
Y227726D01*
X-193914Y226060D01*
X-190582D01*
X-188916Y227726D01*
X-185583Y226060D02*
X-182251D01*
X-183917D01*
Y236057D01*
X-185583Y234391D01*
X-177253Y227726D02*
X-175586Y226060D01*
X-172254D01*
X-170588Y227726D01*
Y234391D01*
X-172254Y236057D01*
X-175586D01*
X-177253Y234391D01*
Y232724D01*
X-175586Y231058D01*
X-170588D01*
X-173675Y123901D02*
X-175342Y125567D01*
X-178674D01*
X-180340Y123901D01*
Y117236D01*
X-178674Y115570D01*
X-175342D01*
X-173675Y117236D01*
X-170343Y115570D02*
X-167011D01*
X-168677D01*
Y125567D01*
X-170343Y123901D01*
X-155348Y125567D02*
X-162013D01*
Y120568D01*
X-158680Y122234D01*
X-157014D01*
X-155348Y120568D01*
Y117236D01*
X-157014Y115570D01*
X-160346D01*
X-162013Y117236D01*
X-307340Y236057D02*
X-304008D01*
X-305674D01*
Y226060D01*
X-307340D01*
X-304008D01*
X-292345Y234391D02*
X-294011Y236057D01*
X-297343D01*
X-299009Y234391D01*
Y227726D01*
X-297343Y226060D01*
X-294011D01*
X-292345Y227726D01*
X-282348Y226060D02*
X-289013D01*
X-282348Y232724D01*
Y234391D01*
X-284014Y236057D01*
X-287346D01*
X-289013Y234391D01*
X-432294Y-206157D02*
Y-216154D01*
X-425630D01*
X-415633Y-206157D02*
X-422297D01*
Y-216154D01*
X-415633D01*
X-422297Y-211156D02*
X-418965D01*
X-412300Y-206157D02*
Y-216154D01*
X-407302D01*
X-405636Y-214488D01*
Y-207823D01*
X-407302Y-206157D01*
X-412300D01*
X-397305Y-216154D02*
Y-206157D01*
X-402304Y-211156D01*
X-395639D01*
X433385Y52461D02*
X431718Y54127D01*
X428386D01*
X426720Y52461D01*
Y45796D01*
X428386Y44130D01*
X431718D01*
X433385Y45796D01*
X441715Y44130D02*
Y54127D01*
X436717Y49128D01*
X443381D01*
X446714Y44130D02*
X450046D01*
X448380D01*
Y54127D01*
X446714Y52461D01*
X433893Y-43739D02*
X432226Y-42073D01*
X428894D01*
X427228Y-43739D01*
Y-50404D01*
X428894Y-52070D01*
X432226D01*
X433893Y-50404D01*
X437225Y-43739D02*
X438891Y-42073D01*
X442223D01*
X443889Y-43739D01*
Y-45406D01*
X442223Y-47072D01*
X440557D01*
X442223D01*
X443889Y-48738D01*
Y-50404D01*
X442223Y-52070D01*
X438891D01*
X437225Y-50404D01*
X447222Y-42073D02*
X453886D01*
Y-43739D01*
X447222Y-50404D01*
Y-52070D01*
X-180340Y86360D02*
Y96357D01*
X-175342D01*
X-173675Y94691D01*
Y91358D01*
X-175342Y89692D01*
X-180340D01*
X-177008D02*
X-173675Y86360D01*
X-163679D02*
X-170343D01*
X-163679Y93025D01*
Y94691D01*
X-165345Y96357D01*
X-168677D01*
X-170343Y94691D01*
X-160346Y86360D02*
X-157014D01*
X-158680D01*
Y96357D01*
X-160346Y94691D01*
X-180340Y58420D02*
Y68417D01*
X-175342D01*
X-173675Y66751D01*
Y63418D01*
X-175342Y61752D01*
X-180340D01*
X-177008D02*
X-173675Y58420D01*
X-163679D02*
X-170343D01*
X-163679Y65085D01*
Y66751D01*
X-165345Y68417D01*
X-168677D01*
X-170343Y66751D01*
X-153682Y58420D02*
X-160346D01*
X-153682Y65085D01*
Y66751D01*
X-155348Y68417D01*
X-158680D01*
X-160346Y66751D01*
X-387858Y114554D02*
Y124551D01*
X-382860D01*
X-381194Y122885D01*
Y119552D01*
X-382860Y117886D01*
X-387858D01*
X-384526D02*
X-381194Y114554D01*
X-371197D02*
X-377861D01*
X-371197Y121219D01*
Y122885D01*
X-372863Y124551D01*
X-376195D01*
X-377861Y122885D01*
X-367864D02*
X-366198Y124551D01*
X-362866D01*
X-361200Y122885D01*
Y121219D01*
X-362866Y119552D01*
X-364532D01*
X-362866D01*
X-361200Y117886D01*
Y116220D01*
X-362866Y114554D01*
X-366198D01*
X-367864Y116220D01*
X-388366Y86360D02*
Y96357D01*
X-383368D01*
X-381702Y94691D01*
Y91358D01*
X-383368Y89692D01*
X-388366D01*
X-385034D02*
X-381702Y86360D01*
X-371705D02*
X-378369D01*
X-371705Y93025D01*
Y94691D01*
X-373371Y96357D01*
X-376703D01*
X-378369Y94691D01*
X-363374Y86360D02*
Y96357D01*
X-368372Y91358D01*
X-361708D01*
X-133513Y467360D02*
X-143510D01*
Y462362D01*
X-141844Y460695D01*
X-135179D01*
X-133513Y462362D01*
Y467360D01*
Y457363D02*
Y450699D01*
X-135179D01*
X-141844Y457363D01*
X-143510D01*
X-133513Y425450D02*
X-143510D01*
Y420452D01*
X-141844Y418786D01*
X-135179D01*
X-133513Y420452D01*
Y425450D01*
X-135179Y415453D02*
X-133513Y413787D01*
Y410455D01*
X-135179Y408789D01*
X-136846D01*
X-138512Y410455D01*
X-140178Y408789D01*
X-141844D01*
X-143510Y410455D01*
Y413787D01*
X-141844Y415453D01*
X-140178D01*
X-138512Y413787D01*
X-136846Y415453D01*
X-135179D01*
X-138512Y413787D02*
Y410455D01*
X-296581Y425958D02*
X-306578D01*
Y420960D01*
X-304912Y419294D01*
X-298247D01*
X-296581Y420960D01*
Y425958D01*
X-306578Y410963D02*
X-296581D01*
X-301580Y415961D01*
Y409297D01*
X-296835Y466598D02*
X-306832D01*
Y461600D01*
X-305166Y459934D01*
X-298501D01*
X-296835Y461600D01*
Y466598D01*
X-298501Y456601D02*
X-296835Y454935D01*
Y451603D01*
X-298501Y449937D01*
X-300168D01*
X-301834Y451603D01*
Y453269D01*
Y451603D01*
X-303500Y449937D01*
X-305166D01*
X-306832Y451603D01*
Y454935D01*
X-305166Y456601D01*
X-90170Y355437D02*
X-86838D01*
X-88504D01*
Y345440D01*
X-90170D01*
X-86838D01*
X-75175Y353771D02*
X-76841Y355437D01*
X-80173D01*
X-81839Y353771D01*
Y347106D01*
X-80173Y345440D01*
X-76841D01*
X-75175Y347106D01*
X-65178Y355437D02*
X-68510Y353771D01*
X-71843Y350438D01*
Y347106D01*
X-70176Y345440D01*
X-66844D01*
X-65178Y347106D01*
Y348772D01*
X-66844Y350438D01*
X-71843D01*
X-33976Y310591D02*
X-35642Y312257D01*
X-38974D01*
X-40640Y310591D01*
Y303926D01*
X-38974Y302260D01*
X-35642D01*
X-33976Y303926D01*
X-23979Y302260D02*
X-30643D01*
X-23979Y308925D01*
Y310591D01*
X-25645Y312257D01*
X-28977D01*
X-30643Y310591D01*
X-20646Y303926D02*
X-18980Y302260D01*
X-15648D01*
X-13982Y303926D01*
Y310591D01*
X-15648Y312257D01*
X-18980D01*
X-20646Y310591D01*
Y308925D01*
X-18980Y307258D01*
X-13982D01*
X200721Y271221D02*
X199054Y272887D01*
X195722D01*
X194056Y271221D01*
Y264556D01*
X195722Y262890D01*
X199054D01*
X200721Y264556D01*
X210717Y262890D02*
X204053D01*
X210717Y269555D01*
Y271221D01*
X209051Y272887D01*
X205719D01*
X204053Y271221D01*
X214050D02*
X215716Y272887D01*
X219048D01*
X220714Y271221D01*
Y269555D01*
X219048Y267888D01*
X220714Y266222D01*
Y264556D01*
X219048Y262890D01*
X215716D01*
X214050Y264556D01*
Y266222D01*
X215716Y267888D01*
X214050Y269555D01*
Y271221D01*
X215716Y267888D02*
X219048D01*
X-385765Y260553D02*
X-387432Y262219D01*
X-390764D01*
X-392430Y260553D01*
Y253888D01*
X-390764Y252222D01*
X-387432D01*
X-385765Y253888D01*
X-382433Y252222D02*
X-379101D01*
X-380767D01*
Y262219D01*
X-382433Y260553D01*
X-374103Y262219D02*
X-367438D01*
Y260553D01*
X-374103Y253888D01*
Y252222D01*
X22352Y185674D02*
Y195671D01*
X27350D01*
X29016Y194005D01*
Y190672D01*
X27350Y189006D01*
X22352D01*
X25684D02*
X29016Y185674D01*
X39013D02*
X32349D01*
X39013Y192339D01*
Y194005D01*
X37347Y195671D01*
X34015D01*
X32349Y194005D01*
X22860Y211836D02*
Y221833D01*
X27858D01*
X29525Y220167D01*
Y216834D01*
X27858Y215168D01*
X22860D01*
X26192D02*
X29525Y211836D01*
X32857D02*
X36189D01*
X34523D01*
Y221833D01*
X32857Y220167D01*
X194625Y-138479D02*
X192958Y-136813D01*
X189626D01*
X187960Y-138479D01*
Y-145144D01*
X189626Y-146810D01*
X192958D01*
X194625Y-145144D01*
X202955Y-146810D02*
Y-136813D01*
X197957Y-141812D01*
X204621D01*
X-69785Y-136703D02*
X-71452Y-135037D01*
X-74784D01*
X-76450Y-136703D01*
Y-143368D01*
X-74784Y-145034D01*
X-71452D01*
X-69785Y-143368D01*
X-59789Y-135037D02*
X-66453D01*
Y-140036D01*
X-63121Y-138370D01*
X-61455D01*
X-59789Y-140036D01*
Y-143368D01*
X-61455Y-145034D01*
X-64787D01*
X-66453Y-143368D01*
X194625Y-74219D02*
X192958Y-72553D01*
X189626D01*
X187960Y-74219D01*
Y-80884D01*
X189626Y-82550D01*
X192958D01*
X194625Y-80884D01*
X197957Y-82550D02*
X201289D01*
X199623D01*
Y-72553D01*
X197957Y-74219D01*
X206287Y-82550D02*
X209620D01*
X207954D01*
Y-72553D01*
X206287Y-74219D01*
X342198Y-208331D02*
X340532Y-206665D01*
X337200D01*
X335534Y-208331D01*
Y-214996D01*
X337200Y-216662D01*
X340532D01*
X342198Y-214996D01*
X352195Y-216662D02*
X345531D01*
X352195Y-209998D01*
Y-208331D01*
X350529Y-206665D01*
X347197D01*
X345531Y-208331D01*
X362192Y-206665D02*
X358860Y-208331D01*
X355528Y-211664D01*
Y-214996D01*
X357194Y-216662D01*
X360526D01*
X362192Y-214996D01*
Y-213330D01*
X360526Y-211664D01*
X355528D01*
X23368Y-218694D02*
Y-208697D01*
X28366D01*
X30032Y-210363D01*
Y-213696D01*
X28366Y-215362D01*
X23368D01*
X26700D02*
X30032Y-218694D01*
X33365Y-210363D02*
X35031Y-208697D01*
X38363D01*
X40029Y-210363D01*
Y-212029D01*
X38363Y-213696D01*
X36697D01*
X38363D01*
X40029Y-215362D01*
Y-217028D01*
X38363Y-218694D01*
X35031D01*
X33365Y-217028D01*
X23622Y-193294D02*
Y-183297D01*
X28620D01*
X30287Y-184963D01*
Y-188296D01*
X28620Y-189962D01*
X23622D01*
X26954D02*
X30287Y-193294D01*
X38617D02*
Y-183297D01*
X33619Y-188296D01*
X40283D01*
X128778Y-215900D02*
Y-205903D01*
X133776D01*
X135442Y-207569D01*
Y-210902D01*
X133776Y-212568D01*
X128778D01*
X132110D02*
X135442Y-215900D01*
X138775Y-205903D02*
X145439D01*
Y-207569D01*
X138775Y-214234D01*
Y-215900D01*
X54356Y-165862D02*
Y-155865D01*
X59354D01*
X61020Y-157531D01*
Y-160864D01*
X59354Y-162530D01*
X54356D01*
X57688D02*
X61020Y-165862D01*
X64353Y-157531D02*
X66019Y-155865D01*
X69351D01*
X71017Y-157531D01*
Y-159198D01*
X69351Y-160864D01*
X71017Y-162530D01*
Y-164196D01*
X69351Y-165862D01*
X66019D01*
X64353Y-164196D01*
Y-162530D01*
X66019Y-160864D01*
X64353Y-159198D01*
Y-157531D01*
X66019Y-160864D02*
X69351D01*
X59690Y-53340D02*
Y-43343D01*
X64688D01*
X66354Y-45009D01*
Y-48342D01*
X64688Y-50008D01*
X59690D01*
X63022D02*
X66354Y-53340D01*
X69687D02*
X73019D01*
X71353D01*
Y-43343D01*
X69687Y-45009D01*
X78017Y-53340D02*
X81350D01*
X79684D01*
Y-43343D01*
X78017Y-45009D01*
X40640Y-120650D02*
Y-110653D01*
X45638D01*
X47305Y-112319D01*
Y-115652D01*
X45638Y-117318D01*
X40640D01*
X43972D02*
X47305Y-120650D01*
X50637D02*
X53969D01*
X52303D01*
Y-110653D01*
X50637Y-112319D01*
X65632Y-120650D02*
X58967D01*
X65632Y-113986D01*
Y-112319D01*
X63966Y-110653D01*
X60634D01*
X58967Y-112319D01*
X-385004Y392633D02*
X-386670Y394299D01*
X-390002D01*
X-391668Y392633D01*
Y385968D01*
X-390002Y384302D01*
X-386670D01*
X-385004Y385968D01*
X-381671Y384302D02*
X-378339D01*
X-380005D01*
Y394299D01*
X-381671Y392633D01*
X-368342Y384302D02*
Y394299D01*
X-373341Y389300D01*
X-366676D01*
X-256987Y391109D02*
X-258654Y392775D01*
X-261986D01*
X-263652Y391109D01*
Y384444D01*
X-261986Y382778D01*
X-258654D01*
X-256987Y384444D01*
X-253655Y382778D02*
X-250323D01*
X-251989D01*
Y392775D01*
X-253655Y391109D01*
X-245325D02*
X-243658Y392775D01*
X-240326D01*
X-238660Y391109D01*
Y389442D01*
X-240326Y387776D01*
X-241992D01*
X-240326D01*
X-238660Y386110D01*
Y384444D01*
X-240326Y382778D01*
X-243658D01*
X-245325Y384444D01*
X-452120Y483707D02*
X-445456Y473710D01*
Y483707D02*
X-452120Y473710D01*
X-442123D02*
X-438791D01*
X-440457D01*
Y483707D01*
X-442123Y482041D01*
X-77660Y-76251D02*
X-79326Y-74585D01*
X-82658D01*
X-84324Y-76251D01*
Y-82916D01*
X-82658Y-84582D01*
X-79326D01*
X-77660Y-82916D01*
X-74327Y-84582D02*
X-70995D01*
X-72661D01*
Y-74585D01*
X-74327Y-76251D01*
X-59332Y-84582D02*
X-65997D01*
X-59332Y-77917D01*
Y-76251D01*
X-60998Y-74585D01*
X-64331D01*
X-65997Y-76251D01*
X430276Y-152817D02*
X436940Y-162814D01*
Y-152817D02*
X430276Y-162814D01*
X440273Y-152817D02*
X446937D01*
Y-154483D01*
X440273Y-161148D01*
Y-162814D01*
X430784Y162143D02*
X437449Y152146D01*
Y162143D02*
X430784Y152146D01*
X440781Y160477D02*
X442447Y162143D01*
X445779D01*
X447445Y160477D01*
Y158811D01*
X445779Y157144D01*
X447445Y155478D01*
Y153812D01*
X445779Y152146D01*
X442447D01*
X440781Y153812D01*
Y155478D01*
X442447Y157144D01*
X440781Y158811D01*
Y160477D01*
X442447Y157144D02*
X445779D01*
X-178308Y-112939D02*
X-171644D01*
X-174976D01*
Y-122936D01*
X-168311D02*
Y-112939D01*
X-163313D01*
X-161647Y-114605D01*
Y-117938D01*
X-163313Y-119604D01*
X-168311D01*
X-153316Y-122936D02*
Y-112939D01*
X-158314Y-117938D01*
X-151650D01*
X-274574Y-47661D02*
X-267910D01*
X-271242D01*
Y-57658D01*
X-264577D02*
Y-47661D01*
X-259579D01*
X-257913Y-49327D01*
Y-52660D01*
X-259579Y-54326D01*
X-264577D01*
X-247916Y-47661D02*
X-254580D01*
Y-52660D01*
X-251248Y-50993D01*
X-249582D01*
X-247916Y-52660D01*
Y-55992D01*
X-249582Y-57658D01*
X-252914D01*
X-254580Y-55992D01*
X-429768Y237548D02*
X-421771D01*
X-425769D01*
Y225552D01*
X-417772D02*
Y237548D01*
X-411774D01*
X-409775Y235549D01*
Y231550D01*
X-411774Y229551D01*
X-417772D01*
X-393780Y231550D02*
X-385782D01*
X-389781Y235549D02*
Y227551D01*
X-373786Y237548D02*
X-381783D01*
Y231550D01*
X-377785Y233549D01*
X-375785D01*
X-373786Y231550D01*
Y227551D01*
X-375785Y225552D01*
X-379784D01*
X-381783Y227551D01*
X-369787Y237548D02*
Y229551D01*
X-365789Y225552D01*
X-361790Y229551D01*
Y237548D01*
X-357791Y225552D02*
X-353793D01*
X-355792D01*
Y233549D01*
X-357791D01*
X-347794Y225552D02*
Y233549D01*
X-341796D01*
X-339797Y231550D01*
Y225552D01*
X-113923Y190337D02*
X-115922Y192336D01*
X-119921D01*
X-121920Y190337D01*
Y182339D01*
X-119921Y180340D01*
X-115922D01*
X-113923Y182339D01*
Y186338D01*
X-117921D01*
X-109924Y180340D02*
Y192336D01*
X-101926Y180340D01*
Y192336D01*
X-97928D02*
Y180340D01*
X-91930D01*
X-89930Y182339D01*
Y190337D01*
X-91930Y192336D01*
X-97928D01*
X-260350Y-233680D02*
Y-223683D01*
X-255352D01*
X-253685Y-225349D01*
Y-228682D01*
X-255352Y-230348D01*
X-260350D01*
X-243689Y-225349D02*
X-245355Y-223683D01*
X-248687D01*
X-250353Y-225349D01*
Y-232014D01*
X-248687Y-233680D01*
X-245355D01*
X-243689Y-232014D01*
X-240356Y-233680D02*
Y-223683D01*
X-237024Y-227015D01*
X-233692Y-223683D01*
Y-233680D01*
X-391545Y-351536D02*
X-399542D01*
X-391545Y-343539D01*
Y-341539D01*
X-393544Y-339540D01*
X-397543D01*
X-399542Y-341539D01*
X-387546D02*
X-385546Y-339540D01*
X-381548D01*
X-379548Y-341539D01*
Y-349537D01*
X-381548Y-351536D01*
X-385546D01*
X-387546Y-349537D01*
Y-341539D01*
X-367552Y-351536D02*
X-375550D01*
X-367552Y-343539D01*
Y-341539D01*
X-369552Y-339540D01*
X-373550D01*
X-375550Y-341539D01*
X-363554D02*
X-361554Y-339540D01*
X-357556D01*
X-355556Y-341539D01*
Y-349537D01*
X-357556Y-351536D01*
X-361554D01*
X-363554Y-349537D01*
Y-341539D01*
X-399542Y-328930D02*
Y-320933D01*
X-395543Y-316934D01*
X-391545Y-320933D01*
Y-328930D01*
Y-322932D01*
X-399542D01*
X-387546Y-316934D02*
Y-328930D01*
X-381548D01*
X-379548Y-326931D01*
Y-318933D01*
X-381548Y-316934D01*
X-387546D01*
X-367552Y-318933D02*
X-369552Y-316934D01*
X-373550D01*
X-375550Y-318933D01*
Y-326931D01*
X-373550Y-328930D01*
X-369552D01*
X-367552Y-326931D01*
X-355556Y-318933D02*
X-357556Y-316934D01*
X-361554D01*
X-363554Y-318933D01*
Y-320933D01*
X-361554Y-322932D01*
X-357556D01*
X-355556Y-324931D01*
Y-326931D01*
X-357556Y-328930D01*
X-361554D01*
X-363554Y-326931D01*
X-345560Y-328930D02*
Y-316934D01*
X-351558Y-322932D01*
X-343560D01*
X-339561Y-318933D02*
X-337562Y-316934D01*
X-333563D01*
X-331564Y-318933D01*
Y-320933D01*
X-333563Y-322932D01*
X-335563D01*
X-333563D01*
X-331564Y-324931D01*
Y-326931D01*
X-333563Y-328930D01*
X-337562D01*
X-339561Y-326931D01*
X-319568Y-316934D02*
X-327565D01*
Y-322932D01*
X-323567Y-320933D01*
X-321567D01*
X-319568Y-322932D01*
Y-326931D01*
X-321567Y-328930D01*
X-325566D01*
X-327565Y-326931D01*
X-315569Y-318933D02*
X-313570Y-316934D01*
X-309571D01*
X-307572Y-318933D01*
Y-326931D01*
X-309571Y-328930D01*
X-313570D01*
X-315569Y-326931D01*
Y-318933D01*
X-295576D02*
X-297575Y-316934D01*
X-301574D01*
X-303573Y-318933D01*
Y-320933D01*
X-301574Y-322932D01*
X-297575D01*
X-295576Y-324931D01*
Y-326931D01*
X-297575Y-328930D01*
X-301574D01*
X-303573Y-326931D01*
X-291577Y-318933D02*
X-289578Y-316934D01*
X-285579D01*
X-283580Y-318933D01*
Y-320933D01*
X-285579Y-322932D01*
X-283580Y-324931D01*
Y-326931D01*
X-285579Y-328930D01*
X-289578D01*
X-291577Y-326931D01*
Y-324931D01*
X-289578Y-322932D01*
X-291577Y-320933D01*
Y-318933D01*
X-289578Y-322932D02*
X-285579D01*
X-279581Y-318933D02*
X-277582Y-316934D01*
X-273583D01*
X-271583Y-318933D01*
Y-320933D01*
X-273583Y-322932D01*
X-275582D01*
X-273583D01*
X-271583Y-324931D01*
Y-326931D01*
X-273583Y-328930D01*
X-277582D01*
X-279581Y-326931D01*
X-267585Y-316934D02*
Y-324931D01*
X-263586Y-328930D01*
X-259587Y-324931D01*
Y-316934D01*
X-255589Y-328930D02*
X-251590D01*
X-253589D01*
Y-316934D01*
X-255589Y-318933D01*
X-245592Y-328930D02*
Y-326931D01*
X-243592D01*
Y-328930D01*
X-245592D01*
X-235595D02*
X-231596D01*
X-233596D01*
Y-316934D01*
X-235595Y-318933D01*
X-217601Y-328930D02*
X-225598D01*
X-217601Y-320933D01*
Y-318933D01*
X-219600Y-316934D01*
X-223599D01*
X-225598Y-318933D01*
X-81280Y-276156D02*
X-89277D01*
X-85279D01*
Y-264160D01*
X-93276D02*
Y-276156D01*
X-99274D01*
X-101273Y-274157D01*
Y-270158D01*
X-99274Y-268159D01*
X-93276D01*
X-105272Y-274157D02*
X-107272Y-276156D01*
X-111270D01*
X-113270Y-274157D01*
Y-272157D01*
X-111270Y-270158D01*
X-109271D01*
X-111270D01*
X-113270Y-268159D01*
Y-266159D01*
X-111270Y-264160D01*
X-107272D01*
X-105272Y-266159D01*
X-129264Y-270158D02*
X-137262D01*
X-133263Y-274157D02*
Y-266159D01*
X-149258Y-276156D02*
X-141261D01*
Y-270158D01*
X-145259Y-272157D01*
X-147259D01*
X-149258Y-270158D01*
Y-266159D01*
X-147259Y-264160D01*
X-143260D01*
X-141261Y-266159D01*
X-153257Y-276156D02*
Y-268159D01*
X-157255Y-264160D01*
X-161254Y-268159D01*
Y-276156D01*
X-440690Y-229952D02*
X-434025D01*
X-437358Y-226619D02*
Y-233284D01*
X-430693Y-226619D02*
X-429027Y-224953D01*
X-425695D01*
X-424029Y-226619D01*
Y-228286D01*
X-425695Y-229952D01*
X-427361D01*
X-425695D01*
X-424029Y-231618D01*
Y-233284D01*
X-425695Y-234950D01*
X-429027D01*
X-430693Y-233284D01*
X-420696Y-234950D02*
Y-233284D01*
X-419030D01*
Y-234950D01*
X-420696D01*
X-412366Y-226619D02*
X-410700Y-224953D01*
X-407367D01*
X-405701Y-226619D01*
Y-228286D01*
X-407367Y-229952D01*
X-409034D01*
X-407367D01*
X-405701Y-231618D01*
Y-233284D01*
X-407367Y-234950D01*
X-410700D01*
X-412366Y-233284D01*
X-402369Y-224953D02*
Y-231618D01*
X-399037Y-234950D01*
X-395704Y-231618D01*
Y-224953D01*
X422910Y370488D02*
X430907D01*
X434906Y364490D02*
X438905D01*
X436906D01*
Y376486D01*
X434906Y374487D01*
X452900Y364490D02*
X444903D01*
X452900Y372487D01*
Y374487D01*
X450901Y376486D01*
X446902D01*
X444903Y374487D01*
X456899Y376486D02*
Y368489D01*
X460898Y364490D01*
X464896Y368489D01*
Y376486D01*
X422910Y314608D02*
X430907D01*
X426909Y318607D02*
Y310609D01*
X434906Y308610D02*
X438905D01*
X436906D01*
Y320606D01*
X434906Y318607D01*
X452900Y308610D02*
X444903D01*
X452900Y316607D01*
Y318607D01*
X450901Y320606D01*
X446902D01*
X444903Y318607D01*
X456899Y320606D02*
Y312609D01*
X460898Y308610D01*
X464896Y312609D01*
Y320606D01*
X-399542Y-306070D02*
Y-298073D01*
X-395543Y-294074D01*
X-391545Y-298073D01*
Y-306070D01*
Y-300072D01*
X-399542D01*
X-387546Y-298073D02*
Y-304071D01*
X-385546Y-306070D01*
X-379548D01*
Y-298073D01*
X-367552Y-294074D02*
Y-306070D01*
X-373550D01*
X-375550Y-304071D01*
Y-300072D01*
X-373550Y-298073D01*
X-367552D01*
X-363554Y-306070D02*
X-359555D01*
X-361554D01*
Y-298073D01*
X-363554D01*
X-351558Y-306070D02*
X-347559D01*
X-345560Y-304071D01*
Y-300072D01*
X-347559Y-298073D01*
X-351558D01*
X-353557Y-300072D01*
Y-304071D01*
X-351558Y-306070D01*
X-329565Y-294074D02*
Y-306070D01*
X-323567D01*
X-321567Y-304071D01*
Y-296073D01*
X-323567Y-294074D01*
X-329565D01*
X-317568Y-306070D02*
Y-298073D01*
X-313570Y-294074D01*
X-309571Y-298073D01*
Y-306070D01*
Y-300072D01*
X-317568D01*
X-297575Y-296073D02*
X-299574Y-294074D01*
X-303573D01*
X-305572Y-296073D01*
Y-304071D01*
X-303573Y-306070D01*
X-299574D01*
X-297575Y-304071D01*
X-273583Y-296073D02*
X-275582Y-294074D01*
X-279581D01*
X-281580Y-296073D01*
Y-304071D01*
X-279581Y-306070D01*
X-275582D01*
X-273583Y-304071D01*
X-261587Y-296073D02*
X-263586Y-294074D01*
X-267585D01*
X-269584Y-296073D01*
Y-298073D01*
X-267585Y-300072D01*
X-263586D01*
X-261587Y-302071D01*
Y-304071D01*
X-263586Y-306070D01*
X-267585D01*
X-269584Y-304071D01*
X-251590Y-306070D02*
Y-294074D01*
X-257588Y-300072D01*
X-249590D01*
X-245592Y-296073D02*
X-243592Y-294074D01*
X-239594D01*
X-237594Y-296073D01*
Y-298073D01*
X-239594Y-300072D01*
X-241593D01*
X-239594D01*
X-237594Y-302071D01*
Y-304071D01*
X-239594Y-306070D01*
X-243592D01*
X-245592Y-304071D01*
X-225598Y-294074D02*
X-233596D01*
Y-300072D01*
X-229597Y-298073D01*
X-227598D01*
X-225598Y-300072D01*
Y-304071D01*
X-227598Y-306070D01*
X-231596D01*
X-233596Y-304071D01*
X-221600Y-296073D02*
X-219600Y-294074D01*
X-215602D01*
X-213602Y-296073D01*
Y-304071D01*
X-215602Y-306070D01*
X-219600D01*
X-221600Y-304071D01*
Y-296073D01*
X246380Y314256D02*
X254377D01*
Y312257D01*
X246380Y304259D01*
Y302260D01*
X258376Y312257D02*
X260375Y314256D01*
X264374D01*
X266374Y312257D01*
Y310257D01*
X264374Y308258D01*
X266374Y306259D01*
Y304259D01*
X264374Y302260D01*
X260375D01*
X258376Y304259D01*
Y306259D01*
X260375Y308258D01*
X258376Y310257D01*
Y312257D01*
X260375Y308258D02*
X264374D01*
X270372Y302260D02*
X274371D01*
X272372D01*
Y314256D01*
X270372Y312257D01*
X288366Y302260D02*
X280369D01*
X288366Y310257D01*
Y312257D01*
X286367Y314256D01*
X282368D01*
X280369Y312257D01*
X12700Y314256D02*
X20697D01*
Y312257D01*
X12700Y304259D01*
Y302260D01*
X24696Y304259D02*
X26695Y302260D01*
X30694D01*
X32694Y304259D01*
Y312257D01*
X30694Y314256D01*
X26695D01*
X24696Y312257D01*
Y310257D01*
X26695Y308258D01*
X32694D01*
X36692Y302260D02*
X40691D01*
X38692D01*
Y314256D01*
X36692Y312257D01*
X54686Y302260D02*
X46689D01*
X54686Y310257D01*
Y312257D01*
X52687Y314256D01*
X48688D01*
X46689Y312257D01*
X20320Y-312986D02*
X12323D01*
Y-310987D01*
X20320Y-302989D01*
Y-300990D01*
X8324Y-310987D02*
X6324Y-312986D01*
X2326D01*
X327Y-310987D01*
Y-308987D01*
X2326Y-306988D01*
X327Y-304989D01*
Y-302989D01*
X2326Y-300990D01*
X6324D01*
X8324Y-302989D01*
Y-304989D01*
X6324Y-306988D01*
X8324Y-308987D01*
Y-310987D01*
X6324Y-306988D02*
X2326D01*
X-3672Y-310987D02*
X-5672Y-312986D01*
X-9670D01*
X-11670Y-310987D01*
Y-302989D01*
X-9670Y-300990D01*
X-5672D01*
X-3672Y-302989D01*
Y-310987D01*
X-23666Y-312986D02*
X-15668D01*
Y-306988D01*
X-19667Y-308987D01*
X-21666D01*
X-23666Y-306988D01*
Y-302989D01*
X-21666Y-300990D01*
X-17668D01*
X-15668Y-302989D01*
X379984Y-276450D02*
X387981D01*
X383983Y-272451D02*
Y-280449D01*
X399977Y-270452D02*
X391980D01*
Y-276450D01*
X395979Y-274451D01*
X397978D01*
X399977Y-276450D01*
Y-280449D01*
X397978Y-282448D01*
X393979D01*
X391980Y-280449D01*
X403976Y-270452D02*
Y-278449D01*
X407975Y-282448D01*
X411974Y-278449D01*
Y-270452D01*
X85090Y274886D02*
X93087D01*
X89089D01*
Y262890D01*
X97086D02*
Y274886D01*
X103084D01*
X105084Y272887D01*
Y268888D01*
X103084Y266889D01*
X97086D01*
X109082Y262890D02*
X113081D01*
X111082D01*
Y274886D01*
X109082Y272887D01*
X131075Y268888D02*
X139073D01*
X143071Y262890D02*
X147070D01*
X145071D01*
Y274886D01*
X143071Y272887D01*
X161065Y262890D02*
X153068D01*
X161065Y270887D01*
Y272887D01*
X159066Y274886D01*
X155067D01*
X153068Y272887D01*
X165064Y274886D02*
Y266889D01*
X169063Y262890D01*
X173062Y266889D01*
Y274886D01*
X339090D02*
X347087D01*
X343089D01*
Y262890D01*
X351086D02*
Y274886D01*
X357084D01*
X359084Y272887D01*
Y268888D01*
X357084Y266889D01*
X351086D01*
X371080Y262890D02*
X363082D01*
X371080Y270887D01*
Y272887D01*
X369080Y274886D01*
X365082D01*
X363082Y272887D01*
X387075Y268888D02*
X395072D01*
X391073Y272887D02*
Y264889D01*
X399071Y262890D02*
X403069D01*
X401070D01*
Y274886D01*
X399071Y272887D01*
X417065Y262890D02*
X409067D01*
X417065Y270887D01*
Y272887D01*
X415065Y274886D01*
X411067D01*
X409067Y272887D01*
X421063Y274886D02*
Y266889D01*
X425062Y262890D01*
X429061Y266889D01*
Y274886D01*
D46*
X375158Y-198374D02*
G03*
X380238Y-193294I0J5080D01*
G01*
Y-127254D02*
G03*
X375158Y-122174I-5080J0D01*
G01*
X324358D02*
G03*
X319278Y-127254I0J-5080D01*
G01*
Y-193294D02*
G03*
X324358Y-198374I5080J0D01*
G01*
X375666Y124968D02*
G03*
X380746Y130048I0J5080D01*
G01*
Y196088D02*
G03*
X375666Y201168I-5080J0D01*
G01*
X324866D02*
G03*
X319786Y196088I0J-5080D01*
G01*
Y130048D02*
G03*
X324866Y124968I5080J0D01*
G01*
X175260Y-117600D02*
G03*
X170180Y-112520I-5080J0D01*
G01*
X104140D02*
G03*
X99060Y-117600I0J-5080D01*
G01*
Y-168400D02*
G03*
X104140Y-173480I5080J0D01*
G01*
X170180D02*
G03*
X175260Y-168400I0J5080D01*
G01*
Y-52070D02*
G03*
X170180Y-46990I-5080J0D01*
G01*
X104140D02*
G03*
X99060Y-52070I0J-5080D01*
G01*
Y-102870D02*
G03*
X104140Y-107950I5080J0D01*
G01*
X170180D02*
G03*
X175260Y-102870I0J5080D01*
G01*
X30230Y104650D02*
G03*
X25150Y109730I-5080J0D01*
G01*
X-40890D02*
G03*
X-45970Y104650I0J-5080D01*
G01*
Y53850D02*
G03*
X-40890Y48770I5080J0D01*
G01*
X25150D02*
G03*
X30230Y53850I0J5080D01*
G01*
X180340Y226749D02*
G03*
X174933Y232156I-5407J0D01*
G01*
X30226Y170180D02*
G03*
X25146Y175260I-5080J0D01*
G01*
X-40894D02*
G03*
X-45974Y170180I0J-5080D01*
G01*
Y119380D02*
G03*
X-40894Y114300I5080J0D01*
G01*
X25146D02*
G03*
X30226Y119380I0J5080D01*
G01*
X-134620Y243840D02*
G03*
X-140970Y237490I0J-6350D01*
G01*
X-140730Y-237852D02*
G03*
X-134743Y-243840I5988J0D01*
G01*
X-147320D02*
G03*
X-140970Y-237490I0J6350D01*
G01*
Y237490D02*
G03*
X-147320Y243840I-6350J0D01*
G01*
X-482600D02*
G03*
X-488950Y237490I0J-6350D01*
G01*
Y-237490D02*
G03*
X-482600Y-243840I6350J0D01*
G01*
X176022Y-230124D02*
G03*
X181102Y-225044I0J5080D01*
G01*
X-52070Y-223774D02*
G03*
X-45720Y-230124I6350J0D01*
G01*
X-46281Y232156D02*
G03*
X-52266Y226171I0J-5985D01*
G01*
X-488950Y250190D02*
G03*
X-482600Y243840I6350J0D01*
G01*
X-457200Y488950D02*
G03*
X-488950Y457200I0J-31750D01*
G01*
X400050Y482600D02*
G03*
X393700Y488950I-6350J0D01*
G01*
X400050Y406400D02*
G03*
X406400Y400050I6350J0D01*
G01*
X488950Y393700D02*
G03*
X482600Y400050I-6350J0D01*
G01*
Y243840D02*
G03*
X488950Y250190I0J6350D01*
G01*
X-307340Y488950D02*
G03*
X-313690Y482600I0J-6350D01*
G01*
X-397510D02*
G03*
X-403860Y488950I-6350J0D01*
G01*
X-397510Y412051D02*
G03*
X-389319Y403860I8191J0D01*
G01*
X-322362D02*
G03*
X-313690Y412532I0J8672D01*
G01*
X488950Y237490D02*
G03*
X482600Y243840I-6350J0D01*
G01*
Y-243840D02*
G03*
X488950Y-237490I0J6350D01*
G01*
Y-250190D02*
G03*
X482600Y-243840I-6350J0D01*
G01*
X393700Y-488950D02*
G03*
X400050Y-482600I0J6350D01*
G01*
X-311150Y-476250D02*
G03*
X-298450Y-488950I12700J0D01*
G01*
X-311150Y-406400D02*
G03*
X-317500Y-400050I-6350J0D01*
G01*
X-393700D02*
G03*
X-400050Y-406400I0J-6350D01*
G01*
X-406400Y-488950D02*
G03*
X-400050Y-482600I0J6350D01*
G01*
X-488950Y-457200D02*
G03*
X-457200Y-488950I31750J0D01*
G01*
X-482600Y-243840D02*
G03*
X-488950Y-250190I0J-6350D01*
G01*
X406400Y-400050D02*
G03*
X400050Y-406400I0J-6350D01*
G01*
X482600Y-400050D02*
G03*
X488950Y-393700I0J6350D01*
G01*
X386080Y237490D02*
G03*
X379730Y243840I-6350J0D01*
G01*
X392430D02*
G03*
X386080Y237490I0J-6350D01*
G01*
X379730Y-243840D02*
G03*
X386080Y-237490I635J5715D01*
G01*
D02*
G03*
X392430Y-243840I6350J0D01*
G01*
X170180Y114300D02*
G03*
X175260Y119380I0J5080D01*
G01*
X99060D02*
G03*
X104140Y114300I5080J0D01*
G01*
Y175260D02*
G03*
X99060Y170180I0J-5080D01*
G01*
X175260D02*
G03*
X170180Y175260I-5080J0D01*
G01*
X170434Y48768D02*
G03*
X175514Y53848I0J5080D01*
G01*
X99314D02*
G03*
X104394Y48768I5080J0D01*
G01*
Y109728D02*
G03*
X99314Y104648I0J-5080D01*
G01*
X175514D02*
G03*
X170434Y109728I-5080J0D01*
G01*
X25150Y-107950D02*
G03*
X30230Y-102870I0J5080D01*
G01*
X-45970D02*
G03*
X-40890Y-107950I5080J0D01*
G01*
Y-46990D02*
G03*
X-45970Y-52070I0J-5080D01*
G01*
X30230D02*
G03*
X25150Y-46990I-5080J0D01*
G01*
Y-173482D02*
G03*
X30230Y-168402I0J5080D01*
G01*
X-45970D02*
G03*
X-40890Y-173482I5080J0D01*
G01*
Y-112522D02*
G03*
X-45970Y-117602I0J-5080D01*
G01*
X30230D02*
G03*
X25150Y-112522I-5080J0D01*
G01*
X324358Y-198374D02*
X375158D01*
X319278Y-193294D02*
Y-127254D01*
X380238Y-193294D02*
Y-127254D01*
X324358Y-122174D02*
X375158D01*
X324866Y124968D02*
X375666D01*
X319786Y130048D02*
Y196088D01*
X380746Y130048D02*
Y196088D01*
X324866Y201168D02*
X375666D01*
X175260Y-168400D02*
Y-117600D01*
X104140Y-173480D02*
X170180D01*
X104140Y-112520D02*
X170180D01*
X99060Y-168400D02*
Y-117600D01*
X175260Y-102870D02*
Y-52070D01*
X104140Y-107950D02*
X170180D01*
X104140Y-46990D02*
X170180D01*
X99060Y-102870D02*
Y-52070D01*
X30230Y53850D02*
Y104650D01*
X-40890Y48770D02*
X25150D01*
X-40890Y109730D02*
X25150D01*
X-45970Y53850D02*
Y104650D01*
X180340Y225298D02*
Y226749D01*
X30226Y119380D02*
Y170180D01*
X-40894Y114300D02*
X25146D01*
X-40894Y175260D02*
X25146D01*
X-45974Y119380D02*
Y170180D01*
X-374036Y-214798D02*
X-329036D01*
X-374036Y-235798D02*
Y-214798D01*
Y-235798D02*
X-329036D01*
Y-214798D01*
X-439060Y-152060D02*
X-394060D01*
X-439060Y-173060D02*
Y-152060D01*
Y-173060D02*
X-394060D01*
Y-152060D01*
X304800Y41910D02*
X381000D01*
Y-39370D02*
Y41910D01*
X374650Y-45720D02*
X381000Y-39370D01*
X311150Y-45720D02*
X374650D01*
X304800Y-39370D02*
X311150Y-45720D01*
X304800Y-39370D02*
Y41910D01*
X-482600Y-243840D02*
X-147320D01*
X-482600Y243840D02*
X-147320D01*
X-140970Y-237852D02*
Y-46990D01*
Y48260D02*
Y237490D01*
X-488950Y220980D02*
Y237490D01*
Y-237490D02*
Y-226060D01*
X180340Y-118110D02*
Y-48260D01*
X181102Y-225044D02*
Y-161798D01*
X-45720Y-230124D02*
X176022D01*
X-52070Y-223774D02*
Y-48260D01*
X180340Y48260D02*
Y121920D01*
Y165100D02*
Y225298D01*
X-46281Y232156D02*
X174933D01*
X-52324Y49530D02*
Y226171D01*
X279314Y-22500D02*
Y22500D01*
Y-22500D02*
X300314D01*
Y22500D01*
X279314D02*
X300314D01*
X180650Y159060D02*
X182880Y161290D01*
X180650Y127960D02*
X182880Y125730D01*
X180650Y127960D02*
Y159060D01*
X182880Y125730D02*
X312420D01*
X314650Y127960D01*
X182880Y161290D02*
X312420D01*
X314650Y159060D01*
Y127960D02*
Y159060D01*
X180650Y-124150D02*
X182880Y-121920D01*
X180650Y-155250D02*
X182880Y-157480D01*
X180650Y-155250D02*
Y-124150D01*
X182880Y-157480D02*
X312420D01*
X314650Y-155250D01*
X182880Y-121920D02*
X312420D01*
X314650Y-124150D01*
Y-155250D02*
Y-124150D01*
X-168910Y-36830D02*
Y44450D01*
Y-36830D02*
X-162560Y-43180D01*
X-99060D01*
X-92710Y-36830D01*
Y44450D01*
X-168910D02*
X-92710D01*
X-237998Y-65024D02*
Y-14224D01*
X-180848D02*
X-174498Y-20574D01*
X-237998Y-14224D02*
X-180848D01*
X-174498Y-58674D02*
Y-20574D01*
X-180848Y-65024D02*
X-174498Y-58674D01*
X-237998Y-65024D02*
X-180848D01*
X140970Y44450D02*
X217170D01*
Y-36830D02*
Y44450D01*
X210820Y-43180D02*
X217170Y-36830D01*
X147320Y-43180D02*
X210820D01*
X140970Y-36830D02*
X147320Y-43180D01*
X140970Y-36830D02*
Y44450D01*
X114420Y-178220D02*
X159420D01*
X114420Y-199220D02*
Y-178220D01*
Y-199220D02*
X159420D01*
Y-178220D01*
X-86360Y44450D02*
X-10160D01*
Y-36830D02*
Y44450D01*
X-16510Y-43180D02*
X-10160Y-36830D01*
X-80010Y-43180D02*
X-16510D01*
X-86360Y-36830D02*
X-80010Y-43180D01*
X-86360Y-36830D02*
Y44450D01*
X-3810Y39370D02*
X31750D01*
X-3810Y-39370D02*
Y39370D01*
Y-39370D02*
X31750D01*
Y39370D01*
X100330Y-39370D02*
X135890D01*
Y39370D01*
X100330D02*
X135890D01*
X100330Y-39370D02*
Y39370D01*
X159420Y180000D02*
Y201000D01*
X114420Y180000D02*
X159420D01*
X114420D02*
Y201000D01*
X159420D01*
X66970Y62350D02*
X87970D01*
X66970D02*
Y107350D01*
X87970D01*
Y62350D02*
Y107350D01*
X43286Y134788D02*
Y155788D01*
X88286D01*
Y134788D02*
Y155788D01*
X43286Y134788D02*
X88286D01*
X41570Y62350D02*
X62570D01*
X41570D02*
Y107350D01*
X62570D01*
Y62350D02*
Y107350D01*
X36790Y-39730D02*
X95040D01*
X36790D02*
Y41520D01*
X90306D01*
X95040Y36786D01*
Y-39730D02*
Y36786D01*
X-268880Y-173060D02*
Y-152060D01*
X-223880D01*
Y-173060D02*
Y-152060D01*
X-268880Y-173060D02*
X-223880D01*
X-268880Y-201000D02*
X-223880D01*
Y-180000D01*
X-268880D02*
X-223880D01*
X-268880Y-201000D02*
Y-180000D01*
X-219350Y-152060D02*
X-174350D01*
X-219350Y-173060D02*
Y-152060D01*
Y-173060D02*
X-174350D01*
Y-152060D01*
X-268372Y-96180D02*
X-223372D01*
X-268372Y-117180D02*
Y-96180D01*
Y-117180D02*
X-223372D01*
Y-96180D01*
X-219350Y-201000D02*
Y-180000D01*
X-174350D01*
Y-201000D02*
Y-180000D01*
X-219350Y-201000D02*
X-174350D01*
X-373120Y-126390D02*
X-277620D01*
Y-207640D02*
Y-126390D01*
X-367416Y-207640D02*
X-277620D01*
X-373120Y-201936D02*
X-367416Y-207640D01*
X-373120Y-201936D02*
Y-126390D01*
X-283210Y-120650D02*
Y-91440D01*
X-287020Y-87630D02*
X-283210Y-91440D01*
X-365760Y-87630D02*
X-287020D01*
X-365760Y-120650D02*
Y-87630D01*
Y-120650D02*
X-283210D01*
X-439060Y-145120D02*
Y-124120D01*
X-394060D01*
Y-145120D02*
Y-124120D01*
X-439060Y-145120D02*
X-394060D01*
X-55880Y-374650D02*
Y-318770D01*
Y-374650D02*
X55880D01*
X-55880Y-318770D02*
X48260D01*
X55880Y-326390D01*
Y-374650D02*
Y-326390D01*
X210820Y-374650D02*
Y-318770D01*
Y-374650D02*
X322580D01*
X210820Y-318770D02*
X314960D01*
X322580Y-326390D01*
Y-374650D02*
Y-326390D01*
X227330Y-288290D02*
Y-252730D01*
Y-288290D02*
X306070D01*
Y-252730D01*
X227330D02*
X306070D01*
X-39370Y-288290D02*
Y-252730D01*
Y-288290D02*
X39370D01*
Y-252730D01*
X-39370D02*
X39370D01*
X393700Y-480060D02*
Y-295910D01*
X139700D02*
X393700D01*
X139700Y-478790D02*
Y-295910D01*
Y-478790D02*
X140970Y-480060D01*
X393700D01*
X-488950Y250444D02*
Y457200D01*
X-457200Y488950D02*
X-415290D01*
X-313690Y412532D02*
Y467270D01*
X-293370Y488950D02*
X393700D01*
X400050Y406400D02*
Y482600D01*
X406400Y400050D02*
X482600D01*
X488950Y250190D02*
Y393700D01*
X-397510Y412051D02*
Y467270D01*
X-290830Y441960D02*
Y474980D01*
X-227330D01*
X-223520Y445770D02*
Y471170D01*
X-290830Y441960D02*
X-227330D01*
X-223520Y445770D01*
X-227330Y474980D02*
X-223520Y471170D01*
X-217170Y441960D02*
Y474980D01*
X-153670D01*
X-149860Y445770D02*
Y471170D01*
X-217170Y441960D02*
X-153670D01*
X-149860Y445770D01*
X-153670Y474980D02*
X-149860Y471170D01*
X-290830Y400050D02*
Y433070D01*
X-227330D01*
X-223520Y403860D02*
Y429260D01*
X-290830Y400050D02*
X-227330D01*
X-223520Y403860D01*
X-227330Y433070D02*
X-223520Y429260D01*
X-439060Y80940D02*
X-394060D01*
Y101940D01*
X-439060D02*
X-394060D01*
X-439060Y80940D02*
Y101940D01*
Y108880D02*
X-394060D01*
Y129880D01*
X-439060D02*
X-394060D01*
X-439060Y108880D02*
Y129880D01*
X-233320Y53000D02*
X-188320D01*
Y74000D01*
X-233320D02*
X-188320D01*
X-233320Y53000D02*
Y74000D01*
X-233560Y101940D02*
X-188560D01*
X-233560Y80940D02*
Y101940D01*
Y80940D02*
X-188560D01*
Y101940D01*
X-244422Y147174D02*
X-244422D01*
X-244672Y146924D02*
X-244422Y147174D01*
X-342422Y146924D02*
X-244672D01*
X-244422Y147174D02*
Y220174D01*
X-342422Y146924D02*
Y220174D01*
X-244422D01*
X-188560Y110150D02*
Y131150D01*
X-233560Y110150D02*
X-188560D01*
X-233560D02*
Y131150D01*
X-188560D01*
X-227330Y220980D02*
X-146050D01*
X-233680Y214630D02*
X-227330Y220980D01*
X-233680Y151130D02*
Y214630D01*
Y151130D02*
X-227330Y144780D01*
X-146050D01*
Y220980D01*
X-439011Y144551D02*
X-357732D01*
X-351381Y150901D01*
Y214401D01*
X-357732Y220751D02*
X-351381Y214401D01*
X-439011Y220751D02*
X-357732D01*
X-439011Y144551D02*
Y220751D01*
X-439060Y-12360D02*
X-394060D01*
X-439060Y-33360D02*
Y-12360D01*
Y-33360D02*
X-394060D01*
Y-12360D01*
X-439060Y-40300D02*
X-394060D01*
X-439060Y-61300D02*
Y-40300D01*
Y-61300D02*
X-394060D01*
Y-40300D01*
X-439060Y-68240D02*
X-394060D01*
X-439060Y-89240D02*
Y-68240D01*
Y-89240D02*
X-394060D01*
Y-68240D01*
X-439060Y-5420D02*
Y15580D01*
X-394060D01*
Y-5420D02*
Y15580D01*
X-439060Y-5420D02*
X-394060D01*
X-439420Y22860D02*
Y73660D01*
X-382270D02*
X-375920Y67310D01*
X-439420Y73660D02*
X-382270D01*
X-375920Y29210D02*
Y67310D01*
X-382270Y22860D02*
X-375920Y29210D01*
X-439420Y22860D02*
X-382270D01*
X-347980Y45870D02*
X-279400D01*
Y-45570D02*
Y45870D01*
X-355600Y-45570D02*
X-279400D01*
X-355600D02*
Y38250D01*
X-347980Y45870D01*
X322580Y322580D02*
Y378460D01*
X210820D02*
X322580D01*
X218440Y322580D02*
X322580D01*
X210820Y330200D02*
X218440Y322580D01*
X210820Y330200D02*
Y378460D01*
X-487800Y109150D02*
Y214900D01*
X-482800Y219900D01*
X-452800D01*
Y109150D02*
Y219900D01*
X-487800Y109150D02*
X-452800D01*
Y-42100D02*
Y92900D01*
X-487800Y-95400D02*
X-452800D01*
Y-34100D01*
X-487800Y-95400D02*
Y-34100D01*
X-482800Y92900D02*
X-452800D01*
X-487800Y87900D02*
X-482800Y92900D01*
X-487800Y-42100D02*
Y87900D01*
Y-221050D02*
Y-115300D01*
X-482800Y-110300D01*
X-452800D01*
Y-221050D02*
Y-110300D01*
X-487800Y-221050D02*
X-452800D01*
X-355416Y52724D02*
Y139566D01*
Y52724D02*
X-244666D01*
Y134566D01*
X-249666Y139566D02*
X-244666Y134566D01*
X-355416Y139566D02*
X-249666D01*
X-217170Y400050D02*
Y433070D01*
X-153670D01*
X-149860Y403860D02*
Y429260D01*
X-217170Y400050D02*
X-153670D01*
X-149860Y403860D01*
X-153670Y433070D02*
X-149860Y429260D01*
X-389319Y403860D02*
X-322362D01*
X-307340Y488950D02*
X-293370D01*
X-313690Y467270D02*
Y482600D01*
X-415290Y488950D02*
X-403860D01*
X-397510Y467270D02*
Y482600D01*
X-125730Y294640D02*
Y478790D01*
Y294640D02*
X128270D01*
Y477520D01*
X127000Y478790D02*
X128270Y477520D01*
X-125730Y478790D02*
X127000D01*
X139700Y294640D02*
Y478790D01*
Y294640D02*
X393700D01*
Y477520D01*
X392430Y478790D02*
X393700Y477520D01*
X139700Y478790D02*
X392430D01*
X-46990Y251460D02*
Y287020D01*
X-125730D02*
X-46990D01*
X-125730Y251460D02*
Y287020D01*
Y251460D02*
X-46990D01*
X-477520Y298196D02*
X-398780D01*
Y262636D02*
Y298196D01*
X-477520Y262636D02*
X-398780D01*
X-477520D02*
Y298196D01*
X-394060Y-200746D02*
Y-179746D01*
X-439060Y-200746D02*
X-394060D01*
X-439060D02*
Y-179746D01*
X-394060D01*
X427828Y332400D02*
Y353400D01*
X472828D01*
Y332400D02*
Y353400D01*
X427828Y332400D02*
X472828D01*
Y279060D02*
Y300060D01*
X427828Y279060D02*
X472828D01*
X427828D02*
Y300060D01*
X472828D01*
X227330Y251460D02*
X306070D01*
X227330D02*
Y287020D01*
X306070D01*
Y251460D02*
Y287020D01*
X-39370D02*
X39370D01*
Y251460D02*
Y287020D01*
X-39370Y251460D02*
X39370D01*
X-39370D02*
Y287020D01*
X-55880Y328930D02*
Y377190D01*
Y328930D02*
X-48260Y321310D01*
X55880D01*
X-55880Y377190D02*
X55880D01*
Y321310D02*
Y377190D01*
X-29358Y201000D02*
X15642D01*
X-29358Y180000D02*
Y201000D01*
Y180000D02*
X15642D01*
Y201000D01*
X-29358Y227162D02*
X15642D01*
X-29358Y206162D02*
Y227162D01*
Y206162D02*
X15642D01*
Y227162D01*
X40300Y-104020D02*
Y-59020D01*
Y-104020D02*
X61300D01*
Y-59020D01*
X40300D02*
X61300D01*
X66970Y-103780D02*
Y-58780D01*
Y-103780D02*
X87970D01*
Y-58780D01*
X66970D02*
X87970D01*
X-29358Y-178222D02*
X15642D01*
X-29358Y-199222D02*
Y-178222D01*
Y-199222D02*
X15642D01*
Y-178222D01*
X-29360Y-204130D02*
X15640D01*
X-29360Y-225130D02*
Y-204130D01*
Y-225130D02*
X15640D01*
Y-204130D01*
X41000Y-150200D02*
X86000D01*
Y-129200D01*
X41000D02*
X86000D01*
X41000Y-150200D02*
Y-129200D01*
X-175260Y-9652D02*
Y41148D01*
X-238760Y-3302D02*
X-232410Y-9652D01*
X-175260D01*
X-238760Y-3302D02*
Y34798D01*
X-232410Y41148D01*
X-175260D01*
X488950Y-237490D02*
Y237490D01*
X401574Y-2220D02*
X480314D01*
Y-37780D02*
Y-2220D01*
X401574Y-37780D02*
X480314D01*
X401574D02*
Y-2220D01*
Y37780D02*
X480314D01*
Y2220D02*
Y37780D01*
X401574Y2220D02*
X480314D01*
X401574D02*
Y37780D01*
X-439060Y-117180D02*
X-394060D01*
Y-96180D01*
X-439060D02*
X-394060D01*
X-439060Y-117180D02*
Y-96180D01*
X488950Y-392430D02*
Y-250190D01*
X406400Y-400050D02*
X482600D01*
X400050Y-482600D02*
Y-406400D01*
X-147320Y-488950D02*
X393700D01*
X-298450D02*
X-147320D01*
X-311150Y-476250D02*
Y-406400D01*
X-393700Y-400050D02*
X-317500D01*
X-400050Y-482600D02*
Y-406400D01*
X-457200Y-488950D02*
X-406400D01*
X-488950Y-457200D02*
Y-250190D01*
X488950Y-393700D02*
Y-392430D01*
X-127000Y-480060D02*
X125730D01*
X-128270Y-478790D02*
X-127000Y-480060D01*
X-128270Y-478790D02*
Y-295910D01*
X125730D01*
Y-480060D02*
Y-295910D01*
X463190Y-286090D02*
Y-265090D01*
X418190Y-286090D02*
X463190D01*
X418190D02*
Y-265090D01*
X463190D01*
X386080Y-237490D02*
Y237490D01*
X392430Y243840D02*
X482600D01*
X392430Y-243840D02*
X482600D01*
X-483616Y307594D02*
X-402336D01*
Y467614D01*
X-483616Y307594D02*
Y462534D01*
X-478536Y467614D01*
X-402336D01*
X99060Y119380D02*
Y170180D01*
X104140Y175260D02*
X170180D01*
X104140Y114300D02*
X170180D01*
X175260Y119380D02*
Y170180D01*
X99314Y53848D02*
Y104648D01*
X104394Y109728D02*
X170434D01*
X104394Y48768D02*
X170434D01*
X175514Y53848D02*
Y104648D01*
X-45970Y-102870D02*
Y-52070D01*
X-40890Y-46990D02*
X25150D01*
X-40890Y-107950D02*
X25150D01*
X30230Y-102870D02*
Y-52070D01*
X-45970Y-168402D02*
Y-117602D01*
X-40890Y-112522D02*
X25150D01*
X-40890Y-173482D02*
X25150D01*
X30230Y-168402D02*
Y-117602D01*
D47*
X-134743Y-243840D02*
X379730D01*
X-134620Y243840D02*
X379730D01*
M02*
