G04 Layer_Physical_Order=1*
G04 Layer_Color=255*
%FSLAX44Y44*%
%MOMM*%
G71*
G01*
G75*
%ADD10C,0.5000*%
%ADD11C,0.3000*%
%ADD12C,1.0000*%
%ADD13C,0.7500*%
%ADD14C,0.2540*%
%ADD15R,1.0000X1.6000*%
G04:AMPARAMS|DCode=16|XSize=1mm|YSize=3mm|CornerRadius=0.25mm|HoleSize=0mm|Usage=FLASHONLY|Rotation=0.000|XOffset=0mm|YOffset=0mm|HoleType=Round|Shape=RoundedRectangle|*
%AMROUNDEDRECTD16*
21,1,1.0000,2.5000,0,0,0.0*
21,1,0.5000,3.0000,0,0,0.0*
1,1,0.5000,0.2500,-1.2500*
1,1,0.5000,-0.2500,-1.2500*
1,1,0.5000,-0.2500,1.2500*
1,1,0.5000,0.2500,1.2500*
%
%ADD16ROUNDEDRECTD16*%
%ADD17R,1.6000X1.0000*%
G04:AMPARAMS|DCode=18|XSize=1mm|YSize=2.4mm|CornerRadius=0.25mm|HoleSize=0mm|Usage=FLASHONLY|Rotation=90.000|XOffset=0mm|YOffset=0mm|HoleType=Round|Shape=RoundedRectangle|*
%AMROUNDEDRECTD18*
21,1,1.0000,1.9000,0,0,90.0*
21,1,0.5000,2.4000,0,0,90.0*
1,1,0.5000,0.9500,0.2500*
1,1,0.5000,0.9500,-0.2500*
1,1,0.5000,-0.9500,-0.2500*
1,1,0.5000,-0.9500,0.2500*
%
%ADD18ROUNDEDRECTD18*%
%ADD19O,0.8000X1.6000*%
G04:AMPARAMS|DCode=20|XSize=2mm|YSize=2.4mm|CornerRadius=0.5mm|HoleSize=0mm|Usage=FLASHONLY|Rotation=180.000|XOffset=0mm|YOffset=0mm|HoleType=Round|Shape=RoundedRectangle|*
%AMROUNDEDRECTD20*
21,1,2.0000,1.4000,0,0,180.0*
21,1,1.0000,2.4000,0,0,180.0*
1,1,1.0000,-0.5000,0.7000*
1,1,1.0000,0.5000,0.7000*
1,1,1.0000,0.5000,-0.7000*
1,1,1.0000,-0.5000,-0.7000*
%
%ADD20ROUNDEDRECTD20*%
G04:AMPARAMS|DCode=21|XSize=1.5mm|YSize=2mm|CornerRadius=0.375mm|HoleSize=0mm|Usage=FLASHONLY|Rotation=270.000|XOffset=0mm|YOffset=0mm|HoleType=Round|Shape=RoundedRectangle|*
%AMROUNDEDRECTD21*
21,1,1.5000,1.2500,0,0,270.0*
21,1,0.7500,2.0000,0,0,270.0*
1,1,0.7500,-0.6250,-0.3750*
1,1,0.7500,-0.6250,0.3750*
1,1,0.7500,0.6250,0.3750*
1,1,0.7500,0.6250,-0.3750*
%
%ADD21ROUNDEDRECTD21*%
G04:AMPARAMS|DCode=22|XSize=6mm|YSize=3mm|CornerRadius=0.75mm|HoleSize=0mm|Usage=FLASHONLY|Rotation=270.000|XOffset=0mm|YOffset=0mm|HoleType=Round|Shape=RoundedRectangle|*
%AMROUNDEDRECTD22*
21,1,6.0000,1.5000,0,0,270.0*
21,1,4.5000,3.0000,0,0,270.0*
1,1,1.5000,-0.7500,-2.2500*
1,1,1.5000,-0.7500,2.2500*
1,1,1.5000,0.7500,2.2500*
1,1,1.5000,0.7500,-2.2500*
%
%ADD22ROUNDEDRECTD22*%
G04:AMPARAMS|DCode=23|XSize=1mm|YSize=3mm|CornerRadius=0.25mm|HoleSize=0mm|Usage=FLASHONLY|Rotation=270.000|XOffset=0mm|YOffset=0mm|HoleType=Round|Shape=RoundedRectangle|*
%AMROUNDEDRECTD23*
21,1,1.0000,2.5000,0,0,270.0*
21,1,0.5000,3.0000,0,0,270.0*
1,1,0.5000,-1.2500,-0.2500*
1,1,0.5000,-1.2500,0.2500*
1,1,0.5000,1.2500,0.2500*
1,1,0.5000,1.2500,-0.2500*
%
%ADD23ROUNDEDRECTD23*%
G04:AMPARAMS|DCode=24|XSize=1mm|YSize=0.4mm|CornerRadius=0.1mm|HoleSize=0mm|Usage=FLASHONLY|Rotation=0.000|XOffset=0mm|YOffset=0mm|HoleType=Round|Shape=RoundedRectangle|*
%AMROUNDEDRECTD24*
21,1,1.0000,0.2000,0,0,0.0*
21,1,0.8000,0.4000,0,0,0.0*
1,1,0.2000,0.4000,-0.1000*
1,1,0.2000,-0.4000,-0.1000*
1,1,0.2000,-0.4000,0.1000*
1,1,0.2000,0.4000,0.1000*
%
%ADD24ROUNDEDRECTD24*%
%ADD25C,3.0000*%
%ADD26R,2.2860X8.6360*%
%ADD27C,1.8000*%
%ADD28C,2.5000*%
%ADD29R,1.8000X1.8000*%
%ADD30O,1.9000X2.2000*%
%ADD31C,4.0000*%
G04:AMPARAMS|DCode=32|XSize=7mm|YSize=7mm|CornerRadius=1.75mm|HoleSize=0mm|Usage=FLASHONLY|Rotation=0.000|XOffset=0mm|YOffset=0mm|HoleType=Round|Shape=RoundedRectangle|*
%AMROUNDEDRECTD32*
21,1,7.0000,3.5000,0,0,0.0*
21,1,3.5000,7.0000,0,0,0.0*
1,1,3.5000,1.7500,-1.7500*
1,1,3.5000,-1.7500,-1.7500*
1,1,3.5000,-1.7500,1.7500*
1,1,3.5000,1.7500,1.7500*
%
%ADD32ROUNDEDRECTD32*%
%ADD33R,1.8000X1.8000*%
%ADD34O,1.8000X1.5000*%
%ADD35R,2.0000X2.0000*%
%ADD36C,2.0000*%
%ADD37C,2.2000*%
%ADD38C,1.5000*%
%ADD39C,1.2000*%
%ADD40C,1.0000*%
G36*
X345455Y229870D02*
X345457Y229857D01*
X345198Y227893D01*
X344435Y226051D01*
X343221Y224469D01*
X341639Y223255D01*
X339797Y222492D01*
X337833Y222233D01*
X337820Y222235D01*
X283210D01*
Y222286D01*
X278495Y221822D01*
X273962Y220447D01*
X269784Y218214D01*
X266122Y215208D01*
X263116Y211546D01*
X260883Y207368D01*
X259508Y202835D01*
X259044Y198122D01*
X259044D01*
X259095Y196852D01*
X259081Y-184150D01*
X259081Y-184150D01*
X259081Y-184150D01*
X259095Y-184259D01*
Y-193040D01*
X259062D01*
X259453Y-197008D01*
X260610Y-200823D01*
X262490Y-204339D01*
X265019Y-207421D01*
X268101Y-209950D01*
X271617Y-211830D01*
X275432Y-212987D01*
X279400Y-213378D01*
Y-213345D01*
X316230D01*
X316243Y-213343D01*
X318207Y-213602D01*
X320049Y-214365D01*
X321631Y-215579D01*
X322845Y-217161D01*
X323608Y-219003D01*
X323711Y-219787D01*
X323865Y-220980D01*
D01*
X323865Y-222249D01*
X323865Y-222250D01*
Y-241300D01*
X-123205Y-241300D01*
Y-145011D01*
X-122040Y-143493D01*
X-121028Y-141051D01*
X-120683Y-138430D01*
X-121028Y-135809D01*
X-122040Y-133367D01*
X-123649Y-131269D01*
X-125747Y-129660D01*
X-128189Y-128648D01*
X-130810Y-128303D01*
X-133431Y-128648D01*
X-135873Y-129660D01*
X-137971Y-131269D01*
X-139580Y-133367D01*
X-140592Y-135809D01*
X-140937Y-138430D01*
X-140592Y-141051D01*
X-139580Y-143493D01*
X-138415Y-145011D01*
Y-241300D01*
X-482600D01*
X-483241Y-241364D01*
X-484521Y-241208D01*
X-485735Y-240775D01*
X-486824Y-240085D01*
X-487735Y-239174D01*
X-488425Y-238085D01*
X-488858Y-236871D01*
X-488938Y-236215D01*
X-488950Y-234950D01*
X-488950Y-234950D01*
X-488950Y-234950D01*
X-488950Y234950D01*
Y236213D01*
X-487983Y238547D01*
X-486197Y240333D01*
X-483863Y241300D01*
X-482600Y241300D01*
Y241300D01*
X-45435Y241300D01*
X-44949Y240127D01*
X-120493Y164582D01*
X-120519Y164608D01*
X-123886Y160665D01*
X-126595Y156245D01*
X-128580Y151454D01*
X-129790Y146413D01*
X-130197Y141244D01*
X-130160D01*
Y131676D01*
X-131325Y130158D01*
X-132337Y127716D01*
X-132682Y125095D01*
X-132337Y122474D01*
X-131325Y120032D01*
X-129716Y117934D01*
X-127618Y116325D01*
X-125176Y115313D01*
X-122555Y114968D01*
X-119934Y115313D01*
X-117492Y116325D01*
X-115394Y117934D01*
X-113785Y120032D01*
X-112773Y122474D01*
X-112428Y125095D01*
X-112773Y127716D01*
X-113785Y130158D01*
X-114950Y131676D01*
Y141244D01*
X-114964Y141348D01*
X-114631Y144720D01*
X-113617Y148063D01*
X-111971Y151144D01*
X-109821Y153763D01*
X-109738Y153827D01*
X-27462Y236103D01*
X-27462Y236103D01*
X-27436Y236077D01*
X-24069Y240019D01*
X-23284Y241300D01*
X229576D01*
X230119Y240152D01*
X228409Y238068D01*
X226411Y234331D01*
X225181Y230277D01*
X224766Y226060D01*
X224805D01*
Y12147D01*
X224823Y12010D01*
X224471Y7544D01*
X223393Y3053D01*
X221626Y-1213D01*
X219214Y-5150D01*
X216215Y-8662D01*
X212703Y-11661D01*
X208766Y-14073D01*
X204500Y-15841D01*
X200009Y-16918D01*
X195543Y-17270D01*
X195406Y-17252D01*
X186709D01*
Y-9090D01*
X186318Y-7124D01*
X185204Y-5456D01*
X183536Y-4342D01*
X181570Y-3951D01*
X176570D01*
X174604Y-4342D01*
X172936Y-5456D01*
X171822Y-7124D01*
X171431Y-9090D01*
Y-18987D01*
X127735D01*
X126340Y-17170D01*
X123930Y-15320D01*
X121123Y-14157D01*
X118110Y-13760D01*
X115098Y-14157D01*
X112290Y-15320D01*
X109880Y-17170D01*
X108030Y-19580D01*
X107000Y-22067D01*
X91369D01*
X91003Y-21182D01*
X89954Y-19816D01*
X88588Y-18767D01*
X86997Y-18108D01*
X85290Y-17884D01*
X83583Y-18108D01*
X81992Y-18767D01*
X80626Y-19816D01*
X79610Y-21140D01*
X79341Y-21182D01*
X78489D01*
X78220Y-21140D01*
X77204Y-19816D01*
X75838Y-18767D01*
X74247Y-18108D01*
X72540Y-17884D01*
X70833Y-18108D01*
X69242Y-18767D01*
X67876Y-19816D01*
X66892Y-21097D01*
X66210Y-21187D01*
X66170D01*
X65488Y-21097D01*
X64504Y-19816D01*
X63138Y-18767D01*
X61547Y-18108D01*
X59840Y-17884D01*
X58133Y-18108D01*
X56542Y-18767D01*
X55176Y-19816D01*
X54192Y-21097D01*
X53510Y-21187D01*
X53470D01*
X52788Y-21097D01*
X51804Y-19816D01*
X50438Y-18767D01*
X48847Y-18108D01*
X47140Y-17884D01*
X45433Y-18108D01*
X43842Y-18767D01*
X42476Y-19816D01*
X41427Y-21182D01*
X40768Y-22773D01*
X40544Y-24480D01*
Y-32480D01*
X40768Y-34187D01*
X41427Y-35778D01*
X42001Y-36526D01*
Y-58980D01*
X40260D01*
Y-62171D01*
X36576D01*
Y-62151D01*
X31741Y-62627D01*
X27092Y-64037D01*
X22808Y-66327D01*
X22129Y-66884D01*
X20543Y-66227D01*
X17530Y-65830D01*
X14517Y-66227D01*
X11710Y-67390D01*
X9300Y-69240D01*
X7450Y-71650D01*
X6287Y-74458D01*
X5890Y-77470D01*
X6287Y-80483D01*
X7450Y-83290D01*
X9300Y-85700D01*
X11710Y-87550D01*
X14517Y-88713D01*
X17530Y-89109D01*
X20543Y-88713D01*
X23350Y-87550D01*
X25760Y-85700D01*
X27610Y-83290D01*
X28773Y-80483D01*
X29169Y-77470D01*
X28802Y-74677D01*
X29286Y-74306D01*
X32802Y-72849D01*
X36284Y-72391D01*
X36576Y-72449D01*
X40260D01*
Y-74060D01*
X61340D01*
Y-58980D01*
X52279D01*
Y-36526D01*
X52788Y-35863D01*
X53470Y-35773D01*
X53510D01*
X54192Y-35863D01*
X54701Y-36526D01*
Y-44600D01*
X54753Y-44858D01*
X55018Y-47550D01*
X55878Y-50387D01*
X57276Y-53002D01*
X59157Y-55293D01*
X61448Y-57174D01*
X64063Y-58572D01*
X66900Y-59432D01*
X66930Y-59435D01*
Y-73820D01*
X88010D01*
Y-71419D01*
X90049D01*
X90283Y-71372D01*
X94015Y-71740D01*
X97829Y-72897D01*
X100559Y-74356D01*
X100517Y-74458D01*
X100120Y-77470D01*
X100517Y-80483D01*
X101680Y-83290D01*
X103530Y-85700D01*
X105940Y-87550D01*
X108748Y-88713D01*
X111760Y-89109D01*
X114773Y-88713D01*
X117580Y-87550D01*
X119990Y-85700D01*
X121840Y-83290D01*
X123003Y-80483D01*
X123399Y-77470D01*
X123003Y-74458D01*
X121840Y-71650D01*
X119990Y-69240D01*
X117580Y-67390D01*
X114773Y-66227D01*
X111760Y-65830D01*
X108748Y-66227D01*
X107569Y-66715D01*
X103911Y-64474D01*
X99485Y-62640D01*
X94826Y-61522D01*
X90087Y-61149D01*
X90049Y-61141D01*
X88010D01*
Y-58740D01*
X82107D01*
X80908Y-55845D01*
X78879Y-53201D01*
X78475Y-52891D01*
X78906Y-51621D01*
X137160D01*
X137394Y-51574D01*
X141126Y-51942D01*
X144940Y-53099D01*
X148455Y-54977D01*
X151536Y-57506D01*
X154065Y-60587D01*
X155943Y-64102D01*
X156918Y-67316D01*
X156740Y-67390D01*
X154330Y-69240D01*
X152480Y-71650D01*
X151317Y-74458D01*
X150920Y-77470D01*
X151317Y-80483D01*
X152480Y-83290D01*
X154330Y-85700D01*
X156740Y-87550D01*
X159548Y-88713D01*
X162560Y-89109D01*
X165572Y-88713D01*
X168380Y-87550D01*
X170790Y-85700D01*
X172640Y-83290D01*
X172922Y-82609D01*
X184912D01*
X185023Y-82587D01*
X186879Y-82831D01*
X188711Y-83590D01*
X190285Y-84797D01*
X191492Y-86371D01*
X192251Y-88203D01*
X192495Y-90059D01*
X192473Y-90170D01*
Y-125554D01*
X191867Y-125738D01*
X189254Y-127134D01*
X186964Y-129014D01*
X185084Y-131304D01*
X183688Y-133917D01*
X182828Y-136752D01*
X182537Y-139700D01*
X182828Y-142648D01*
X183688Y-145483D01*
X185084Y-148096D01*
X186964Y-150386D01*
X189254Y-152266D01*
X191867Y-153662D01*
X192511Y-153858D01*
Y-163320D01*
X192558Y-163554D01*
X192190Y-167286D01*
X191033Y-171100D01*
X189154Y-174615D01*
X186626Y-177696D01*
X183545Y-180224D01*
X180030Y-182103D01*
X176216Y-183260D01*
X172484Y-183628D01*
X172250Y-183581D01*
X159460D01*
Y-178180D01*
X144380D01*
Y-199260D01*
X159460D01*
Y-193859D01*
X172250D01*
X172288Y-193851D01*
X177027Y-193478D01*
X181686Y-192360D01*
X186112Y-190526D01*
X190198Y-188023D01*
X193841Y-184911D01*
X196953Y-181268D01*
X199456Y-177182D01*
X201290Y-172756D01*
X202408Y-168097D01*
X202781Y-163358D01*
X202789Y-163320D01*
Y-153858D01*
X203433Y-153662D01*
X206046Y-152266D01*
X208336Y-150386D01*
X210216Y-148096D01*
X211612Y-145483D01*
X212472Y-142648D01*
X212763Y-139700D01*
X212472Y-136752D01*
X211612Y-133917D01*
X210216Y-131304D01*
X208336Y-129014D01*
X206046Y-127134D01*
X203433Y-125738D01*
X202751Y-125531D01*
Y-90170D01*
X202725Y-90042D01*
X202395Y-86692D01*
X201381Y-83348D01*
X199734Y-80267D01*
X197517Y-77565D01*
X194816Y-75348D01*
X191734Y-73701D01*
X188390Y-72687D01*
X185040Y-72357D01*
X184912Y-72331D01*
X172922D01*
X172640Y-71650D01*
X170790Y-69240D01*
X168380Y-67390D01*
X167277Y-66933D01*
X166200Y-62446D01*
X164366Y-58020D01*
X161863Y-53934D01*
X158751Y-50291D01*
X155107Y-47179D01*
X151022Y-44676D01*
X146596Y-42842D01*
X141937Y-41724D01*
X137198Y-41351D01*
X137160Y-41343D01*
X78899D01*
X78103Y-41023D01*
X77783Y-40227D01*
Y-36391D01*
X78220Y-35821D01*
X78489Y-35778D01*
X79341D01*
X79610Y-35821D01*
X80626Y-37144D01*
X81992Y-38193D01*
X83583Y-38852D01*
X85290Y-39076D01*
X86997Y-38852D01*
X88588Y-38193D01*
X89954Y-37144D01*
X91003Y-35778D01*
X91369Y-34893D01*
X111525D01*
X112290Y-35480D01*
X115098Y-36643D01*
X118110Y-37039D01*
X121123Y-36643D01*
X123930Y-35480D01*
X126340Y-33630D01*
X127735Y-31813D01*
X171431D01*
Y-34090D01*
X171822Y-36056D01*
X172936Y-37724D01*
X174604Y-38838D01*
X176570Y-39229D01*
X181570D01*
X183536Y-38838D01*
X185204Y-37724D01*
X186318Y-36056D01*
X186709Y-34090D01*
Y-32462D01*
X195406D01*
Y-32493D01*
X201233Y-32111D01*
X206959Y-30972D01*
X212489Y-29095D01*
X217726Y-26512D01*
X222581Y-23268D01*
X226971Y-19418D01*
X230821Y-15028D01*
X234065Y-10173D01*
X236648Y-4936D01*
X238524Y593D01*
X239664Y6320D01*
X240046Y12147D01*
X240015D01*
Y226060D01*
X239991Y226246D01*
X240443Y228519D01*
X241836Y230604D01*
X243921Y231997D01*
X246194Y232449D01*
X246380Y232425D01*
X279400D01*
Y232392D01*
X283368Y232783D01*
X287183Y233940D01*
X290699Y235820D01*
X293781Y238349D01*
X296203Y241300D01*
X345455D01*
Y229870D01*
D02*
G37*
G36*
X13670Y334447D02*
X14883Y331518D01*
X16813Y329003D01*
X17795Y328250D01*
Y314960D01*
X17824Y314739D01*
X17375Y311325D01*
X15972Y307938D01*
X13740Y305030D01*
X10832Y302798D01*
X7445Y301395D01*
X4031Y300946D01*
X3810Y300975D01*
X-6350D01*
Y300992D01*
X-10523Y300664D01*
X-14592Y299687D01*
X-18459Y298085D01*
X-22027Y295898D01*
X-25210Y293180D01*
X-27928Y289998D01*
X-30115Y286429D01*
X-31717Y282562D01*
X-32694Y278493D01*
X-32719Y278170D01*
X-33630Y277470D01*
X-35480Y275060D01*
X-36643Y272253D01*
X-37039Y269240D01*
X-36643Y266227D01*
X-35480Y263420D01*
X-33630Y261010D01*
X-33005Y260530D01*
Y259441D01*
X-32991Y259337D01*
X-33324Y255965D01*
X-33534Y255270D01*
X-323850D01*
X-325088Y255347D01*
X-327349Y256367D01*
X-329103Y258121D01*
X-330123Y260382D01*
X-330200Y261620D01*
X-330200Y261620D01*
Y276367D01*
X-143764D01*
Y276346D01*
X-140294Y276688D01*
X-136958Y277700D01*
X-133883Y279344D01*
X-131188Y281556D01*
X-128976Y284251D01*
X-127332Y287326D01*
X-126320Y290662D01*
X-125978Y294132D01*
X-125999D01*
Y302006D01*
X-125991D01*
X-125778Y303078D01*
X-125170Y303986D01*
X-124262Y304594D01*
X-123190Y304807D01*
Y304815D01*
X-10160D01*
Y304794D01*
X-6690Y305136D01*
X-3354Y306148D01*
X-279Y307792D01*
X2416Y310004D01*
X4628Y312699D01*
X6272Y315774D01*
X7284Y319110D01*
X7626Y322580D01*
X7605D01*
Y328250D01*
X8587Y329003D01*
X10517Y331518D01*
X11730Y334447D01*
X12060Y336949D01*
X13341D01*
X13670Y334447D01*
D02*
G37*
G36*
X228037Y450608D02*
X229879Y449845D01*
X231461Y448631D01*
X232675Y447049D01*
X233438Y445207D01*
X233697Y443243D01*
X233695Y443230D01*
Y369570D01*
Y351200D01*
X232713Y350447D01*
X230783Y347932D01*
X229570Y345003D01*
X229156Y341860D01*
Y338860D01*
X229570Y335717D01*
X230783Y332788D01*
X232713Y330273D01*
X235228Y328343D01*
X238157Y327130D01*
X241300Y326716D01*
X244443Y327130D01*
X247372Y328343D01*
X249887Y330273D01*
X251817Y332788D01*
X253030Y335717D01*
X253127Y336457D01*
X254408Y336457D01*
X254522Y335597D01*
X255781Y332556D01*
X257785Y329945D01*
X260396Y327941D01*
X263200Y326780D01*
Y340360D01*
Y353940D01*
X260396Y352779D01*
X257785Y350775D01*
X255781Y348164D01*
X254522Y345123D01*
X254408Y344263D01*
X253127Y344263D01*
X253030Y345003D01*
X251817Y347932D01*
X249887Y350447D01*
X248905Y351200D01*
Y361965D01*
X298450D01*
X298500Y361972D01*
X301428Y361683D01*
X304292Y360814D01*
X306932Y359404D01*
X309206Y357537D01*
X309237Y357497D01*
X340243Y326491D01*
X340326Y326427D01*
X342476Y323807D01*
X344122Y320727D01*
X345136Y317384D01*
X345476Y313932D01*
X345455Y313908D01*
X345455D01*
X345636Y312529D01*
X345455Y311150D01*
Y255270D01*
X299705D01*
Y260530D01*
X300330Y261010D01*
X302180Y263420D01*
X303343Y266227D01*
X303739Y269240D01*
X303343Y272253D01*
X302180Y275060D01*
X300330Y277470D01*
X299705Y277950D01*
Y329520D01*
X300687Y330273D01*
X302617Y332788D01*
X303830Y335717D01*
X304244Y338860D01*
Y341860D01*
X303830Y345003D01*
X302617Y347932D01*
X300687Y350447D01*
X298172Y352377D01*
X295243Y353590D01*
X292100Y354004D01*
X288957Y353590D01*
X286028Y352377D01*
X283513Y350447D01*
X281583Y347932D01*
X280370Y345003D01*
X280273Y344263D01*
X278992Y344263D01*
X278878Y345123D01*
X277619Y348164D01*
X275615Y350775D01*
X273004Y352779D01*
X270200Y353940D01*
Y340360D01*
Y326780D01*
X273004Y327941D01*
X275615Y329945D01*
X277619Y332556D01*
X278878Y335597D01*
X278992Y336457D01*
X280273Y336457D01*
X280370Y335717D01*
X281583Y332788D01*
X283513Y330273D01*
X284495Y329520D01*
Y277950D01*
X283870Y277470D01*
X282020Y275060D01*
X280857Y272253D01*
X280460Y269240D01*
X280857Y266227D01*
X282020Y263420D01*
X283870Y261010D01*
X284495Y260530D01*
Y255270D01*
X-17151D01*
X-18013Y256203D01*
X-17758Y259441D01*
X-17758D01*
X-17629Y260657D01*
X-17170Y261010D01*
X-15320Y263420D01*
X-14157Y266227D01*
X-13760Y269240D01*
X-14157Y272253D01*
X-15320Y275060D01*
X-17170Y277470D01*
X-17319Y277585D01*
X-16293Y280061D01*
X-14468Y282438D01*
X-12091Y284263D01*
X-9322Y285410D01*
X-6488Y285783D01*
X-6350Y285765D01*
X3810D01*
Y285740D01*
X8381Y286100D01*
X12839Y287170D01*
X17076Y288925D01*
X20985Y291320D01*
X24472Y294298D01*
X27450Y297785D01*
X29845Y301694D01*
X31600Y305931D01*
X32670Y310389D01*
X33030Y314960D01*
X33005D01*
Y328250D01*
X33987Y329003D01*
X35917Y331518D01*
X37130Y334447D01*
X37544Y337590D01*
Y340590D01*
X37130Y343733D01*
X35917Y346662D01*
X33987Y349177D01*
X31472Y351107D01*
X28543Y352320D01*
X25400Y352734D01*
X22257Y352320D01*
X19328Y351107D01*
X16813Y349177D01*
X14883Y346662D01*
X13670Y343733D01*
X13341Y341231D01*
X12060D01*
X11730Y343733D01*
X10517Y346662D01*
X8587Y349177D01*
X6072Y351107D01*
X3143Y352320D01*
X0Y352734D01*
X-3143Y352320D01*
X-6072Y351107D01*
X-8587Y349177D01*
X-10517Y346662D01*
X-11730Y343733D01*
X-11827Y342993D01*
X-13109Y342993D01*
X-13222Y343853D01*
X-14481Y346894D01*
X-16485Y349505D01*
X-19096Y351509D01*
X-21900Y352670D01*
Y339090D01*
Y325510D01*
X-19096Y326671D01*
X-16485Y328675D01*
X-14481Y331286D01*
X-13222Y334327D01*
X-13109Y335187D01*
X-11827Y335187D01*
X-11730Y334447D01*
X-10517Y331518D01*
X-8587Y329003D01*
X-7605Y328250D01*
Y322580D01*
X-7618D01*
X-7812Y321607D01*
X-8363Y320783D01*
X-9187Y320232D01*
X-10160Y320038D01*
Y320025D01*
X-123190D01*
Y320047D01*
X-126710Y319700D01*
X-130094Y318674D01*
X-133213Y317006D01*
X-135947Y314763D01*
X-138190Y312029D01*
X-139858Y308910D01*
X-140884Y305526D01*
X-141231Y302006D01*
X-141209D01*
Y294132D01*
X-141222D01*
X-141416Y293159D01*
X-141967Y292335D01*
X-142791Y291784D01*
X-143764Y291590D01*
Y291577D01*
X-330200D01*
X-330200Y323106D01*
X-330200Y368300D01*
X-330156Y369397D01*
X-329388Y371452D01*
X-328017Y373166D01*
X-326180Y374366D01*
X-325120Y374650D01*
X-171943Y374649D01*
Y338714D01*
X-172366Y338672D01*
X-175201Y337812D01*
X-177814Y336416D01*
X-180104Y334536D01*
X-181984Y332246D01*
X-183380Y329633D01*
X-184240Y326798D01*
X-184531Y323850D01*
X-184240Y320902D01*
X-183380Y318067D01*
X-181984Y315454D01*
X-180104Y313164D01*
X-177814Y311284D01*
X-175201Y309888D01*
X-172366Y309028D01*
X-169418Y308737D01*
X-166470Y309028D01*
X-163635Y309888D01*
X-161022Y311284D01*
X-158732Y313164D01*
X-156852Y315454D01*
X-155456Y318067D01*
X-154596Y320902D01*
X-154305Y323850D01*
X-154596Y326798D01*
X-155456Y329633D01*
X-156733Y332023D01*
Y402267D01*
X-155028Y402974D01*
X-153452Y404182D01*
X-152244Y405757D01*
X-151484Y407592D01*
X-151225Y409560D01*
Y423560D01*
X-151484Y425528D01*
X-152244Y427363D01*
X-153452Y428938D01*
X-155028Y430146D01*
X-156733Y430853D01*
Y444177D01*
X-155028Y444884D01*
X-153452Y446092D01*
X-152244Y447668D01*
X-151484Y449502D01*
X-151305Y450865D01*
X226060D01*
X226073Y450867D01*
X228037Y450608D01*
D02*
G37*
G36*
X381000Y482600D02*
X382188Y482538D01*
X384495Y481951D01*
X386643Y480926D01*
X388549Y479501D01*
X390141Y477732D01*
X391357Y475686D01*
X392150Y473442D01*
X392380Y471850D01*
X392465Y470643D01*
X392428Y469920D01*
X392426Y469898D01*
X392430Y469896D01*
X392430Y469371D01*
X392430Y420370D01*
X392487Y418626D01*
X392941Y415167D01*
X393844Y411797D01*
X395178Y408574D01*
X396922Y405553D01*
X399046Y402785D01*
X401512Y400318D01*
X404280Y398194D01*
X407301Y396450D01*
X410524Y395115D01*
X413894Y394212D01*
X417353Y393757D01*
X419097Y393700D01*
X469900Y393700D01*
X471151Y393700D01*
X473605Y393213D01*
X475916Y392255D01*
X477996Y390865D01*
X479765Y389095D01*
X481155Y387015D01*
X482111Y384703D01*
X482598Y382249D01*
X482597Y380998D01*
X482597Y380998D01*
X482600Y380996D01*
X482600Y268288D01*
X482616Y267021D01*
X482600Y266934D01*
Y241300D01*
Y130218D01*
X481366Y130039D01*
X480479Y132960D01*
X479040Y135653D01*
X477103Y138013D01*
X474743Y139950D01*
X472050Y141389D01*
X469590Y142136D01*
Y127000D01*
X466090D01*
Y123500D01*
X450954D01*
X451701Y121040D01*
X453140Y118347D01*
X455077Y115987D01*
X456942Y114456D01*
X457031Y114245D01*
Y113085D01*
X456942Y112874D01*
X455077Y111343D01*
X453140Y108983D01*
X451707Y106302D01*
X451290Y106175D01*
X450403Y106131D01*
X449977Y107158D01*
X447807Y109987D01*
X444978Y112157D01*
X441685Y113521D01*
X438150Y113987D01*
X434615Y113521D01*
X431322Y112157D01*
X428493Y109987D01*
X426323Y107158D01*
X425897Y106131D01*
X425010Y106175D01*
X424593Y106302D01*
X423160Y108983D01*
X421223Y111343D01*
X419358Y112874D01*
X419269Y113085D01*
Y114245D01*
X419358Y114456D01*
X421223Y115987D01*
X423160Y118347D01*
X424599Y121040D01*
X425346Y123500D01*
X395074D01*
X395821Y121040D01*
X397260Y118347D01*
X399197Y115987D01*
X401062Y114456D01*
X401151Y114245D01*
Y113085D01*
X401062Y112874D01*
X399197Y111343D01*
X397260Y108983D01*
X395821Y106290D01*
X395074Y103830D01*
X410210D01*
Y96830D01*
X395074D01*
X395821Y94370D01*
X397260Y91677D01*
X399197Y89317D01*
X401557Y87380D01*
X402277Y86995D01*
Y85725D01*
X401557Y85340D01*
X399197Y83403D01*
X397260Y81043D01*
X395821Y78350D01*
X395074Y75890D01*
X425346D01*
X424599Y78350D01*
X423160Y81043D01*
X421223Y83403D01*
X418863Y85340D01*
X418143Y85725D01*
Y86995D01*
X418863Y87380D01*
X421223Y89317D01*
X423160Y91677D01*
X424593Y94358D01*
X425010Y94485D01*
X425897Y94529D01*
X426323Y93502D01*
X428493Y90673D01*
X431322Y88503D01*
X434615Y87139D01*
X438150Y86673D01*
X441685Y87139D01*
X444978Y88503D01*
X447807Y90673D01*
X449977Y93502D01*
X450403Y94529D01*
X451290Y94485D01*
X451707Y94358D01*
X453140Y91677D01*
X455077Y89317D01*
X457437Y87380D01*
X458157Y86995D01*
Y85725D01*
X457437Y85340D01*
X455077Y83403D01*
X453140Y81043D01*
X451701Y78350D01*
X450954Y75890D01*
X466090D01*
Y72390D01*
X469590D01*
Y57254D01*
X472050Y58001D01*
X474743Y59440D01*
X477103Y61377D01*
X479040Y63737D01*
X480479Y66430D01*
X481366Y69351D01*
X482600Y69172D01*
Y-70442D01*
X481366Y-70621D01*
X480479Y-67700D01*
X479040Y-65007D01*
X477103Y-62647D01*
X474743Y-60710D01*
X472050Y-59271D01*
X469590Y-58524D01*
Y-73660D01*
X466090D01*
Y-77160D01*
X450954D01*
X451701Y-79620D01*
X453140Y-82313D01*
X455077Y-84673D01*
X456942Y-86204D01*
X457031Y-86415D01*
Y-87575D01*
X456942Y-87786D01*
X455077Y-89317D01*
X453140Y-91677D01*
X451707Y-94358D01*
X451290Y-94485D01*
X450403Y-94529D01*
X449977Y-93502D01*
X447807Y-90673D01*
X444978Y-88503D01*
X441685Y-87139D01*
X438150Y-86673D01*
X434615Y-87139D01*
X431322Y-88503D01*
X428493Y-90673D01*
X426323Y-93502D01*
X425897Y-94529D01*
X425010Y-94485D01*
X424593Y-94358D01*
X423160Y-91677D01*
X421223Y-89317D01*
X419358Y-87786D01*
X419269Y-87575D01*
Y-86415D01*
X419358Y-86204D01*
X421223Y-84673D01*
X423160Y-82313D01*
X424599Y-79620D01*
X425346Y-77160D01*
X395074D01*
X395821Y-79620D01*
X397260Y-82313D01*
X399197Y-84673D01*
X401062Y-86204D01*
X401151Y-86415D01*
Y-87575D01*
X401062Y-87786D01*
X399197Y-89317D01*
X397260Y-91677D01*
X395821Y-94370D01*
X395074Y-96830D01*
X410210D01*
Y-103830D01*
X395074D01*
X395821Y-106290D01*
X397260Y-108983D01*
X399197Y-111343D01*
X401557Y-113280D01*
X402277Y-113665D01*
Y-114935D01*
X401557Y-115320D01*
X399197Y-117257D01*
X397260Y-119617D01*
X395821Y-122310D01*
X395074Y-124770D01*
X425346D01*
X424599Y-122310D01*
X423160Y-119617D01*
X421223Y-117257D01*
X418863Y-115320D01*
X418143Y-114935D01*
Y-113665D01*
X418863Y-113280D01*
X421223Y-111343D01*
X423160Y-108983D01*
X424593Y-106302D01*
X425010Y-106175D01*
X425897Y-106131D01*
X426323Y-107158D01*
X428493Y-109987D01*
X431322Y-112157D01*
X434615Y-113521D01*
X438150Y-113987D01*
X441685Y-113521D01*
X444978Y-112157D01*
X447807Y-109987D01*
X449977Y-107158D01*
X450403Y-106131D01*
X451290Y-106175D01*
X451707Y-106302D01*
X453140Y-108983D01*
X455077Y-111343D01*
X457437Y-113280D01*
X458157Y-113665D01*
Y-114935D01*
X457437Y-115320D01*
X455077Y-117257D01*
X453140Y-119617D01*
X451701Y-122310D01*
X450954Y-124770D01*
X466090D01*
Y-128270D01*
X469590D01*
Y-143406D01*
X472050Y-142659D01*
X474743Y-141220D01*
X477103Y-139283D01*
X479040Y-136923D01*
X480479Y-134230D01*
X481366Y-131309D01*
X482600Y-131488D01*
Y-241300D01*
X482600D01*
X482600Y-255270D01*
X482600D01*
Y-381000D01*
Y-382251D01*
X482112Y-384705D01*
X481155Y-387016D01*
X479765Y-389096D01*
X477996Y-390865D01*
X475916Y-392255D01*
X473604Y-393212D01*
X471151Y-393700D01*
X419100D01*
X416610Y-393822D01*
X411727Y-394794D01*
X407127Y-396699D01*
X402986Y-399465D01*
X399465Y-402986D01*
X396699Y-407127D01*
X394794Y-411727D01*
X393822Y-416610D01*
X393700Y-419100D01*
X393700Y-469900D01*
X393700Y-469900D01*
Y-471151D01*
X393212Y-473605D01*
X392255Y-475916D01*
X390865Y-477996D01*
X389096Y-479765D01*
X387016Y-481155D01*
X384704Y-482112D01*
X382251Y-482600D01*
X-178816D01*
X-179967Y-482602D01*
X-182226Y-482155D01*
X-184354Y-481275D01*
X-186268Y-479996D01*
X-187896Y-478368D01*
X-189175Y-476454D01*
X-190054Y-474326D01*
X-190501Y-472067D01*
X-190500Y-470916D01*
Y-266700D01*
X-190500Y-265574D01*
X-190061Y-263366D01*
X-189200Y-261286D01*
X-187949Y-259413D01*
X-186357Y-257821D01*
X-184485Y-256570D01*
X-182404Y-255709D01*
X-180196Y-255270D01*
X-179070Y-255270D01*
X-138500D01*
X-138239Y-257916D01*
X-136807Y-262636D01*
X-134481Y-266987D01*
X-131352Y-270800D01*
X-127538Y-273930D01*
X-123188Y-276256D01*
X-118467Y-277688D01*
X-113558Y-278171D01*
Y-278115D01*
X-70931D01*
X-69904Y-279454D01*
X-67284Y-281464D01*
X-64234Y-282727D01*
X-60960Y-283158D01*
X-57686Y-282727D01*
X-54636Y-281464D01*
X-52016Y-279454D01*
X-50939Y-278049D01*
X-50439Y-278115D01*
X-34110D01*
X-33630Y-278740D01*
X-33005Y-279220D01*
Y-325709D01*
X-33987Y-326463D01*
X-35917Y-328978D01*
X-37130Y-331907D01*
X-37544Y-335050D01*
Y-338050D01*
X-37130Y-341193D01*
X-35917Y-344122D01*
X-33987Y-346637D01*
X-31472Y-348567D01*
X-28543Y-349780D01*
X-25400Y-350194D01*
X-22257Y-349780D01*
X-19328Y-348567D01*
X-16813Y-346637D01*
X-14883Y-344122D01*
X-13670Y-341193D01*
X-13572Y-340453D01*
X-12292Y-340453D01*
X-12178Y-341313D01*
X-10919Y-344354D01*
X-8915Y-346965D01*
X-6304Y-348969D01*
X-4394Y-349760D01*
Y-351135D01*
X-5295Y-351508D01*
X-7489Y-353191D01*
X-9172Y-355385D01*
X-9915Y-357180D01*
X9915D01*
X9172Y-355385D01*
X7489Y-353191D01*
X5295Y-351508D01*
X4394Y-351135D01*
Y-349760D01*
X6304Y-348969D01*
X8915Y-346965D01*
X10919Y-344354D01*
X12178Y-341313D01*
X12292Y-340453D01*
X13572Y-340453D01*
X13670Y-341193D01*
X14883Y-344122D01*
X16813Y-346637D01*
X19328Y-348567D01*
X22257Y-349780D01*
X25400Y-350194D01*
X28543Y-349780D01*
X31472Y-348567D01*
X33987Y-346637D01*
X35891Y-344155D01*
X230809D01*
X232713Y-346637D01*
X235228Y-348567D01*
X238157Y-349780D01*
X241300Y-350194D01*
X244443Y-349780D01*
X247372Y-348567D01*
X249887Y-346637D01*
X251817Y-344122D01*
X253030Y-341193D01*
X253127Y-340453D01*
X254408Y-340453D01*
X254522Y-341313D01*
X255781Y-344354D01*
X257785Y-346965D01*
X260396Y-348969D01*
X263200Y-350130D01*
Y-336550D01*
Y-322970D01*
X260396Y-324131D01*
X257785Y-326135D01*
X255781Y-328746D01*
X254522Y-331787D01*
X254408Y-332647D01*
X253127Y-332647D01*
X253030Y-331907D01*
X251817Y-328978D01*
X249887Y-326463D01*
X248905Y-325709D01*
Y-279220D01*
X249530Y-278740D01*
X251380Y-276330D01*
X252543Y-273522D01*
X252940Y-270510D01*
X252543Y-267498D01*
X251380Y-264690D01*
X249530Y-262280D01*
X247120Y-260430D01*
X244312Y-259267D01*
X241300Y-258871D01*
X238288Y-259267D01*
X235480Y-260430D01*
X233070Y-262280D01*
X231220Y-264690D01*
X230057Y-267498D01*
X229660Y-270510D01*
X230057Y-273522D01*
X231220Y-276330D01*
X233070Y-278740D01*
X233695Y-279220D01*
Y-325709D01*
X232713Y-326463D01*
X230809Y-328945D01*
X35891D01*
X33987Y-326463D01*
X31472Y-324533D01*
X28543Y-323320D01*
X25400Y-322906D01*
X22257Y-323320D01*
X19328Y-324533D01*
X16813Y-326463D01*
X14883Y-328978D01*
X13670Y-331907D01*
X13572Y-332647D01*
X12292Y-332647D01*
X12178Y-331787D01*
X10919Y-328746D01*
X8915Y-326135D01*
X6304Y-324131D01*
X3500Y-322970D01*
Y-336550D01*
X-3500D01*
Y-322970D01*
X-6304Y-324131D01*
X-8915Y-326135D01*
X-10919Y-328746D01*
X-12178Y-331787D01*
X-12292Y-332647D01*
X-13572Y-332647D01*
X-13670Y-331907D01*
X-14883Y-328978D01*
X-16813Y-326463D01*
X-17795Y-325709D01*
Y-279220D01*
X-17170Y-278740D01*
X-15320Y-276330D01*
X-14157Y-273522D01*
X-13760Y-270510D01*
X-14157Y-267498D01*
X-15320Y-264690D01*
X-17170Y-262280D01*
X-19580Y-260430D01*
X-22387Y-259267D01*
X-25400Y-258871D01*
X-28412Y-259267D01*
X-31220Y-260430D01*
X-33630Y-262280D01*
X-34110Y-262905D01*
X-50439D01*
X-50939Y-262971D01*
X-52016Y-261566D01*
X-54636Y-259556D01*
X-57686Y-258293D01*
X-60960Y-257862D01*
X-64234Y-258293D01*
X-67284Y-259556D01*
X-69904Y-261566D01*
X-70931Y-262905D01*
X-113558D01*
X-113645Y-262916D01*
X-116125Y-262590D01*
X-118518Y-261599D01*
X-120573Y-260022D01*
X-122150Y-257967D01*
X-122741Y-256540D01*
X-121892Y-255270D01*
X323865Y-255270D01*
Y-328945D01*
X302591D01*
X300687Y-326463D01*
X298172Y-324533D01*
X295243Y-323320D01*
X292100Y-322906D01*
X288957Y-323320D01*
X286028Y-324533D01*
X283513Y-326463D01*
X281583Y-328978D01*
X280370Y-331907D01*
X280273Y-332647D01*
X278992Y-332647D01*
X278878Y-331787D01*
X277619Y-328746D01*
X275615Y-326135D01*
X273004Y-324131D01*
X270200Y-322970D01*
Y-336550D01*
Y-350130D01*
X273004Y-348969D01*
X275615Y-346965D01*
X277619Y-344354D01*
X278878Y-341313D01*
X278992Y-340453D01*
X280273Y-340453D01*
X280370Y-341193D01*
X281583Y-344122D01*
X283513Y-346637D01*
X286028Y-348567D01*
X288957Y-349780D01*
X292100Y-350194D01*
X295243Y-349780D01*
X298172Y-348567D01*
X300687Y-346637D01*
X302591Y-344155D01*
X403059D01*
X403163Y-344141D01*
X406255Y-344446D01*
X407359Y-345421D01*
X407357Y-345440D01*
X407648Y-348388D01*
X408508Y-351223D01*
X409904Y-353836D01*
X411784Y-356126D01*
X414074Y-358006D01*
X416687Y-359402D01*
X419522Y-360262D01*
X422470Y-360553D01*
X425418Y-360262D01*
X428253Y-359402D01*
X430866Y-358006D01*
X433156Y-356126D01*
X435036Y-353836D01*
X436432Y-351223D01*
X437292Y-348388D01*
X437583Y-345440D01*
X437292Y-342492D01*
X436432Y-339657D01*
X435036Y-337044D01*
X433156Y-334754D01*
X430866Y-332874D01*
X428253Y-331478D01*
X425418Y-330618D01*
X422470Y-330327D01*
X419522Y-330618D01*
X416687Y-331478D01*
X416198Y-331739D01*
X413270Y-330525D01*
X408228Y-329315D01*
X403059Y-328908D01*
Y-328945D01*
X339075D01*
Y-255270D01*
X463550D01*
X463550Y-241300D01*
X339075D01*
Y-222250D01*
X339120Y-220980D01*
X339120D01*
X338680Y-216514D01*
X337378Y-212220D01*
X335262Y-208263D01*
X332416Y-204794D01*
X328947Y-201947D01*
X324990Y-199832D01*
X320696Y-198530D01*
X316230Y-198090D01*
Y-198135D01*
X279400D01*
X279289Y-198150D01*
X277436Y-197781D01*
X275771Y-196669D01*
X274659Y-195004D01*
X274291Y-193151D01*
X274305Y-193040D01*
Y-184150D01*
X274291Y-184042D01*
X274305Y198120D01*
X274305Y198120D01*
X274305Y198120D01*
Y198121D01*
X274298Y198175D01*
X274595Y200429D01*
X275486Y202580D01*
X276903Y204427D01*
X278750Y205844D01*
X280902Y206735D01*
X283155Y207032D01*
X283210Y207025D01*
X337820D01*
Y206980D01*
X342286Y207420D01*
X346580Y208722D01*
X350537Y210837D01*
X354006Y213684D01*
X356852Y217153D01*
X358968Y221110D01*
X360270Y225404D01*
X360710Y229870D01*
X360665D01*
Y241300D01*
X463550D01*
Y255270D01*
X360665D01*
Y311150D01*
X360484Y312529D01*
X360665Y313908D01*
X360702D01*
X360295Y319077D01*
X359085Y324118D01*
X357100Y328909D01*
X354391Y333329D01*
X351024Y337272D01*
X350998Y337246D01*
X320895Y367350D01*
X320024Y368259D01*
X320013Y368273D01*
X319087Y369063D01*
X316374Y371380D01*
X312294Y373880D01*
X307873Y375712D01*
X303220Y376829D01*
X298450Y377204D01*
Y377175D01*
X248905D01*
Y443230D01*
X248950D01*
X248510Y447696D01*
X247208Y451990D01*
X245093Y455947D01*
X242246Y459416D01*
X238777Y462262D01*
X234820Y464378D01*
X230526Y465680D01*
X226060Y466120D01*
Y466075D01*
X-151305D01*
X-151484Y467438D01*
X-152244Y469272D01*
X-153452Y470848D01*
X-155028Y472056D01*
X-156862Y472816D01*
X-158830Y473075D01*
X-164751D01*
X-165575Y474345D01*
X-164925Y475914D01*
X-163535Y477994D01*
X-161767Y479762D01*
X-159687Y481152D01*
X-157377Y482109D01*
X-154924Y482597D01*
X-153673Y482597D01*
X-153670Y482600D01*
X381000Y482600D01*
D02*
G37*
%LPC*%
G36*
X-435060Y-110180D02*
X-439560D01*
Y-117680D01*
X-435060D01*
Y-110180D01*
D02*
G37*
G36*
X-457900Y-115000D02*
X-466400D01*
Y-123500D01*
X-457900D01*
Y-115000D01*
D02*
G37*
G36*
X75240Y-106925D02*
X73445Y-107668D01*
X71251Y-109351D01*
X69568Y-111545D01*
X68825Y-113340D01*
X75240D01*
Y-106925D01*
D02*
G37*
G36*
X82240D02*
Y-113340D01*
X88655D01*
X87912Y-111545D01*
X86229Y-109351D01*
X84035Y-107668D01*
X82240Y-106925D01*
D02*
G37*
G36*
X-423560Y-110180D02*
X-428060D01*
Y-117680D01*
X-423560D01*
Y-110180D01*
D02*
G37*
G36*
X61340Y-88980D02*
X40260D01*
Y-104060D01*
X43361D01*
Y-129160D01*
X40960D01*
Y-134561D01*
X25502D01*
X25489Y-134564D01*
X23350Y-132922D01*
X20543Y-131759D01*
X17530Y-131362D01*
X14517Y-131759D01*
X11710Y-132922D01*
X9300Y-134772D01*
X7450Y-137182D01*
X6287Y-139990D01*
X5890Y-143002D01*
X6287Y-146014D01*
X7057Y-147873D01*
X6336Y-149049D01*
X4502Y-153476D01*
X3384Y-158134D01*
X3011Y-162873D01*
X3003Y-162911D01*
Y-178182D01*
X602D01*
Y-199262D01*
X15682D01*
Y-178182D01*
X13281D01*
Y-162911D01*
X13234Y-162677D01*
X13602Y-158945D01*
X14759Y-155131D01*
X15185Y-154333D01*
X17530Y-154642D01*
X20543Y-154245D01*
X23350Y-153082D01*
X25760Y-151232D01*
X27610Y-148822D01*
X28773Y-146014D01*
X28928Y-144839D01*
X40960D01*
Y-150240D01*
X56040D01*
Y-129160D01*
X53639D01*
Y-104060D01*
X61340D01*
Y-88980D01*
D02*
G37*
G36*
X86500Y-128700D02*
X82000D01*
Y-136200D01*
X86500D01*
Y-128700D01*
D02*
G37*
G36*
X75000D02*
X70500D01*
Y-136200D01*
X75000D01*
Y-128700D01*
D02*
G37*
G36*
X-473400Y-115000D02*
X-481900D01*
Y-123500D01*
X-473400D01*
Y-115000D01*
D02*
G37*
G36*
X88655Y-120340D02*
X82240D01*
Y-126755D01*
X84035Y-126012D01*
X86229Y-124329D01*
X87912Y-122135D01*
X88655Y-120340D01*
D02*
G37*
G36*
X75240D02*
X68825D01*
X69568Y-122135D01*
X71251Y-124329D01*
X73445Y-126012D01*
X75240Y-126755D01*
Y-120340D01*
D02*
G37*
G36*
X-458361Y-79700D02*
X-466400D01*
Y-87739D01*
X-463848Y-86682D01*
X-461342Y-84759D01*
X-459418Y-82252D01*
X-458361Y-79700D01*
D02*
G37*
G36*
X-473400D02*
X-481439D01*
X-480382Y-82252D01*
X-478459Y-84759D01*
X-475952Y-86682D01*
X-473400Y-87739D01*
Y-79700D01*
D02*
G37*
G36*
X-36770Y-80970D02*
X-44809D01*
X-43752Y-83522D01*
X-41828Y-86028D01*
X-39322Y-87952D01*
X-36770Y-89009D01*
Y-80970D01*
D02*
G37*
G36*
Y-65931D02*
X-39322Y-66988D01*
X-41828Y-68911D01*
X-43752Y-71418D01*
X-44809Y-73970D01*
X-36770D01*
Y-65931D01*
D02*
G37*
G36*
X-295901Y-73604D02*
X-302316D01*
Y-80019D01*
X-300521Y-79276D01*
X-298327Y-77593D01*
X-296644Y-75399D01*
X-295901Y-73604D01*
D02*
G37*
G36*
X-309316D02*
X-315731D01*
X-314988Y-75399D01*
X-313305Y-77593D01*
X-311111Y-79276D01*
X-309316Y-80019D01*
Y-73604D01*
D02*
G37*
G36*
X-423560Y-95680D02*
X-428060D01*
Y-103180D01*
X-423560D01*
Y-95680D01*
D02*
G37*
G36*
X-435060D02*
X-439560D01*
Y-103180D01*
X-435060D01*
Y-95680D01*
D02*
G37*
G36*
X-21731Y-80970D02*
X-29770D01*
Y-89009D01*
X-27218Y-87952D01*
X-24711Y-86028D01*
X-22788Y-83522D01*
X-21731Y-80970D01*
D02*
G37*
G36*
X-457900Y-130500D02*
X-466400D01*
Y-139000D01*
X-457900D01*
Y-130500D01*
D02*
G37*
G36*
X-173850Y-151560D02*
X-178350D01*
Y-159060D01*
X-173850D01*
Y-151560D01*
D02*
G37*
G36*
X-185350D02*
X-189850D01*
Y-159060D01*
X-185350D01*
Y-151560D01*
D02*
G37*
G36*
X-469900Y-140760D02*
X-472912Y-141157D01*
X-475720Y-142320D01*
X-478130Y-144170D01*
X-479980Y-146580D01*
X-481143Y-149388D01*
X-481539Y-152400D01*
X-481143Y-155413D01*
X-479980Y-158220D01*
X-478130Y-160630D01*
X-475720Y-162480D01*
X-472912Y-163643D01*
X-469900Y-164039D01*
X-466888Y-163643D01*
X-464080Y-162480D01*
X-461670Y-160630D01*
X-459820Y-158220D01*
X-458657Y-155413D01*
X-458260Y-152400D01*
X-458657Y-149388D01*
X-459820Y-146580D01*
X-461670Y-144170D01*
X-464080Y-142320D01*
X-466888Y-141157D01*
X-469900Y-140760D01*
D02*
G37*
G36*
X-36770Y-146502D02*
X-44809D01*
X-43752Y-149054D01*
X-41828Y-151560D01*
X-39322Y-153484D01*
X-36770Y-154541D01*
Y-146502D01*
D02*
G37*
G36*
X-21731D02*
X-29770D01*
Y-154541D01*
X-27218Y-153484D01*
X-24711Y-151560D01*
X-22788Y-149054D01*
X-21731Y-146502D01*
D02*
G37*
G36*
X-173850Y-166060D02*
X-178350D01*
Y-173560D01*
X-173850D01*
Y-166060D01*
D02*
G37*
G36*
X217876Y-175251D02*
Y-181666D01*
X224291D01*
X223548Y-179871D01*
X221865Y-177677D01*
X219671Y-175994D01*
X217876Y-175251D01*
D02*
G37*
G36*
X210876D02*
X209081Y-175994D01*
X206887Y-177677D01*
X205204Y-179871D01*
X204461Y-181666D01*
X210876D01*
Y-175251D01*
D02*
G37*
G36*
X-185350Y-166060D02*
X-189850D01*
Y-173560D01*
X-185350D01*
Y-166060D01*
D02*
G37*
G36*
X-103180Y-174235D02*
Y-180650D01*
X-96765D01*
X-97508Y-178855D01*
X-99191Y-176661D01*
X-101385Y-174978D01*
X-103180Y-174235D01*
D02*
G37*
G36*
X-110180D02*
X-111975Y-174978D01*
X-114169Y-176661D01*
X-115852Y-178855D01*
X-116595Y-180650D01*
X-110180D01*
Y-174235D01*
D02*
G37*
G36*
X-29770Y-131463D02*
Y-139502D01*
X-21731D01*
X-22788Y-136950D01*
X-24711Y-134444D01*
X-27218Y-132520D01*
X-29770Y-131463D01*
D02*
G37*
G36*
X-36770Y-131463D02*
X-39322Y-132520D01*
X-41828Y-134444D01*
X-43752Y-136950D01*
X-44809Y-139502D01*
X-36770D01*
Y-131463D01*
D02*
G37*
G36*
X-473400Y-130500D02*
X-481900D01*
Y-139000D01*
X-473400D01*
Y-130500D01*
D02*
G37*
G36*
X166060Y-131461D02*
Y-139500D01*
X174099D01*
X173042Y-136948D01*
X171119Y-134441D01*
X168612Y-132518D01*
X166060Y-131461D01*
D02*
G37*
G36*
X159060D02*
X156508Y-132518D01*
X154002Y-134441D01*
X152078Y-136948D01*
X151021Y-139500D01*
X159060D01*
Y-131461D01*
D02*
G37*
G36*
X75000Y-143200D02*
X70500D01*
Y-150700D01*
X75000D01*
Y-143200D01*
D02*
G37*
G36*
X174099Y-146500D02*
X166060D01*
Y-154539D01*
X168612Y-153482D01*
X171119Y-151559D01*
X173042Y-149052D01*
X174099Y-146500D01*
D02*
G37*
G36*
X159060D02*
X151021D01*
X152078Y-149052D01*
X154002Y-151559D01*
X156508Y-153482D01*
X159060Y-154539D01*
Y-146500D01*
D02*
G37*
G36*
X86500Y-143200D02*
X82000D01*
Y-150700D01*
X86500D01*
Y-143200D01*
D02*
G37*
G36*
X-104450Y-9135D02*
Y-15550D01*
X-98035D01*
X-98778Y-13755D01*
X-100461Y-11561D01*
X-102655Y-9878D01*
X-104450Y-9135D01*
D02*
G37*
G36*
X-111450D02*
X-113245Y-9878D01*
X-115439Y-11561D01*
X-117122Y-13755D01*
X-117865Y-15550D01*
X-111450D01*
Y-9135D01*
D02*
G37*
G36*
X241610Y-5325D02*
X239815Y-6068D01*
X237621Y-7751D01*
X235938Y-9945D01*
X235195Y-11740D01*
X241610D01*
Y-5325D01*
D02*
G37*
G36*
X-66350Y-9135D02*
Y-15550D01*
X-59935D01*
X-60678Y-13755D01*
X-62361Y-11561D01*
X-64555Y-9878D01*
X-66350Y-9135D01*
D02*
G37*
G36*
X-73350D02*
X-75145Y-9878D01*
X-77339Y-11561D01*
X-79022Y-13755D01*
X-79765Y-15550D01*
X-73350D01*
Y-9135D01*
D02*
G37*
G36*
X-473400Y-13861D02*
X-475952Y-14918D01*
X-478459Y-16841D01*
X-480382Y-19348D01*
X-481439Y-21900D01*
X-473400D01*
Y-13861D01*
D02*
G37*
G36*
X10470D02*
X7918Y-14918D01*
X5411Y-16841D01*
X3488Y-19348D01*
X2431Y-21900D01*
X10470D01*
Y-13861D01*
D02*
G37*
G36*
X255025Y-18740D02*
X248610D01*
Y-25155D01*
X250405Y-24412D01*
X252599Y-22729D01*
X254282Y-20535D01*
X255025Y-18740D01*
D02*
G37*
G36*
X-44760Y-3681D02*
Y-18090D01*
X-40152D01*
Y-9090D01*
X-40579Y-6944D01*
X-41795Y-5125D01*
X-43614Y-3909D01*
X-44760Y-3681D01*
D02*
G37*
G36*
X-51760D02*
X-52906Y-3909D01*
X-54725Y-5125D01*
X-55941Y-6944D01*
X-56368Y-9090D01*
Y-18090D01*
X-51760D01*
Y-3681D01*
D02*
G37*
G36*
X17470Y-13861D02*
Y-21900D01*
X25509D01*
X24452Y-19348D01*
X22529Y-16841D01*
X20022Y-14918D01*
X17470Y-13861D01*
D02*
G37*
G36*
X-122702Y21900D02*
X-127310D01*
Y7491D01*
X-126164Y7719D01*
X-124345Y8935D01*
X-123129Y10754D01*
X-122702Y12900D01*
Y21900D01*
D02*
G37*
G36*
X-134310D02*
X-138918D01*
Y12900D01*
X-138491Y10754D01*
X-137275Y8935D01*
X-135456Y7719D01*
X-134310Y7491D01*
Y21900D01*
D02*
G37*
G36*
X69540Y9915D02*
Y3500D01*
X75955D01*
X75212Y5295D01*
X73529Y7489D01*
X71335Y9172D01*
X69540Y9915D01*
D02*
G37*
G36*
X75955Y-3500D02*
X69540D01*
Y-9915D01*
X71335Y-9172D01*
X73529Y-7489D01*
X75212Y-5295D01*
X75955Y-3500D01*
D02*
G37*
G36*
X62540D02*
X56125D01*
X56868Y-5295D01*
X58551Y-7489D01*
X60745Y-9172D01*
X62540Y-9915D01*
Y-3500D01*
D02*
G37*
G36*
X248610Y-5325D02*
Y-11740D01*
X255025D01*
X254282Y-9945D01*
X252599Y-7751D01*
X250405Y-6068D01*
X248610Y-5325D01*
D02*
G37*
G36*
X62540Y9915D02*
X60745Y9172D01*
X58551Y7489D01*
X56868Y5295D01*
X56125Y3500D01*
X62540D01*
Y9915D01*
D02*
G37*
G36*
X-423560Y1580D02*
X-428060D01*
Y-5920D01*
X-423560D01*
Y1580D01*
D02*
G37*
G36*
X-469900Y62439D02*
X-472912Y62043D01*
X-475720Y60880D01*
X-478130Y59030D01*
X-479980Y56620D01*
X-481143Y53812D01*
X-481539Y50800D01*
X-481143Y47787D01*
X-479980Y44980D01*
X-478130Y42570D01*
X-475720Y40720D01*
X-472912Y39557D01*
X-469900Y39160D01*
X-466888Y39557D01*
X-464410Y40583D01*
X-460653Y36826D01*
X-460455Y36693D01*
X-458075Y33794D01*
X-456197Y30279D01*
X-455040Y26465D01*
X-454672Y22733D01*
X-454719Y22499D01*
Y0D01*
X-454683Y-177D01*
X-454378Y-3279D01*
X-453422Y-6431D01*
X-452113Y-8880D01*
X-453174Y-9589D01*
X-453864Y-8748D01*
X-453875Y-8758D01*
X-458939Y-3694D01*
X-458657Y-3013D01*
X-458260Y0D01*
X-458657Y3013D01*
X-459820Y5820D01*
X-461670Y8230D01*
X-464080Y10080D01*
X-466888Y11243D01*
X-469900Y11639D01*
X-472912Y11243D01*
X-475720Y10080D01*
X-478130Y8230D01*
X-479980Y5820D01*
X-481143Y3013D01*
X-481539Y0D01*
X-481143Y-3013D01*
X-479980Y-5820D01*
X-478130Y-8230D01*
X-475720Y-10080D01*
X-472912Y-11243D01*
X-469900Y-11639D01*
X-466888Y-11243D01*
X-466206Y-10961D01*
X-463465Y-13702D01*
X-464185Y-14779D01*
X-466400Y-13861D01*
Y-25400D01*
Y-36939D01*
X-463848Y-35882D01*
X-461342Y-33958D01*
X-459418Y-31452D01*
X-458529Y-29305D01*
X-457259Y-29557D01*
Y-42128D01*
X-457278D01*
X-456807Y-45708D01*
X-455425Y-49043D01*
X-453228Y-51908D01*
X-450363Y-54105D01*
X-447028Y-55487D01*
X-443448Y-55958D01*
Y-55939D01*
X-439100D01*
Y-61340D01*
X-424020D01*
Y-40260D01*
X-439100D01*
Y-45661D01*
X-443448D01*
X-443549Y-45682D01*
X-444815Y-45430D01*
X-445889Y-44713D01*
X-445946Y-44626D01*
X-446032Y-44569D01*
X-446750Y-43495D01*
X-447001Y-42229D01*
X-446981Y-42128D01*
Y-25400D01*
X-446967D01*
X-447419Y-20806D01*
X-448759Y-16388D01*
X-450670Y-12814D01*
X-449638Y-12049D01*
X-439100Y-22587D01*
Y-33400D01*
X-424020D01*
Y-12320D01*
X-434833D01*
X-440248Y-6905D01*
X-439437Y-5920D01*
X-438341Y-5920D01*
X-435060D01*
Y1580D01*
X-439560D01*
Y-4656D01*
X-439560Y-5797D01*
X-440545Y-6608D01*
X-442524Y-4629D01*
X-442596Y-4581D01*
X-443588Y-3287D01*
X-444245Y-1701D01*
X-444458Y-85D01*
X-444441Y0D01*
Y22499D01*
X-444449Y22537D01*
X-444822Y27276D01*
X-445940Y31934D01*
X-447774Y36361D01*
X-450277Y40447D01*
X-453364Y44061D01*
X-453386Y44093D01*
X-458474Y49181D01*
X-458260Y50800D01*
X-458657Y53812D01*
X-459820Y56620D01*
X-461670Y59030D01*
X-464080Y60880D01*
X-466888Y62043D01*
X-469900Y62439D01*
D02*
G37*
G36*
X-51760Y-25090D02*
X-56368D01*
Y-34090D01*
X-55941Y-36236D01*
X-54725Y-38055D01*
X-52906Y-39271D01*
X-51760Y-39499D01*
Y-25090D01*
D02*
G37*
G36*
X-469900Y-39160D02*
X-472912Y-39557D01*
X-475720Y-40720D01*
X-478130Y-42570D01*
X-479980Y-44980D01*
X-481143Y-47787D01*
X-481539Y-50800D01*
X-481143Y-53812D01*
X-479980Y-56620D01*
X-478130Y-59030D01*
X-475720Y-60880D01*
X-472912Y-62043D01*
X-469900Y-62439D01*
X-466888Y-62043D01*
X-466206Y-61761D01*
X-463465Y-64502D01*
X-464185Y-65579D01*
X-466400Y-64661D01*
Y-72700D01*
X-458361D01*
X-459279Y-70485D01*
X-458202Y-69765D01*
X-452948Y-75020D01*
X-452909Y-75046D01*
X-449335Y-78098D01*
X-449151Y-79193D01*
X-449604Y-79746D01*
X-451002Y-82361D01*
X-451862Y-85198D01*
X-452127Y-87890D01*
X-452179Y-88148D01*
Y-127000D01*
X-452189D01*
X-451754Y-130305D01*
X-450479Y-133385D01*
X-448449Y-136029D01*
X-445805Y-138059D01*
X-442725Y-139334D01*
X-439420Y-139769D01*
X-439100Y-140907D01*
Y-145160D01*
X-424020D01*
Y-124080D01*
X-439100D01*
Y-128162D01*
X-440118Y-128936D01*
X-441308Y-128589D01*
X-441731Y-127957D01*
X-441911Y-127050D01*
X-441901Y-127000D01*
Y-88148D01*
X-441935Y-87981D01*
X-441592Y-86258D01*
X-440521Y-84656D01*
X-440220Y-84455D01*
X-439100Y-85053D01*
Y-89280D01*
X-424020D01*
Y-68200D01*
X-439100D01*
Y-70773D01*
X-440370Y-71534D01*
X-442692Y-70293D01*
X-445550Y-67947D01*
X-445680Y-67752D01*
X-458939Y-54494D01*
X-458657Y-53812D01*
X-458260Y-50800D01*
X-458657Y-47787D01*
X-459820Y-44980D01*
X-461670Y-42570D01*
X-464080Y-40720D01*
X-466888Y-39557D01*
X-469900Y-39160D01*
D02*
G37*
G36*
X-40152Y-25090D02*
X-44760D01*
Y-39499D01*
X-43614Y-39271D01*
X-41795Y-38055D01*
X-40579Y-36236D01*
X-40152Y-34090D01*
Y-25090D01*
D02*
G37*
G36*
X-302316Y-60189D02*
Y-66604D01*
X-295901D01*
X-296644Y-64809D01*
X-298327Y-62615D01*
X-300521Y-60932D01*
X-302316Y-60189D01*
D02*
G37*
G36*
X-473400Y-64661D02*
X-475952Y-65718D01*
X-478459Y-67642D01*
X-480382Y-70148D01*
X-481439Y-72700D01*
X-473400D01*
Y-64661D01*
D02*
G37*
G36*
X-29770Y-65931D02*
Y-73970D01*
X-21731D01*
X-22788Y-71418D01*
X-24711Y-68911D01*
X-27218Y-66988D01*
X-29770Y-65931D01*
D02*
G37*
G36*
X-309316Y-60189D02*
X-311111Y-60932D01*
X-313305Y-62615D01*
X-314988Y-64809D01*
X-315731Y-66604D01*
X-309316D01*
Y-60189D01*
D02*
G37*
G36*
X-59935Y-22550D02*
X-66350D01*
Y-28965D01*
X-64555Y-28222D01*
X-62361Y-26539D01*
X-60678Y-24345D01*
X-59935Y-22550D01*
D02*
G37*
G36*
X-73350D02*
X-79765D01*
X-79022Y-24345D01*
X-77339Y-26539D01*
X-75145Y-28222D01*
X-73350Y-28965D01*
Y-22550D01*
D02*
G37*
G36*
X-98035D02*
X-104450D01*
Y-28965D01*
X-102655Y-28222D01*
X-100461Y-26539D01*
X-98778Y-24345D01*
X-98035Y-22550D01*
D02*
G37*
G36*
X241610Y-18740D02*
X235195D01*
X235938Y-20535D01*
X237621Y-22729D01*
X239815Y-24412D01*
X241610Y-25155D01*
Y-18740D01*
D02*
G37*
G36*
X-111450Y-22550D02*
X-117865D01*
X-117122Y-24345D01*
X-115439Y-26539D01*
X-113245Y-28222D01*
X-111450Y-28965D01*
Y-22550D01*
D02*
G37*
G36*
X25509Y-28900D02*
X17470D01*
Y-36939D01*
X20022Y-35882D01*
X22529Y-33958D01*
X24452Y-31452D01*
X25509Y-28900D01*
D02*
G37*
G36*
X-473400D02*
X-481439D01*
X-480382Y-31452D01*
X-478459Y-33958D01*
X-475952Y-35882D01*
X-473400Y-36939D01*
Y-28900D01*
D02*
G37*
G36*
X10470D02*
X2431D01*
X3488Y-31452D01*
X5411Y-33958D01*
X7918Y-35882D01*
X10470Y-36939D01*
Y-28900D01*
D02*
G37*
G36*
X-424020Y-152020D02*
X-439100D01*
Y-173100D01*
X-436699D01*
Y-179706D01*
X-439100D01*
Y-200786D01*
X-424020D01*
Y-179706D01*
X-426421D01*
Y-173100D01*
X-424020D01*
Y-152020D01*
D02*
G37*
G36*
X-223840D02*
X-238920D01*
Y-173100D01*
X-236519D01*
Y-179960D01*
X-238920D01*
Y-201040D01*
X-223840D01*
Y-179960D01*
X-226241D01*
Y-173100D01*
X-223840D01*
Y-152020D01*
D02*
G37*
G36*
X-393560Y-193746D02*
X-398060D01*
Y-201246D01*
X-393560D01*
Y-193746D01*
D02*
G37*
G36*
X210876Y-188666D02*
X204461D01*
X205204Y-190461D01*
X206887Y-192655D01*
X209081Y-194338D01*
X210876Y-195081D01*
Y-188666D01*
D02*
G37*
G36*
X-253380Y-194000D02*
X-257880D01*
Y-201500D01*
X-253380D01*
Y-194000D01*
D02*
G37*
G36*
X-264880D02*
X-269380D01*
Y-201500D01*
X-264880D01*
Y-194000D01*
D02*
G37*
G36*
X-405060Y-193746D02*
X-409560D01*
Y-201246D01*
X-405060D01*
Y-193746D01*
D02*
G37*
G36*
X-173850Y-194000D02*
X-178350D01*
Y-201500D01*
X-173850D01*
Y-194000D01*
D02*
G37*
G36*
X-185350D02*
X-189850D01*
Y-201500D01*
X-185350D01*
Y-194000D01*
D02*
G37*
G36*
X224291Y-188666D02*
X217876D01*
Y-195081D01*
X219671Y-194338D01*
X221865Y-192655D01*
X223548Y-190461D01*
X224291Y-188666D01*
D02*
G37*
G36*
X-253380Y-179500D02*
X-257880D01*
Y-187000D01*
X-253380D01*
Y-179500D01*
D02*
G37*
G36*
X-264880D02*
X-269380D01*
Y-187000D01*
X-264880D01*
Y-179500D01*
D02*
G37*
G36*
X-185350D02*
X-189850D01*
Y-187000D01*
X-185350D01*
Y-179500D01*
D02*
G37*
G36*
X-393560Y-179246D02*
X-398060D01*
Y-186746D01*
X-393560D01*
Y-179246D01*
D02*
G37*
G36*
X-405060D02*
X-409560D01*
Y-186746D01*
X-405060D01*
Y-179246D01*
D02*
G37*
G36*
X-173850Y-179500D02*
X-178350D01*
Y-187000D01*
X-173850D01*
Y-179500D01*
D02*
G37*
G36*
X-366820Y-186013D02*
X-366850Y-186026D01*
X-368312Y-187148D01*
X-369435Y-188610D01*
X-370140Y-190313D01*
X-370380Y-192140D01*
Y-192640D01*
X-366820D01*
Y-186013D01*
D02*
G37*
G36*
X-96765Y-187650D02*
X-103180D01*
Y-194065D01*
X-101385Y-193322D01*
X-99191Y-191639D01*
X-97508Y-189445D01*
X-96765Y-187650D01*
D02*
G37*
G36*
X-110180D02*
X-116595D01*
X-115852Y-189445D01*
X-114169Y-191639D01*
X-111975Y-193322D01*
X-110180Y-194065D01*
Y-187650D01*
D02*
G37*
G36*
X-350620Y-185544D02*
X-352327Y-185768D01*
X-353918Y-186427D01*
X-355284Y-187476D01*
X-355944Y-188336D01*
X-356357Y-188425D01*
X-357346Y-188345D01*
X-357446Y-188296D01*
X-358328Y-187148D01*
X-359790Y-186026D01*
X-359820Y-186013D01*
Y-196140D01*
Y-206267D01*
X-359790Y-206255D01*
X-358328Y-205132D01*
X-357446Y-203984D01*
X-357346Y-203935D01*
X-356357Y-203855D01*
X-355944Y-203944D01*
X-355284Y-204804D01*
X-353918Y-205853D01*
X-352327Y-206512D01*
X-350620Y-206736D01*
X-348913Y-206512D01*
X-347322Y-205853D01*
X-345956Y-204804D01*
X-345296Y-203944D01*
X-344884Y-203855D01*
X-343894Y-203935D01*
X-343794Y-203984D01*
X-342912Y-205132D01*
X-341450Y-206255D01*
X-341420Y-206267D01*
Y-196140D01*
Y-186013D01*
X-341450Y-186026D01*
X-342912Y-187148D01*
X-343794Y-188296D01*
X-343894Y-188345D01*
X-344884Y-188425D01*
X-345296Y-188336D01*
X-345956Y-187476D01*
X-347322Y-186427D01*
X-348913Y-185768D01*
X-350620Y-185544D01*
D02*
G37*
G36*
X-469900Y-166160D02*
X-472912Y-166557D01*
X-475720Y-167720D01*
X-478130Y-169570D01*
X-479980Y-171980D01*
X-481143Y-174788D01*
X-481539Y-177800D01*
X-481143Y-180812D01*
X-479980Y-183620D01*
X-478130Y-186030D01*
X-475720Y-187880D01*
X-472912Y-189043D01*
X-469900Y-189440D01*
X-466888Y-189043D01*
X-464080Y-187880D01*
X-461670Y-186030D01*
X-459820Y-183620D01*
X-458657Y-180812D01*
X-458260Y-177800D01*
X-458657Y-174788D01*
X-459820Y-171980D01*
X-461670Y-169570D01*
X-464080Y-167720D01*
X-466888Y-166557D01*
X-469900Y-166160D01*
D02*
G37*
G36*
X-283620Y-186013D02*
Y-192640D01*
X-280060D01*
Y-192140D01*
X-280300Y-190313D01*
X-281006Y-188610D01*
X-282128Y-187148D01*
X-283590Y-186026D01*
X-283620Y-186013D01*
D02*
G37*
G36*
X-469900Y-191560D02*
X-472912Y-191957D01*
X-475720Y-193120D01*
X-478130Y-194970D01*
X-479980Y-197380D01*
X-481143Y-200187D01*
X-481539Y-203200D01*
X-481143Y-206213D01*
X-479980Y-209020D01*
X-478130Y-211430D01*
X-475720Y-213280D01*
X-472912Y-214443D01*
X-469900Y-214839D01*
X-466888Y-214443D01*
X-464080Y-213280D01*
X-461670Y-211430D01*
X-459820Y-209020D01*
X-458657Y-206213D01*
X-458260Y-203200D01*
X-458657Y-200187D01*
X-459820Y-197380D01*
X-461670Y-194970D01*
X-464080Y-193120D01*
X-466888Y-191957D01*
X-469900Y-191560D01*
D02*
G37*
G36*
X-280060Y-199640D02*
X-283620D01*
Y-206267D01*
X-283590Y-206255D01*
X-282128Y-205132D01*
X-281006Y-203670D01*
X-280300Y-201967D01*
X-280060Y-200140D01*
Y-199640D01*
D02*
G37*
G36*
X-366820D02*
X-370380D01*
Y-200140D01*
X-370140Y-201967D01*
X-369435Y-203670D01*
X-368312Y-205132D01*
X-366850Y-206255D01*
X-366820Y-206267D01*
Y-199640D01*
D02*
G37*
G36*
X88010Y-88740D02*
X66930D01*
Y-103820D01*
X88010D01*
Y-101419D01*
X101360D01*
X101547Y-101382D01*
X103402Y-101751D01*
X105133Y-102907D01*
X106289Y-104638D01*
X106658Y-106493D01*
X106621Y-106680D01*
Y-132638D01*
X105940Y-132920D01*
X103530Y-134770D01*
X103332Y-135027D01*
X101776Y-136066D01*
X100662Y-137733D01*
X100271Y-139700D01*
X100442Y-140558D01*
X100120Y-143000D01*
X100517Y-146012D01*
X101680Y-148820D01*
X103530Y-151230D01*
X105940Y-153080D01*
X106621Y-153362D01*
Y-178560D01*
X106671Y-178811D01*
X106940Y-181540D01*
X107809Y-184405D01*
X109221Y-187045D01*
X111120Y-189360D01*
X113434Y-191259D01*
X114380Y-191765D01*
Y-199260D01*
X116527D01*
Y-204978D01*
X116560Y-205140D01*
X116224Y-206827D01*
X115177Y-208395D01*
X113609Y-209442D01*
X111922Y-209778D01*
X111760Y-209745D01*
X15680D01*
Y-204090D01*
X600D01*
Y-225170D01*
X15680D01*
Y-220023D01*
X111760D01*
X112023Y-219970D01*
X114690Y-219708D01*
X117507Y-218853D01*
X120104Y-217465D01*
X122380Y-215597D01*
X124247Y-213322D01*
X125635Y-210725D01*
X126490Y-207908D01*
X126752Y-205241D01*
X126805Y-204978D01*
Y-199260D01*
X129460D01*
Y-178180D01*
X116899D01*
Y-153362D01*
X117580Y-153080D01*
X119990Y-151230D01*
X121840Y-148820D01*
X123003Y-146012D01*
X123399Y-143000D01*
X123003Y-139987D01*
X121840Y-137180D01*
X119990Y-134770D01*
X117580Y-132920D01*
X116899Y-132638D01*
Y-106680D01*
X116851Y-106441D01*
X116577Y-103653D01*
X115694Y-100743D01*
X114260Y-98061D01*
X112331Y-95709D01*
X109979Y-93780D01*
X107297Y-92346D01*
X104387Y-91463D01*
X101599Y-91189D01*
X101360Y-91141D01*
X88010D01*
Y-88740D01*
D02*
G37*
G36*
X-340036Y-228798D02*
X-344536D01*
Y-236298D01*
X-340036D01*
Y-228798D01*
D02*
G37*
G36*
X-328536Y-214298D02*
X-333036D01*
Y-221798D01*
X-328536D01*
Y-214298D01*
D02*
G37*
G36*
X-340036D02*
X-344536D01*
Y-221798D01*
X-340036D01*
Y-214298D01*
D02*
G37*
G36*
X-328536Y-228798D02*
X-333036D01*
Y-236298D01*
X-328536D01*
Y-228798D01*
D02*
G37*
G36*
X175570Y21900D02*
X170962D01*
Y12900D01*
X171389Y10754D01*
X172605Y8935D01*
X174424Y7719D01*
X175570Y7491D01*
Y21900D01*
D02*
G37*
G36*
X-152600Y190988D02*
X-161600D01*
Y186380D01*
X-147191D01*
X-147419Y187526D01*
X-148635Y189345D01*
X-150454Y190561D01*
X-152600Y190988D01*
D02*
G37*
G36*
X-93551Y208844D02*
X-102672D01*
Y199723D01*
X-99616Y200989D01*
X-96900Y203072D01*
X-94817Y205788D01*
X-93551Y208844D01*
D02*
G37*
G36*
X-109672D02*
X-118793D01*
X-117528Y205788D01*
X-115444Y203072D01*
X-112728Y200989D01*
X-109672Y199723D01*
Y208844D01*
D02*
G37*
G36*
X-331922Y202574D02*
X-341480D01*
Y202324D01*
X-341248Y200562D01*
X-340568Y198920D01*
X-339486Y197510D01*
X-338076Y196428D01*
X-336434Y195748D01*
X-334672Y195516D01*
X-331922D01*
Y202574D01*
D02*
G37*
G36*
X-168600Y190988D02*
X-177600D01*
X-179746Y190561D01*
X-181565Y189345D01*
X-182781Y187526D01*
X-183009Y186380D01*
X-168600D01*
Y190988D01*
D02*
G37*
G36*
X-147191Y179380D02*
X-161600D01*
Y174772D01*
X-152600D01*
X-150454Y175199D01*
X-148635Y176415D01*
X-147419Y178234D01*
X-147191Y179380D01*
D02*
G37*
G36*
X-168600D02*
X-183009D01*
X-182781Y178234D01*
X-181565Y176415D01*
X-179746Y175199D01*
X-177600Y174772D01*
X-168600D01*
Y179380D01*
D02*
G37*
G36*
X-407462Y190759D02*
X-416461D01*
Y186151D01*
X-402053D01*
X-402281Y187297D01*
X-403496Y189116D01*
X-405316Y190332D01*
X-407462Y190759D01*
D02*
G37*
G36*
X-423461D02*
X-432462D01*
X-434608Y190332D01*
X-436427Y189116D01*
X-437642Y187297D01*
X-437870Y186151D01*
X-423461D01*
Y190759D01*
D02*
G37*
G36*
X-102672Y224965D02*
Y215844D01*
X-93551D01*
X-94817Y218900D01*
X-96900Y221616D01*
X-99616Y223699D01*
X-102672Y224965D01*
D02*
G37*
G36*
X-109672D02*
X-112728Y223699D01*
X-115444Y221616D01*
X-117528Y218900D01*
X-118793Y215844D01*
X-109672D01*
Y224965D01*
D02*
G37*
G36*
X210510Y223275D02*
Y216860D01*
X216925D01*
X216182Y218655D01*
X214499Y220849D01*
X212305Y222532D01*
X210510Y223275D01*
D02*
G37*
G36*
X203510D02*
X201715Y222532D01*
X199521Y220849D01*
X197838Y218655D01*
X197095Y216860D01*
X203510D01*
Y223275D01*
D02*
G37*
G36*
Y209860D02*
X197095D01*
X197838Y208065D01*
X199521Y205871D01*
X201715Y204188D01*
X203510Y203445D01*
Y209860D01*
D02*
G37*
G36*
X-445262Y239500D02*
X-447491Y239206D01*
X-449569Y238346D01*
X-451353Y236977D01*
X-452722Y235193D01*
X-453582Y233115D01*
X-453876Y230886D01*
X-453582Y228657D01*
X-452722Y226579D01*
X-451675Y225215D01*
Y209613D01*
X-458360D01*
Y214740D01*
X-481440D01*
Y191660D01*
X-458360D01*
Y196787D01*
X-383656D01*
X-379385Y192515D01*
Y190290D01*
X-385471D01*
X-387438Y189899D01*
X-389105Y188785D01*
X-390219Y187118D01*
X-390610Y185151D01*
Y180151D01*
X-390219Y178185D01*
X-389105Y176518D01*
X-387438Y175404D01*
X-385471Y175012D01*
X-379385D01*
Y171042D01*
X-378896Y168587D01*
X-378765Y168391D01*
X-379119Y168119D01*
X-380728Y166022D01*
X-381740Y163580D01*
X-382085Y160958D01*
X-381740Y158337D01*
X-380728Y155895D01*
X-379119Y153798D01*
X-377021Y152189D01*
X-374579Y151177D01*
X-371958Y150832D01*
X-369337Y151177D01*
X-366895Y152189D01*
X-364798Y153798D01*
X-364412Y154300D01*
X-362204Y153861D01*
X-340457D01*
X-339207Y151989D01*
X-337126Y150599D01*
X-334672Y150111D01*
X-322172D01*
X-319718Y150599D01*
X-317637Y151989D01*
X-316247Y154070D01*
X-315759Y156524D01*
Y164024D01*
X-316247Y166478D01*
X-317637Y168559D01*
X-319718Y169949D01*
X-322172Y170437D01*
X-334672D01*
X-337126Y169949D01*
X-339207Y168559D01*
X-340457Y166687D01*
X-359548D01*
X-366558Y173698D01*
Y175012D01*
X-360471D01*
X-358505Y175404D01*
X-356838Y176518D01*
X-355724Y178185D01*
X-355333Y180151D01*
Y185151D01*
X-355724Y187118D01*
X-356838Y188785D01*
X-358505Y189899D01*
X-360471Y190290D01*
X-366558D01*
Y195172D01*
X-367046Y197626D01*
X-368437Y199706D01*
X-376465Y207735D01*
X-378546Y209125D01*
X-381000Y209613D01*
X-438849D01*
Y225215D01*
X-437802Y226579D01*
X-436942Y228657D01*
X-436648Y230886D01*
X-436942Y233115D01*
X-437802Y235193D01*
X-439171Y236977D01*
X-440955Y238346D01*
X-443033Y239206D01*
X-445262Y239500D01*
D02*
G37*
G36*
X-331922Y216632D02*
X-334672D01*
X-336434Y216400D01*
X-338076Y215720D01*
X-339486Y214638D01*
X-340568Y213228D01*
X-341248Y211586D01*
X-341480Y209824D01*
Y209574D01*
X-331922D01*
Y216632D01*
D02*
G37*
G36*
X216925Y209860D02*
X210510D01*
Y203445D01*
X212305Y204188D01*
X214499Y205871D01*
X216182Y208065D01*
X216925Y209860D01*
D02*
G37*
G36*
X-73350Y35315D02*
X-75145Y34572D01*
X-77339Y32889D01*
X-79022Y30695D01*
X-79765Y28900D01*
X-73350D01*
Y35315D01*
D02*
G37*
G36*
X-104450D02*
Y28900D01*
X-98035D01*
X-98778Y30695D01*
X-100461Y32889D01*
X-102655Y34572D01*
X-104450Y35315D01*
D02*
G37*
G36*
X-111450D02*
X-113245Y34572D01*
X-115439Y32889D01*
X-117122Y30695D01*
X-117865Y28900D01*
X-111450D01*
Y35315D01*
D02*
G37*
G36*
X159710D02*
Y28900D01*
X166125D01*
X165382Y30695D01*
X163699Y32889D01*
X161505Y34572D01*
X159710Y35315D01*
D02*
G37*
G36*
X152710D02*
X150915Y34572D01*
X148721Y32889D01*
X147038Y30695D01*
X146295Y28900D01*
X152710D01*
Y35315D01*
D02*
G37*
G36*
X-66350D02*
Y28900D01*
X-59935D01*
X-60678Y30695D01*
X-62361Y32889D01*
X-64555Y34572D01*
X-66350Y35315D01*
D02*
G37*
G36*
X-127310Y43309D02*
Y28900D01*
X-122702D01*
Y37900D01*
X-123129Y40046D01*
X-124345Y41865D01*
X-126164Y43081D01*
X-127310Y43309D01*
D02*
G37*
G36*
X114610Y36939D02*
X112058Y35882D01*
X109551Y33958D01*
X107628Y31452D01*
X106571Y28900D01*
X114610D01*
Y36939D01*
D02*
G37*
G36*
X-134310Y43309D02*
X-135456Y43081D01*
X-137275Y41865D01*
X-138491Y40046D01*
X-138918Y37900D01*
Y28900D01*
X-134310D01*
Y43309D01*
D02*
G37*
G36*
X-466400Y36939D02*
Y28900D01*
X-458361D01*
X-459418Y31452D01*
X-461342Y33958D01*
X-463848Y35882D01*
X-466400Y36939D01*
D02*
G37*
G36*
X-473400D02*
X-475952Y35882D01*
X-478459Y33958D01*
X-480382Y31452D01*
X-481439Y28900D01*
X-473400D01*
Y36939D01*
D02*
G37*
G36*
X-14318Y227202D02*
X-29398D01*
Y220217D01*
X-32175Y219066D01*
X-34876Y216994D01*
X-36948Y214293D01*
X-38251Y211147D01*
X-38696Y207772D01*
X-38663D01*
Y182934D01*
X-38646Y182848D01*
X-38939Y180626D01*
X-39829Y178475D01*
X-41193Y176699D01*
X-41265Y176651D01*
X-169003Y48912D01*
X-169108Y48756D01*
X-172197Y46220D01*
X-175886Y44248D01*
X-179889Y43034D01*
X-183867Y42642D01*
X-184051Y42679D01*
X-253325D01*
Y42711D01*
X-257825Y42268D01*
X-262152Y40955D01*
X-266140Y38824D01*
X-269635Y35955D01*
X-269635Y35955D01*
X-270572Y35151D01*
X-271624Y34344D01*
X-273995Y33362D01*
X-276431Y33041D01*
X-276540Y33063D01*
X-278418D01*
X-279224Y34045D01*
X-279145Y34444D01*
Y36444D01*
X-279419Y37825D01*
X-280202Y38996D01*
X-281373Y39779D01*
X-282754Y40053D01*
X-290754D01*
X-292135Y39779D01*
X-292458Y39563D01*
X-299836D01*
Y39595D01*
X-303181Y39154D01*
X-306298Y37863D01*
X-308975Y35809D01*
X-311029Y33132D01*
X-312320Y30015D01*
X-312761Y26670D01*
X-312729D01*
Y-45212D01*
X-312755D01*
X-312337Y-48389D01*
X-311111Y-51349D01*
X-309160Y-53890D01*
X-306618Y-55841D01*
X-303659Y-57067D01*
X-300482Y-57485D01*
Y-57459D01*
X-290429D01*
X-290245Y-57422D01*
X-286267Y-57814D01*
X-282264Y-59028D01*
X-278575Y-61000D01*
X-275486Y-63536D01*
X-275381Y-63692D01*
X-269793Y-69280D01*
X-269969Y-70612D01*
X-269624Y-73233D01*
X-268612Y-75675D01*
X-267003Y-77773D01*
X-264905Y-79382D01*
X-262463Y-80394D01*
X-259842Y-80739D01*
X-258510Y-80563D01*
X-256732Y-82341D01*
X-256576Y-82446D01*
X-254040Y-85535D01*
X-252068Y-89224D01*
X-250854Y-93227D01*
X-250462Y-97205D01*
X-250499Y-97389D01*
Y-127000D01*
X-250464Y-127175D01*
X-250895Y-129338D01*
X-252219Y-131321D01*
X-254202Y-132645D01*
X-256365Y-133076D01*
X-256540Y-133041D01*
X-280602D01*
X-280748Y-131933D01*
X-281407Y-130342D01*
X-282456Y-128976D01*
X-283822Y-127927D01*
X-285413Y-127268D01*
X-287120Y-127044D01*
X-288827Y-127268D01*
X-290418Y-127927D01*
X-291784Y-128976D01*
X-292768Y-130257D01*
X-293450Y-130347D01*
X-293491D01*
X-294172Y-130257D01*
X-295156Y-128976D01*
X-296522Y-127927D01*
X-298113Y-127268D01*
X-299820Y-127044D01*
X-301527Y-127268D01*
X-303118Y-127927D01*
X-304484Y-128976D01*
X-305468Y-130257D01*
X-306150Y-130347D01*
X-306190D01*
X-306872Y-130257D01*
X-307381Y-129594D01*
Y-119068D01*
X-303993Y-115680D01*
X-288180D01*
Y-92600D01*
X-311260D01*
Y-108413D01*
X-315428Y-112580D01*
X-315523Y-112676D01*
X-316480Y-111837D01*
X-316375Y-111700D01*
X-315040Y-109960D01*
X-313877Y-107153D01*
X-313480Y-104140D01*
X-313877Y-101128D01*
X-315040Y-98320D01*
X-316890Y-95910D01*
X-319300Y-94060D01*
X-320244Y-93669D01*
X-320996Y-92710D01*
X-320826Y-91858D01*
X-320344Y-91136D01*
X-319622Y-90654D01*
X-318770Y-90484D01*
Y-90479D01*
X-270292D01*
X-270128Y-90447D01*
X-268039Y-90862D01*
X-266129Y-92139D01*
X-264852Y-94049D01*
X-264689Y-94870D01*
X-265731Y-96140D01*
X-268412D01*
Y-117220D01*
X-253332D01*
Y-96140D01*
X-256211D01*
X-256670Y-92652D01*
X-258079Y-89251D01*
X-260320Y-86330D01*
X-263241Y-84089D01*
X-266642Y-82680D01*
X-270292Y-82199D01*
Y-82241D01*
X-318770D01*
Y-82230D01*
X-321482Y-82587D01*
X-324010Y-83634D01*
X-326180Y-85300D01*
X-327846Y-87470D01*
X-328893Y-89998D01*
X-329250Y-92710D01*
X-329998Y-93670D01*
X-330940Y-94060D01*
X-333350Y-95910D01*
X-335200Y-98320D01*
X-336363Y-101128D01*
X-336760Y-104140D01*
X-336363Y-107153D01*
X-335200Y-109960D01*
X-333957Y-111579D01*
X-333760Y-111837D01*
X-334717Y-112676D01*
X-334932Y-112460D01*
X-339559Y-107834D01*
X-339277Y-107153D01*
X-338880Y-104140D01*
X-339277Y-101128D01*
X-340440Y-98320D01*
X-342290Y-95910D01*
X-344700Y-94060D01*
X-347508Y-92897D01*
X-350520Y-92500D01*
X-353532Y-92897D01*
X-356340Y-94060D01*
X-358750Y-95910D01*
X-360600Y-98320D01*
X-361763Y-101128D01*
X-362160Y-104140D01*
X-361763Y-107153D01*
X-360600Y-109960D01*
X-358750Y-112370D01*
X-356340Y-114220D01*
X-353532Y-115383D01*
X-350520Y-115779D01*
X-347508Y-115383D01*
X-346826Y-115101D01*
X-343059Y-118869D01*
Y-129594D01*
X-343568Y-130257D01*
X-344249Y-130347D01*
X-344291D01*
X-344972Y-130257D01*
X-345956Y-128976D01*
X-347322Y-127927D01*
X-348913Y-127268D01*
X-350620Y-127044D01*
X-352327Y-127268D01*
X-353918Y-127927D01*
X-355284Y-128976D01*
X-356300Y-130300D01*
X-356569Y-130342D01*
X-357421D01*
X-357690Y-130300D01*
X-358706Y-128976D01*
X-360072Y-127927D01*
X-361663Y-127268D01*
X-363370Y-127044D01*
X-364192Y-127152D01*
X-365137Y-124036D01*
X-365491Y-120441D01*
X-365447Y-120219D01*
Y-107188D01*
Y-102469D01*
X-365494Y-102235D01*
X-365126Y-98503D01*
X-363969Y-94689D01*
X-362090Y-91174D01*
X-359711Y-88275D01*
X-359513Y-88142D01*
X-334006Y-62635D01*
X-333984Y-62603D01*
X-330897Y-58988D01*
X-328394Y-54903D01*
X-326560Y-50476D01*
X-325442Y-45818D01*
X-325069Y-41079D01*
X-325061Y-41041D01*
Y-29773D01*
X-324109Y-29043D01*
X-322740Y-27259D01*
X-321880Y-25181D01*
X-321586Y-22952D01*
X-321880Y-20723D01*
X-322740Y-18645D01*
X-324109Y-16861D01*
X-325893Y-15492D01*
X-327971Y-14632D01*
X-330200Y-14338D01*
X-330608Y-14392D01*
X-331333Y-13836D01*
X-333872Y-12785D01*
X-336596Y-12426D01*
Y-12437D01*
X-339378D01*
X-340184Y-11455D01*
X-340105Y-11056D01*
Y-9056D01*
X-340379Y-7675D01*
X-340683Y-7220D01*
X-340574Y-7056D01*
X-340792D01*
X-341161Y-6503D01*
X-342333Y-5721D01*
X-343714Y-5446D01*
X-347714D01*
Y-1666D01*
X-343714D01*
X-342333Y-1391D01*
X-341161Y-609D01*
X-340792Y-56D01*
X-340574D01*
X-340683Y108D01*
X-340379Y563D01*
X-340105Y1944D01*
Y3944D01*
X-340184Y4343D01*
X-339670Y4969D01*
X-338536Y5297D01*
Y5297D01*
X-335305Y5723D01*
X-332295Y6970D01*
X-329709Y8953D01*
X-329472Y9262D01*
X-327971Y9460D01*
X-325893Y10320D01*
X-324109Y11689D01*
X-322740Y13473D01*
X-321880Y15551D01*
X-321586Y17780D01*
X-321880Y20009D01*
X-322740Y22087D01*
X-324109Y23871D01*
X-325893Y25240D01*
X-327971Y26100D01*
X-330200Y26394D01*
X-332429Y26100D01*
X-334507Y25240D01*
X-336291Y23871D01*
X-337660Y22087D01*
X-338520Y20009D01*
X-338814Y17780D01*
X-338533Y15647D01*
X-338548Y15514D01*
X-339247Y14591D01*
X-340105Y15623D01*
Y16944D01*
X-340379Y18325D01*
X-340960Y19194D01*
X-340379Y20063D01*
X-340105Y21444D01*
Y23444D01*
X-340151Y23678D01*
X-339146Y25091D01*
X-338883Y25126D01*
X-336785Y25995D01*
X-334983Y27377D01*
X-333601Y29179D01*
X-332732Y31277D01*
X-332445Y33458D01*
X-332431Y33528D01*
Y40640D01*
X-332443Y40702D01*
X-332168Y42086D01*
X-331349Y43313D01*
X-330122Y44132D01*
X-328738Y44407D01*
X-328676Y44395D01*
X-251327D01*
Y44383D01*
X-246707Y44746D01*
X-242201Y45828D01*
X-237920Y47602D01*
X-233969Y50023D01*
X-230530Y52960D01*
X-218280D01*
Y54864D01*
X-203360D01*
Y52960D01*
X-188280D01*
Y54864D01*
X-187975D01*
X-186012Y55254D01*
X-184163Y56020D01*
X-182500Y57132D01*
X-181084Y58547D01*
X-179972Y60211D01*
X-179207Y62060D01*
X-178816Y64023D01*
Y65024D01*
X-178816Y65024D01*
X-178816Y101346D01*
X-178816Y102372D01*
X-179216Y104384D01*
X-180001Y106279D01*
X-181141Y107985D01*
X-182591Y109435D01*
X-184297Y110575D01*
X-186192Y111360D01*
X-188060Y111731D01*
Y120126D01*
X-187991Y120650D01*
X-188060Y121174D01*
Y131650D01*
X-195580D01*
Y138180D01*
X-195530Y138430D01*
Y177384D01*
X-194842Y178414D01*
X-194451Y180380D01*
Y185380D01*
X-194842Y187346D01*
X-195530Y188376D01*
Y213360D01*
X-195727Y214351D01*
X-196289Y215191D01*
X-203909Y222811D01*
X-204749Y223373D01*
X-205740Y223570D01*
X-304800D01*
X-305791Y223373D01*
X-306631Y222811D01*
X-314251Y215191D01*
X-314813Y214351D01*
X-314992Y213448D01*
X-315164Y213344D01*
X-316276Y213228D01*
X-317358Y214638D01*
X-318768Y215720D01*
X-320410Y216400D01*
X-322172Y216632D01*
X-324922D01*
Y206074D01*
Y195516D01*
X-322172D01*
X-321443Y195612D01*
X-320850Y194409D01*
X-321963Y193296D01*
X-322172Y193337D01*
X-334672D01*
X-337126Y192849D01*
X-339207Y191459D01*
X-340597Y189378D01*
X-341085Y186924D01*
Y179424D01*
X-340597Y176970D01*
X-339207Y174889D01*
X-337126Y173499D01*
X-334672Y173011D01*
X-322172D01*
X-319718Y173499D01*
X-319528Y173626D01*
X-312470Y166567D01*
Y150933D01*
X-316033Y147370D01*
X-332740D01*
X-333731Y147173D01*
X-334571Y146611D01*
X-339397Y141785D01*
X-339959Y140945D01*
X-340156Y139954D01*
Y131649D01*
X-341687Y131448D01*
X-344129Y130436D01*
X-346227Y128827D01*
X-347836Y126729D01*
X-348848Y124287D01*
X-349193Y121666D01*
X-348848Y119045D01*
X-347836Y116603D01*
X-346227Y114505D01*
X-345700Y114101D01*
X-346131Y112831D01*
X-390892D01*
X-390917Y112826D01*
X-392589Y113046D01*
X-394020Y113639D01*
Y129920D01*
X-409100D01*
Y108840D01*
X-401317D01*
X-398310Y106533D01*
X-394732Y105051D01*
X-390892Y104545D01*
Y104593D01*
X-346623D01*
X-346460Y104115D01*
X-346306Y103323D01*
X-347836Y101329D01*
X-348122Y100639D01*
X-394020D01*
Y101980D01*
X-409100D01*
Y80900D01*
X-394020D01*
Y92401D01*
X-348332D01*
X-347836Y91203D01*
X-346227Y89105D01*
X-344129Y87496D01*
X-341687Y86484D01*
X-339066Y86139D01*
X-337566D01*
Y82970D01*
X-340699Y82557D01*
X-343618Y81348D01*
X-346124Y79425D01*
X-348048Y76918D01*
X-349105Y74366D01*
X-337566D01*
Y67366D01*
X-349105D01*
X-348048Y64814D01*
X-346124Y62308D01*
X-343618Y60384D01*
X-341146Y59360D01*
X-340996Y58026D01*
X-341003Y57996D01*
X-343016Y56920D01*
X-346028Y54448D01*
X-348500Y51436D01*
X-350337Y48000D01*
X-351468Y44272D01*
X-351850Y40394D01*
X-352882Y39821D01*
X-353095Y39779D01*
X-354266Y38996D01*
X-355049Y37825D01*
X-355323Y36444D01*
Y34444D01*
X-355049Y33063D01*
X-354468Y32194D01*
X-355049Y31325D01*
X-355323Y29944D01*
Y27944D01*
X-355255Y27599D01*
X-356297Y26329D01*
X-357724D01*
Y26351D01*
X-358332Y26472D01*
X-358848Y26816D01*
X-359193Y27332D01*
X-359314Y27940D01*
X-359335D01*
Y58420D01*
X-359330D01*
X-359649Y61656D01*
X-360593Y64769D01*
X-362126Y67637D01*
X-364189Y70151D01*
X-366703Y72214D01*
X-369571Y73747D01*
X-372683Y74691D01*
X-375920Y75010D01*
Y75005D01*
X-408940D01*
X-408990Y74995D01*
X-410377Y75271D01*
X-411595Y76085D01*
X-412409Y77303D01*
X-412685Y78690D01*
X-412675Y78740D01*
Y114300D01*
X-412673D01*
X-412979Y116621D01*
X-413875Y118783D01*
X-415300Y120640D01*
X-417157Y122065D01*
X-419319Y122961D01*
X-421640Y123267D01*
Y123265D01*
X-424020D01*
Y129920D01*
X-439100D01*
Y108840D01*
X-424020D01*
Y115495D01*
X-421640D01*
X-421572Y115509D01*
X-420765Y115175D01*
X-420431Y114368D01*
X-420445Y114300D01*
Y78740D01*
X-420469D01*
X-420076Y75756D01*
X-418924Y72976D01*
X-417092Y70588D01*
X-414878Y68889D01*
X-414995Y67619D01*
X-424180D01*
X-424230Y67609D01*
X-425527Y67867D01*
X-426670Y68630D01*
X-427433Y69773D01*
X-427691Y71070D01*
X-427681Y71120D01*
Y80900D01*
X-424020D01*
Y101980D01*
X-439100D01*
Y80900D01*
X-435919D01*
Y71120D01*
X-435941D01*
X-435540Y68076D01*
X-434365Y65240D01*
X-432496Y62804D01*
X-430060Y60935D01*
X-427224Y59760D01*
X-424180Y59359D01*
Y59381D01*
X-378460D01*
X-378410Y59391D01*
X-377113Y59133D01*
X-375970Y58369D01*
X-375207Y57227D01*
X-374949Y55930D01*
X-374959Y55880D01*
Y22860D01*
X-374975D01*
X-374598Y20000D01*
X-373494Y17335D01*
X-371738Y15046D01*
X-369449Y13290D01*
X-366784Y12186D01*
X-363924Y11810D01*
Y11825D01*
X-356050D01*
X-355244Y10843D01*
X-355323Y10444D01*
Y8444D01*
X-355244Y8045D01*
X-356050Y7063D01*
X-394020D01*
Y15620D01*
X-397441D01*
Y27339D01*
X-397478Y27524D01*
X-397086Y31501D01*
X-395872Y35504D01*
X-393900Y39193D01*
X-392727Y40621D01*
X-381660D01*
X-379693Y41012D01*
X-378026Y42126D01*
X-376912Y43794D01*
X-376521Y45760D01*
Y50760D01*
X-376912Y52726D01*
X-378026Y54394D01*
X-379693Y55508D01*
X-381660Y55899D01*
X-400660D01*
X-402626Y55508D01*
X-404294Y54394D01*
X-405408Y52726D01*
X-405799Y50760D01*
Y45760D01*
X-405408Y43794D01*
X-404294Y42126D01*
X-402626Y41012D01*
X-402877Y39769D01*
X-404246Y36465D01*
X-405327Y31959D01*
X-405691Y27339D01*
X-405679D01*
Y15620D01*
X-409100D01*
Y-5460D01*
X-394020D01*
Y-1175D01*
X-356519D01*
X-355713Y-2157D01*
X-355792Y-2556D01*
Y-4556D01*
X-355713Y-4955D01*
X-356519Y-5937D01*
X-359497D01*
X-360382Y-4782D01*
X-361958Y-3574D01*
X-363792Y-2814D01*
X-365760Y-2555D01*
X-367728Y-2814D01*
X-369562Y-3574D01*
X-371138Y-4782D01*
X-372346Y-6357D01*
X-373106Y-8192D01*
X-373365Y-10160D01*
X-373106Y-12128D01*
X-372346Y-13963D01*
X-371138Y-15538D01*
X-369562Y-16746D01*
X-367728Y-17506D01*
X-367936Y-18741D01*
X-394020D01*
Y-12320D01*
X-409100D01*
Y-33400D01*
X-394020D01*
Y-26979D01*
X-363994D01*
X-363676Y-28249D01*
X-366031Y-29508D01*
X-369726Y-32540D01*
X-369699Y-32568D01*
X-377579Y-40448D01*
X-377684Y-40604D01*
X-380774Y-43140D01*
X-384463Y-45112D01*
X-388465Y-46326D01*
X-392443Y-46718D01*
X-392627Y-46681D01*
X-394020D01*
Y-40260D01*
X-409100D01*
Y-61340D01*
X-394020D01*
Y-54919D01*
X-392627D01*
Y-54931D01*
X-388008Y-54567D01*
X-383502Y-53486D01*
X-379221Y-51712D01*
X-375269Y-49291D01*
X-371746Y-46282D01*
X-371754Y-46273D01*
X-363874Y-38393D01*
X-363817Y-38308D01*
X-361450Y-36365D01*
X-358660Y-34874D01*
X-356449Y-34203D01*
X-355473Y-34942D01*
X-355328Y-35180D01*
X-355323Y-35201D01*
Y-37056D01*
X-355049Y-38437D01*
X-354266Y-39608D01*
X-353095Y-40391D01*
X-353025Y-40405D01*
X-352368Y-41829D01*
X-353402Y-45237D01*
X-355374Y-48926D01*
X-357910Y-52016D01*
X-358066Y-52120D01*
X-374334Y-68388D01*
X-374439Y-68544D01*
X-377528Y-71080D01*
X-381217Y-73052D01*
X-385219Y-74266D01*
X-389197Y-74658D01*
X-389382Y-74621D01*
X-394020D01*
Y-68200D01*
X-409100D01*
Y-89280D01*
X-394020D01*
Y-82859D01*
X-389382D01*
Y-82871D01*
X-384762Y-82507D01*
X-380256Y-81426D01*
X-375975Y-79652D01*
X-372024Y-77231D01*
X-368500Y-74222D01*
X-368509Y-74213D01*
X-352241Y-57945D01*
X-352232Y-57954D01*
X-349223Y-54430D01*
X-346802Y-50479D01*
X-345028Y-46198D01*
X-343947Y-41692D01*
X-343866Y-40665D01*
X-343714D01*
X-342333Y-40391D01*
X-341162Y-39608D01*
X-340379Y-38437D01*
X-340105Y-37056D01*
Y-35056D01*
X-340379Y-33675D01*
X-340960Y-32806D01*
X-340379Y-31937D01*
X-340105Y-30556D01*
Y-28556D01*
X-340379Y-27175D01*
X-340960Y-26306D01*
X-340379Y-25437D01*
X-340105Y-24056D01*
Y-22248D01*
X-339991Y-22169D01*
X-339111Y-22595D01*
X-338831Y-22931D01*
X-338805Y-23019D01*
X-338520Y-25181D01*
X-337660Y-27259D01*
X-336291Y-29043D01*
X-335339Y-29773D01*
Y-41041D01*
X-335292Y-41275D01*
X-335660Y-45007D01*
X-336817Y-48821D01*
X-338695Y-52336D01*
X-341075Y-55235D01*
X-341273Y-55368D01*
X-366780Y-80875D01*
X-366802Y-80907D01*
X-369889Y-84522D01*
X-372392Y-88607D01*
X-374226Y-93034D01*
X-375344Y-97692D01*
X-375647Y-101541D01*
X-394020D01*
Y-96140D01*
X-409100D01*
Y-100409D01*
X-409448Y-101535D01*
X-412620Y-101953D01*
X-415576Y-103177D01*
X-418115Y-105125D01*
X-420063Y-107664D01*
X-421287Y-110620D01*
X-421705Y-113792D01*
X-421699D01*
Y-157480D01*
X-421665Y-157649D01*
X-421339Y-160122D01*
X-420320Y-162584D01*
X-418698Y-164698D01*
X-416584Y-166320D01*
X-414122Y-167339D01*
X-411650Y-167665D01*
X-411480Y-167699D01*
X-409100D01*
Y-173100D01*
X-394020D01*
Y-152020D01*
X-409100D01*
Y-157421D01*
X-411410D01*
X-411413Y-157413D01*
X-411421Y-157410D01*
Y-113792D01*
X-411424Y-113780D01*
X-410983Y-112659D01*
X-410188Y-112536D01*
X-409100Y-113484D01*
Y-117220D01*
X-394020D01*
Y-111819D01*
X-375725D01*
Y-120219D01*
X-375713Y-120277D01*
X-375351Y-124876D01*
X-374261Y-129418D01*
X-372473Y-133734D01*
X-370033Y-137717D01*
X-369966Y-137794D01*
Y-141640D01*
X-369742Y-143347D01*
X-369083Y-144938D01*
X-368034Y-146304D01*
X-366668Y-147353D01*
X-365077Y-148012D01*
X-363370Y-148236D01*
X-361663Y-148012D01*
X-360072Y-147353D01*
X-358706Y-146304D01*
X-357690Y-144980D01*
X-357421Y-144938D01*
X-356569D01*
X-356300Y-144980D01*
X-355659Y-145816D01*
Y-153670D01*
X-355636Y-153782D01*
X-355903Y-155123D01*
X-356726Y-156354D01*
X-357957Y-157177D01*
X-359298Y-157444D01*
X-359410Y-157421D01*
X-373380D01*
Y-157411D01*
X-373472Y-157423D01*
X-374337Y-157251D01*
X-375149Y-156708D01*
X-375691Y-155897D01*
X-375871Y-154990D01*
X-375861Y-154940D01*
Y-142240D01*
X-375851D01*
X-376286Y-138935D01*
X-377561Y-135855D01*
X-379591Y-133211D01*
X-382235Y-131181D01*
X-385315Y-129906D01*
X-388620Y-129471D01*
Y-129481D01*
X-394020D01*
Y-124080D01*
X-409100D01*
Y-145160D01*
X-394020D01*
Y-139759D01*
X-388620D01*
X-388570Y-139749D01*
X-387663Y-139929D01*
X-386852Y-140471D01*
X-386309Y-141283D01*
X-386129Y-142190D01*
X-386139Y-142240D01*
Y-154940D01*
X-386149D01*
X-385714Y-158245D01*
X-384439Y-161325D01*
X-383490Y-162560D01*
X-384439Y-163795D01*
X-385714Y-166875D01*
X-386149Y-170180D01*
X-386139D01*
Y-219202D01*
X-386118Y-219306D01*
X-385766Y-221977D01*
X-384696Y-224562D01*
X-382992Y-226782D01*
X-380772Y-228486D01*
X-378186Y-229556D01*
X-375516Y-229908D01*
X-375412Y-229929D01*
X-374076D01*
Y-235838D01*
X-358996D01*
Y-214758D01*
X-374076D01*
Y-218664D01*
X-374371Y-218837D01*
X-375395Y-218630D01*
X-375861Y-218239D01*
Y-170180D01*
X-375871Y-170130D01*
X-375691Y-169223D01*
X-375149Y-168412D01*
X-374337Y-167869D01*
X-373472Y-167697D01*
X-373380Y-167709D01*
Y-167699D01*
X-359410D01*
Y-167720D01*
X-355774Y-167241D01*
X-352385Y-165838D01*
X-349475Y-163605D01*
X-347242Y-160695D01*
X-345839Y-157306D01*
X-345360Y-153670D01*
X-345381D01*
Y-145556D01*
X-344972Y-145023D01*
X-344291Y-144933D01*
X-344249D01*
X-343568Y-145023D01*
X-342584Y-146304D01*
X-341218Y-147353D01*
X-339627Y-148012D01*
X-337920Y-148236D01*
X-336213Y-148012D01*
X-334622Y-147353D01*
X-333256Y-146304D01*
X-332272Y-145023D01*
X-331590Y-144933D01*
X-331550D01*
X-330868Y-145023D01*
X-329884Y-146304D01*
X-328518Y-147353D01*
X-326927Y-148012D01*
X-325220Y-148236D01*
X-323513Y-148012D01*
X-321922Y-147353D01*
X-320556Y-146304D01*
X-319572Y-145023D01*
X-318890Y-144933D01*
X-318850D01*
X-318168Y-145023D01*
X-317184Y-146304D01*
X-315818Y-147353D01*
X-314227Y-148012D01*
X-312520Y-148236D01*
X-310813Y-148012D01*
X-309222Y-147353D01*
X-307856Y-146304D01*
X-306872Y-145023D01*
X-306190Y-144933D01*
X-306150D01*
X-305468Y-145023D01*
X-304484Y-146304D01*
X-303939Y-146723D01*
Y-187057D01*
X-304484Y-187476D01*
X-305468Y-188757D01*
X-306150Y-188847D01*
X-306190D01*
X-306872Y-188757D01*
X-307856Y-187476D01*
X-309222Y-186427D01*
X-310813Y-185768D01*
X-312520Y-185544D01*
X-314227Y-185768D01*
X-315818Y-186427D01*
X-317184Y-187476D01*
X-318168Y-188757D01*
X-318850Y-188847D01*
X-318890D01*
X-319572Y-188757D01*
X-320556Y-187476D01*
X-321922Y-186427D01*
X-323513Y-185768D01*
X-325220Y-185544D01*
X-326927Y-185768D01*
X-328518Y-186427D01*
X-329884Y-187476D01*
X-330544Y-188336D01*
X-330956Y-188425D01*
X-331946Y-188345D01*
X-332046Y-188296D01*
X-332928Y-187148D01*
X-334390Y-186026D01*
X-334420Y-186013D01*
Y-196140D01*
Y-206267D01*
X-334390Y-206255D01*
X-332928Y-205132D01*
X-332046Y-203984D01*
X-331946Y-203935D01*
X-330956Y-203855D01*
X-330544Y-203944D01*
X-329884Y-204804D01*
X-328518Y-205853D01*
X-326927Y-206512D01*
X-325220Y-206736D01*
X-323513Y-206512D01*
X-321922Y-205853D01*
X-320556Y-204804D01*
X-319572Y-203523D01*
X-318890Y-203433D01*
X-318850D01*
X-318168Y-203523D01*
X-317184Y-204804D01*
X-316639Y-205223D01*
Y-209450D01*
X-316651D01*
X-316290Y-212188D01*
X-315233Y-214740D01*
X-313552Y-216931D01*
X-311360Y-218613D01*
X-308808Y-219670D01*
X-306070Y-220030D01*
Y-220019D01*
X-218437D01*
Y-220031D01*
X-215694Y-219669D01*
X-213138Y-218611D01*
X-210942Y-216926D01*
X-209258Y-214731D01*
X-208199Y-212175D01*
X-207838Y-209431D01*
X-207850D01*
Y-201040D01*
X-204310D01*
Y-179960D01*
X-207731D01*
Y-173100D01*
X-204310D01*
Y-152020D01*
X-207971D01*
Y-122483D01*
X-200423D01*
X-200032Y-123427D01*
X-198423Y-125525D01*
X-196325Y-127134D01*
X-193883Y-128146D01*
X-191262Y-128491D01*
X-188641Y-128146D01*
X-186199Y-127134D01*
X-184101Y-125525D01*
X-182492Y-123427D01*
X-181480Y-120985D01*
X-181135Y-118364D01*
X-181480Y-115743D01*
X-182492Y-113301D01*
X-184101Y-111203D01*
X-186199Y-109594D01*
X-188641Y-108582D01*
X-191262Y-108237D01*
X-193883Y-108582D01*
X-196325Y-109594D01*
X-198423Y-111203D01*
X-200032Y-113301D01*
X-200423Y-114245D01*
X-207957D01*
X-208350Y-111256D01*
X-209525Y-108420D01*
X-211394Y-105984D01*
X-213830Y-104115D01*
X-216666Y-102940D01*
X-219710Y-102539D01*
Y-102561D01*
X-223332D01*
Y-96140D01*
X-238412D01*
Y-117220D01*
X-223332D01*
Y-110799D01*
X-219710D01*
X-219660Y-110789D01*
X-218363Y-111047D01*
X-217220Y-111811D01*
X-216457Y-112953D01*
X-216199Y-114250D01*
X-216209Y-114300D01*
Y-118364D01*
Y-152020D01*
X-219390D01*
Y-173100D01*
X-215969D01*
Y-179960D01*
X-219390D01*
Y-201040D01*
X-216088D01*
Y-209431D01*
X-216091D01*
X-216269Y-210329D01*
X-216778Y-211091D01*
X-217539Y-211599D01*
X-218437Y-211778D01*
Y-211781D01*
X-306070D01*
Y-211778D01*
X-306961Y-211600D01*
X-307716Y-211096D01*
X-308221Y-210341D01*
X-308398Y-209450D01*
X-308401D01*
Y-205223D01*
X-307856Y-204804D01*
X-306872Y-203523D01*
X-306190Y-203433D01*
X-306150D01*
X-305468Y-203523D01*
X-304484Y-204804D01*
X-303118Y-205853D01*
X-301527Y-206512D01*
X-299820Y-206736D01*
X-298113Y-206512D01*
X-296522Y-205853D01*
X-295156Y-204804D01*
X-294496Y-203944D01*
X-294084Y-203855D01*
X-293094Y-203935D01*
X-292994Y-203984D01*
X-292113Y-205132D01*
X-290650Y-206255D01*
X-290620Y-206267D01*
Y-196140D01*
Y-186013D01*
X-290650Y-186026D01*
X-292113Y-187148D01*
X-292994Y-188296D01*
X-293094Y-188345D01*
X-294084Y-188425D01*
X-294496Y-188336D01*
X-295156Y-187476D01*
X-295701Y-187057D01*
Y-146723D01*
X-295156Y-146304D01*
X-294172Y-145023D01*
X-293491Y-144933D01*
X-293450D01*
X-292768Y-145023D01*
X-291784Y-146304D01*
X-291139Y-146799D01*
Y-156210D01*
X-291150D01*
X-290793Y-158922D01*
X-289746Y-161450D01*
X-288080Y-163620D01*
X-285910Y-165286D01*
X-283382Y-166333D01*
X-280670Y-166690D01*
Y-166679D01*
X-268920D01*
Y-173100D01*
X-253840D01*
Y-152020D01*
X-268920D01*
Y-158441D01*
X-280670D01*
Y-158436D01*
X-281522Y-158266D01*
X-282244Y-157784D01*
X-282726Y-157062D01*
X-282896Y-156210D01*
X-282901D01*
Y-146646D01*
X-282456Y-146304D01*
X-281407Y-144938D01*
X-280748Y-143347D01*
X-280524Y-141640D01*
Y-141279D01*
X-256540D01*
Y-141322D01*
X-252833Y-140835D01*
X-249379Y-139404D01*
X-246412Y-137128D01*
X-244136Y-134161D01*
X-242705Y-130707D01*
X-242218Y-127000D01*
X-242261D01*
Y-97389D01*
X-242249D01*
X-242612Y-92769D01*
X-243694Y-88264D01*
X-245468Y-83982D01*
X-247889Y-80031D01*
X-250898Y-76508D01*
X-250892Y-75240D01*
X-250060Y-73233D01*
X-249715Y-70612D01*
X-250060Y-67991D01*
X-251072Y-65549D01*
X-252681Y-63451D01*
X-254779Y-61842D01*
X-257221Y-60830D01*
X-259842Y-60485D01*
X-262463Y-60830D01*
X-264905Y-61842D01*
X-265287Y-62135D01*
X-269556Y-57867D01*
X-269547Y-57858D01*
X-273071Y-54849D01*
X-277022Y-52428D01*
X-281304Y-50654D01*
X-285809Y-49573D01*
X-290429Y-49209D01*
Y-49221D01*
X-300482D01*
X-300557Y-49236D01*
X-302027Y-48943D01*
X-303338Y-48068D01*
X-304213Y-46757D01*
X-304506Y-45287D01*
X-304491Y-45212D01*
Y26670D01*
X-304512Y26777D01*
X-304176Y28468D01*
X-303158Y29992D01*
X-301634Y31010D01*
X-299943Y31346D01*
X-299836Y31325D01*
X-295090D01*
X-294284Y30343D01*
X-294363Y29944D01*
Y27944D01*
X-294089Y26563D01*
X-293508Y25694D01*
X-294089Y24825D01*
X-294363Y23444D01*
Y21444D01*
X-294089Y20063D01*
X-293508Y19194D01*
X-294089Y18325D01*
X-294363Y16944D01*
Y14944D01*
X-294089Y13563D01*
X-293508Y12694D01*
X-294089Y11825D01*
X-294363Y10444D01*
Y8444D01*
X-294089Y7063D01*
X-293785Y6608D01*
X-293894Y6444D01*
X-293676D01*
X-293307Y5891D01*
X-292135Y5109D01*
X-290754Y4834D01*
X-286754D01*
Y1054D01*
X-290754D01*
X-292135Y779D01*
X-293307Y-3D01*
X-293676Y-556D01*
X-293894D01*
X-293785Y-720D01*
X-294089Y-1175D01*
X-294363Y-2556D01*
Y-4556D01*
X-294089Y-5937D01*
X-293508Y-6806D01*
X-294089Y-7675D01*
X-294363Y-9056D01*
Y-11056D01*
X-294089Y-12437D01*
X-293508Y-13306D01*
X-294089Y-14175D01*
X-294363Y-15556D01*
Y-17556D01*
X-294089Y-18937D01*
X-293508Y-19806D01*
X-294089Y-20675D01*
X-294363Y-22056D01*
Y-24056D01*
X-294089Y-25437D01*
X-293508Y-26306D01*
X-294089Y-27175D01*
X-294363Y-28556D01*
Y-30556D01*
X-294089Y-31937D01*
X-293508Y-32806D01*
X-294089Y-33675D01*
X-294363Y-35056D01*
Y-37056D01*
X-294089Y-38437D01*
X-293306Y-39608D01*
X-292135Y-40391D01*
X-290754Y-40665D01*
X-282754D01*
X-281373Y-40391D01*
X-280202Y-39608D01*
X-279419Y-38437D01*
X-279145Y-37056D01*
Y-35817D01*
X-277875Y-35291D01*
X-217255Y-95911D01*
X-217275Y-95931D01*
X-213088Y-99507D01*
X-208394Y-102384D01*
X-203307Y-104491D01*
X-197953Y-105776D01*
X-192464Y-106208D01*
Y-106179D01*
X-121502D01*
X-121400Y-106159D01*
X-118332Y-106461D01*
X-115284Y-107386D01*
X-112475Y-108887D01*
X-110092Y-110843D01*
X-110034Y-110930D01*
X-48039Y-172925D01*
X-48038Y-172926D01*
X-48038Y-172926D01*
X-47197Y-173848D01*
X-45097Y-176308D01*
X-42754Y-180131D01*
X-41038Y-184274D01*
X-39991Y-188635D01*
X-39650Y-192960D01*
X-39679Y-193105D01*
Y-208026D01*
X-39692D01*
X-39326Y-210805D01*
X-38254Y-213394D01*
X-36547Y-215617D01*
X-34324Y-217323D01*
X-31735Y-218396D01*
X-29400Y-218703D01*
Y-225170D01*
X-14320D01*
Y-204090D01*
X-29400D01*
Y-208556D01*
X-30640Y-209204D01*
X-31301Y-208731D01*
X-31441Y-208026D01*
X-31441D01*
Y-193105D01*
X-31407D01*
X-31860Y-187347D01*
X-33208Y-181730D01*
X-33989Y-179846D01*
X-32933Y-179141D01*
X-29398Y-182675D01*
Y-199262D01*
X-14318D01*
Y-178182D01*
X-22241D01*
X-99376Y-101047D01*
X-99367Y-101038D01*
X-102891Y-98029D01*
X-106842Y-95608D01*
X-111124Y-93834D01*
X-115629Y-92753D01*
X-120249Y-92389D01*
Y-92401D01*
X-192464D01*
X-192649Y-92438D01*
X-196627Y-92046D01*
X-200629Y-90832D01*
X-204318Y-88860D01*
X-207407Y-86324D01*
X-207512Y-86168D01*
X-269948Y-23732D01*
X-270821Y-22809D01*
X-270822Y-22809D01*
X-273584Y-20689D01*
X-276801Y-19356D01*
X-278172Y-19176D01*
X-279186Y-17762D01*
X-279145Y-17556D01*
Y-15556D01*
X-279201Y-15271D01*
X-278348Y-14330D01*
X-277195Y-14444D01*
X-274317Y-15317D01*
X-271665Y-16734D01*
X-269408Y-18586D01*
X-269359Y-18661D01*
X-252922Y-35097D01*
X-252922Y-35097D01*
X-252931Y-35106D01*
X-249407Y-38115D01*
X-245456Y-40536D01*
X-241175Y-42310D01*
X-237169Y-43271D01*
X-237006Y-44090D01*
X-235892Y-45758D01*
X-234224Y-46872D01*
X-232258Y-47263D01*
X-213258D01*
X-211292Y-46872D01*
X-209624Y-45758D01*
X-208510Y-44090D01*
X-208119Y-42124D01*
Y-37124D01*
X-208510Y-35157D01*
X-209624Y-33490D01*
X-211292Y-32376D01*
X-213258Y-31985D01*
X-232258D01*
X-234224Y-32376D01*
X-235892Y-33490D01*
X-236867Y-34951D01*
X-240214Y-33936D01*
X-243902Y-31964D01*
X-246992Y-29428D01*
X-247097Y-29272D01*
X-261290Y-15079D01*
X-260728Y-13940D01*
X-260333Y-13992D01*
X-257712Y-13647D01*
X-255270Y-12635D01*
X-253172Y-11026D01*
X-251621Y-9004D01*
X-236018D01*
X-235784Y-8957D01*
X-232052Y-9325D01*
X-228238Y-10482D01*
X-224723Y-12361D01*
X-221824Y-14740D01*
X-221691Y-14938D01*
X-202979Y-33651D01*
X-203986Y-35157D01*
X-204377Y-37124D01*
Y-42124D01*
X-203986Y-44090D01*
X-202872Y-45758D01*
X-201204Y-46872D01*
X-199238Y-47263D01*
X-180238D01*
X-178272Y-46872D01*
X-176604Y-45758D01*
X-175770Y-44509D01*
X-138415D01*
Y-50823D01*
X-139580Y-52341D01*
X-140592Y-54783D01*
X-140937Y-57404D01*
X-140592Y-60025D01*
X-139580Y-62467D01*
X-137971Y-64565D01*
X-135873Y-66174D01*
X-133431Y-67186D01*
X-130810Y-67531D01*
X-128189Y-67186D01*
X-125747Y-66174D01*
X-123649Y-64565D01*
X-122040Y-62467D01*
X-121028Y-60025D01*
X-120683Y-57404D01*
X-121028Y-54783D01*
X-122040Y-52341D01*
X-123205Y-50823D01*
Y-39370D01*
Y-34259D01*
X-123171Y-34090D01*
Y-9090D01*
X-123562Y-7124D01*
X-124676Y-5456D01*
X-126343Y-4342D01*
X-128310Y-3951D01*
X-133310D01*
X-135276Y-4342D01*
X-136944Y-5456D01*
X-138058Y-7124D01*
X-138449Y-9090D01*
Y-34090D01*
X-138565Y-34231D01*
X-176109D01*
X-176604Y-33490D01*
X-178272Y-32376D01*
X-180238Y-31985D01*
X-190110D01*
X-214424Y-7671D01*
X-214456Y-7649D01*
X-218070Y-4563D01*
X-222156Y-2059D01*
X-226582Y-225D01*
X-231241Y893D01*
X-235980Y1266D01*
X-236018Y1274D01*
X-251621D01*
X-253172Y3295D01*
X-255270Y4905D01*
X-257712Y5916D01*
X-260333Y6262D01*
X-262954Y5916D01*
X-265396Y4905D01*
X-267494Y3295D01*
X-269103Y1198D01*
X-269366Y563D01*
X-277949D01*
X-278755Y1545D01*
X-278676Y1944D01*
Y3944D01*
X-278755Y4343D01*
X-277949Y5325D01*
X-273781D01*
Y5311D01*
X-270956Y5683D01*
X-268324Y6773D01*
X-266063Y8507D01*
X-266063Y8507D01*
X-266063Y8507D01*
X-266063Y8527D01*
X-264809Y9782D01*
X-264702Y9941D01*
X-262792Y11218D01*
X-260538Y11666D01*
X-260350Y11629D01*
X-237837D01*
X-237768Y11281D01*
X-236654Y9614D01*
X-234986Y8500D01*
X-233020Y8109D01*
X-214020D01*
X-212054Y8500D01*
X-210386Y9614D01*
X-209272Y11281D01*
X-208881Y13248D01*
Y18248D01*
X-209272Y20215D01*
X-210386Y21882D01*
X-212054Y22996D01*
X-214020Y23387D01*
X-233020D01*
X-234986Y22996D01*
X-236654Y21882D01*
X-237768Y20215D01*
X-237837Y19867D01*
X-260350D01*
Y19913D01*
X-264126Y19416D01*
X-267645Y17958D01*
X-270666Y15640D01*
X-270634Y15607D01*
X-271899Y14343D01*
X-271903Y14336D01*
X-272761Y13763D01*
X-273772Y13562D01*
X-273781Y13563D01*
X-278418D01*
X-279224Y14545D01*
X-279145Y14944D01*
Y16944D01*
X-279194Y17190D01*
X-279190Y17203D01*
X-278135Y18378D01*
X-274657Y18652D01*
X-270559Y19636D01*
X-266665Y21248D01*
X-263072Y23450D01*
X-259867Y26187D01*
X-259867Y26187D01*
X-258918Y26960D01*
X-257969Y27688D01*
X-255729Y28616D01*
X-253421Y28920D01*
X-253325Y28901D01*
X-184051D01*
Y28872D01*
X-178562Y29304D01*
X-173208Y30589D01*
X-168121Y32696D01*
X-163427Y35573D01*
X-159240Y39149D01*
X-159261Y39169D01*
X-25573Y172857D01*
X-24650Y173730D01*
X-24650Y173730D01*
X-21701Y177324D01*
X-20292Y179960D01*
X-14318D01*
Y201040D01*
X-29398D01*
X-30425Y201627D01*
Y205535D01*
X-29398Y206122D01*
X-14318D01*
Y227202D01*
D02*
G37*
G36*
X-414680Y56368D02*
X-420680D01*
Y51760D01*
X-409271D01*
X-409499Y52906D01*
X-410715Y54725D01*
X-412534Y55941D01*
X-414680Y56368D01*
D02*
G37*
G36*
X-427680D02*
X-433680D01*
X-435826Y55941D01*
X-437645Y54725D01*
X-438861Y52906D01*
X-439089Y51760D01*
X-427680D01*
Y56368D01*
D02*
G37*
G36*
X213115Y62540D02*
X206700D01*
Y56125D01*
X208495Y56868D01*
X210689Y58551D01*
X212372Y60745D01*
X213115Y62540D01*
D02*
G37*
G36*
X199700D02*
X193285D01*
X194028Y60745D01*
X195711Y58551D01*
X197905Y56868D01*
X199700Y56125D01*
Y62540D01*
D02*
G37*
G36*
X-409271Y44760D02*
X-420680D01*
Y40152D01*
X-414680D01*
X-412534Y40579D01*
X-410715Y41795D01*
X-409499Y43614D01*
X-409271Y44760D01*
D02*
G37*
G36*
X199700Y35315D02*
X197905Y34572D01*
X195711Y32889D01*
X194028Y30695D01*
X193285Y28900D01*
X199700D01*
Y35315D01*
D02*
G37*
G36*
X182570Y43309D02*
Y28900D01*
X187178D01*
Y37900D01*
X186751Y40046D01*
X185535Y41865D01*
X183716Y43081D01*
X182570Y43309D01*
D02*
G37*
G36*
X175570D02*
X174424Y43081D01*
X172605Y41865D01*
X171389Y40046D01*
X170962Y37900D01*
Y28900D01*
X175570D01*
Y43309D01*
D02*
G37*
G36*
X-427680Y44760D02*
X-439089D01*
X-438861Y43614D01*
X-437645Y41795D01*
X-435826Y40579D01*
X-433680Y40152D01*
X-427680D01*
Y44760D01*
D02*
G37*
G36*
X121610Y36939D02*
Y28900D01*
X129649D01*
X128592Y31452D01*
X126669Y33958D01*
X124162Y35882D01*
X121610Y36939D01*
D02*
G37*
G36*
X206700Y35315D02*
Y28900D01*
X213115D01*
X212372Y30695D01*
X210689Y32889D01*
X208495Y34572D01*
X206700Y35315D01*
D02*
G37*
G36*
X-473400Y21900D02*
X-481439D01*
X-480382Y19348D01*
X-478459Y16841D01*
X-475952Y14918D01*
X-473400Y13861D01*
Y21900D01*
D02*
G37*
G36*
X114610D02*
X106571D01*
X107628Y19348D01*
X109551Y16841D01*
X112058Y14918D01*
X114610Y13861D01*
Y21900D01*
D02*
G37*
G36*
X-423560Y16080D02*
X-428060D01*
Y8580D01*
X-423560D01*
Y16080D01*
D02*
G37*
G36*
X-111450Y21900D02*
X-117865D01*
X-117122Y20105D01*
X-115439Y17911D01*
X-113245Y16228D01*
X-111450Y15485D01*
Y21900D01*
D02*
G37*
G36*
X129649D02*
X121610D01*
Y13861D01*
X124162Y14918D01*
X126669Y16841D01*
X128592Y19348D01*
X129649Y21900D01*
D02*
G37*
G36*
X-458361D02*
X-466400D01*
Y13861D01*
X-463848Y14918D01*
X-461342Y16841D01*
X-459418Y19348D01*
X-458361Y21900D01*
D02*
G37*
G36*
X-435060Y16080D02*
X-439560D01*
Y8580D01*
X-435060D01*
Y16080D01*
D02*
G37*
G36*
X-175591Y12248D02*
X-187000D01*
Y7640D01*
X-181000D01*
X-178854Y8067D01*
X-177035Y9283D01*
X-175819Y11102D01*
X-175591Y12248D01*
D02*
G37*
G36*
X-194000D02*
X-205409D01*
X-205181Y11102D01*
X-203965Y9283D01*
X-202146Y8067D01*
X-200000Y7640D01*
X-194000D01*
Y12248D01*
D02*
G37*
G36*
X187178Y21900D02*
X182570D01*
Y7491D01*
X183716Y7719D01*
X185535Y8935D01*
X186751Y10754D01*
X187178Y12900D01*
Y21900D01*
D02*
G37*
G36*
X-194000Y23856D02*
X-200000D01*
X-202146Y23429D01*
X-203965Y22213D01*
X-205181Y20394D01*
X-205409Y19248D01*
X-194000D01*
Y23856D01*
D02*
G37*
G36*
X-181000D02*
X-187000D01*
Y19248D01*
X-175591D01*
X-175819Y20394D01*
X-177035Y22213D01*
X-178854Y23429D01*
X-181000Y23856D01*
D02*
G37*
G36*
X213115Y21900D02*
X206700D01*
Y15485D01*
X208495Y16228D01*
X210689Y17911D01*
X212372Y20105D01*
X213115Y21900D01*
D02*
G37*
G36*
X-59935D02*
X-66350D01*
Y15485D01*
X-64555Y16228D01*
X-62361Y17911D01*
X-60678Y20105D01*
X-59935Y21900D01*
D02*
G37*
G36*
X-73350D02*
X-79765D01*
X-79022Y20105D01*
X-77339Y17911D01*
X-75145Y16228D01*
X-73350Y15485D01*
Y21900D01*
D02*
G37*
G36*
X-98035D02*
X-104450D01*
Y15485D01*
X-102655Y16228D01*
X-100461Y17911D01*
X-98778Y20105D01*
X-98035Y21900D01*
D02*
G37*
G36*
X199700D02*
X193285D01*
X194028Y20105D01*
X195711Y17911D01*
X197905Y16228D01*
X199700Y15485D01*
Y21900D01*
D02*
G37*
G36*
X166125D02*
X159710D01*
Y15485D01*
X161505Y16228D01*
X163699Y17911D01*
X165382Y20105D01*
X166125Y21900D01*
D02*
G37*
G36*
X152710D02*
X146295D01*
X147038Y20105D01*
X148721Y17911D01*
X150915Y16228D01*
X152710Y15485D01*
Y21900D01*
D02*
G37*
G36*
X-36774Y156319D02*
X-39326Y155262D01*
X-41832Y153338D01*
X-43756Y150832D01*
X-44813Y148280D01*
X-36774D01*
Y156319D01*
D02*
G37*
G36*
X88786Y141788D02*
X84286D01*
Y134288D01*
X88786D01*
Y141788D01*
D02*
G37*
G36*
X77286D02*
X72786D01*
Y134288D01*
X77286D01*
Y141788D01*
D02*
G37*
G36*
X166060Y156319D02*
Y148280D01*
X174099D01*
X173042Y150832D01*
X171119Y153338D01*
X168612Y155262D01*
X166060Y156319D01*
D02*
G37*
G36*
X-29774D02*
Y148280D01*
X-21735D01*
X-22792Y150832D01*
X-24715Y153338D01*
X-27222Y155262D01*
X-29774Y156319D01*
D02*
G37*
G36*
X159060D02*
X156508Y155262D01*
X154002Y153338D01*
X152078Y150832D01*
X151021Y148280D01*
X159060D01*
Y156319D01*
D02*
G37*
G36*
X174099Y141280D02*
X166060D01*
Y133241D01*
X168612Y134298D01*
X171119Y136222D01*
X173042Y138728D01*
X174099Y141280D01*
D02*
G37*
G36*
X-21735D02*
X-29774D01*
Y133241D01*
X-27222Y134298D01*
X-24715Y136222D01*
X-22792Y138728D01*
X-21735Y141280D01*
D02*
G37*
G36*
X159060D02*
X151021D01*
X152078Y138728D01*
X154002Y136222D01*
X156508Y134298D01*
X159060Y133241D01*
Y141280D01*
D02*
G37*
G36*
X-36774D02*
X-44813D01*
X-43756Y138728D01*
X-41832Y136222D01*
X-39326Y134298D01*
X-36774Y133241D01*
Y141280D01*
D02*
G37*
G36*
X-169220Y167229D02*
Y163520D01*
X-165511D01*
X-165732Y164055D01*
X-167014Y165726D01*
X-168685Y167008D01*
X-169220Y167229D01*
D02*
G37*
G36*
X-176220D02*
X-176754Y167008D01*
X-178426Y165726D01*
X-179708Y164055D01*
X-179929Y163520D01*
X-176220D01*
Y167229D01*
D02*
G37*
G36*
X-423067Y161854D02*
X-426776D01*
Y158145D01*
X-426241Y158366D01*
X-424570Y159648D01*
X-423288Y161320D01*
X-423067Y161854D01*
D02*
G37*
G36*
X-402053Y179151D02*
X-416461D01*
Y174543D01*
X-407462D01*
X-405316Y174970D01*
X-403496Y176186D01*
X-402281Y178005D01*
X-402053Y179151D01*
D02*
G37*
G36*
X-423461D02*
X-437870D01*
X-437642Y178005D01*
X-436427Y176186D01*
X-434608Y174970D01*
X-432462Y174543D01*
X-431495D01*
X-431412Y173274D01*
X-432364Y173148D01*
X-434310Y172342D01*
X-435982Y171060D01*
X-437264Y169389D01*
X-437485Y168854D01*
X-423067D01*
X-423288Y169389D01*
X-424570Y171060D01*
X-426241Y172342D01*
X-428188Y173148D01*
X-429140Y173274D01*
X-429057Y174543D01*
X-423461D01*
Y179151D01*
D02*
G37*
G36*
X-469900Y189440D02*
X-472912Y189043D01*
X-475720Y187880D01*
X-478130Y186030D01*
X-479980Y183620D01*
X-481143Y180812D01*
X-481539Y177800D01*
X-481143Y174788D01*
X-479980Y171980D01*
X-478130Y169570D01*
X-475720Y167720D01*
X-472912Y166557D01*
X-469900Y166160D01*
X-466888Y166557D01*
X-464080Y167720D01*
X-461670Y169570D01*
X-459820Y171980D01*
X-458657Y174788D01*
X-458260Y177800D01*
X-458657Y180812D01*
X-459820Y183620D01*
X-461670Y186030D01*
X-464080Y187880D01*
X-466888Y189043D01*
X-469900Y189440D01*
D02*
G37*
G36*
X-433776Y161854D02*
X-437485D01*
X-437264Y161320D01*
X-435982Y159648D01*
X-434310Y158366D01*
X-433776Y158145D01*
Y161854D01*
D02*
G37*
G36*
X-176220Y156520D02*
X-179929D01*
X-179708Y155985D01*
X-178426Y154314D01*
X-176754Y153032D01*
X-176220Y152811D01*
Y156520D01*
D02*
G37*
G36*
X88786Y156288D02*
X84286D01*
Y148788D01*
X88786D01*
Y156288D01*
D02*
G37*
G36*
X77286D02*
X72786D01*
Y148788D01*
X77286D01*
Y156288D01*
D02*
G37*
G36*
X-466400Y163939D02*
Y155900D01*
X-458361D01*
X-459418Y158452D01*
X-461342Y160958D01*
X-463848Y162882D01*
X-466400Y163939D01*
D02*
G37*
G36*
X-473400D02*
X-475952Y162882D01*
X-478459Y160958D01*
X-480382Y158452D01*
X-481439Y155900D01*
X-473400D01*
Y163939D01*
D02*
G37*
G36*
X-165511Y156520D02*
X-169220D01*
Y152811D01*
X-168685Y153032D01*
X-167014Y154314D01*
X-165732Y155985D01*
X-165511Y156520D01*
D02*
G37*
G36*
X-466400Y87739D02*
Y79700D01*
X-458361D01*
X-459418Y82252D01*
X-461342Y84759D01*
X-463848Y86682D01*
X-466400Y87739D01*
D02*
G37*
G36*
X-473400D02*
X-475952Y86682D01*
X-478459Y84759D01*
X-480382Y82252D01*
X-481439Y79700D01*
X-473400D01*
Y87739D01*
D02*
G37*
G36*
X206700Y75955D02*
Y69540D01*
X213115D01*
X212372Y71335D01*
X210689Y73529D01*
X208495Y75212D01*
X206700Y75955D01*
D02*
G37*
G36*
X159460Y201040D02*
X144380D01*
Y179960D01*
X159460D01*
Y185361D01*
X188214D01*
X188339Y185386D01*
X189766Y185102D01*
X191081Y184223D01*
X191960Y182908D01*
X192244Y181481D01*
X192219Y181356D01*
Y157579D01*
X191867Y157472D01*
X189254Y156076D01*
X186964Y154196D01*
X185084Y151906D01*
X183688Y149293D01*
X182828Y146458D01*
X182537Y143510D01*
X182828Y140562D01*
X183688Y137727D01*
X185084Y135114D01*
X186964Y132824D01*
X189254Y130944D01*
X191867Y129548D01*
X192511Y129352D01*
Y88430D01*
X192532Y88328D01*
X192279Y87062D01*
X191504Y85902D01*
X190344Y85126D01*
X189078Y84874D01*
X188976Y84895D01*
X172966D01*
X172894Y85068D01*
X171044Y87478D01*
X168634Y89328D01*
X165826Y90491D01*
X162814Y90887D01*
X159802Y90491D01*
X156994Y89328D01*
X154584Y87478D01*
X152734Y85068D01*
X151571Y82261D01*
X151174Y79248D01*
X151571Y76235D01*
X152734Y73428D01*
X154584Y71018D01*
X156994Y69168D01*
X157929Y68780D01*
Y60960D01*
X157939Y60910D01*
X157759Y60003D01*
X157217Y59191D01*
X156405Y58649D01*
X155498Y58469D01*
X155448Y58479D01*
X93876D01*
Y58498D01*
X90306Y58028D01*
X86979Y56650D01*
X84122Y54458D01*
X81930Y51601D01*
X80552Y48274D01*
X80082Y44704D01*
X80101D01*
Y38066D01*
X79592Y37403D01*
X78910Y37313D01*
X78870D01*
X78188Y37403D01*
X77679Y38066D01*
Y62310D01*
X88010D01*
Y64711D01*
X102616D01*
Y64685D01*
X106385Y65182D01*
X109897Y66636D01*
X111288Y67704D01*
X112014Y67608D01*
X115027Y68005D01*
X117834Y69168D01*
X120244Y71018D01*
X122094Y73428D01*
X123257Y76235D01*
X123653Y79248D01*
X123257Y82261D01*
X122094Y85068D01*
X120244Y87478D01*
X117834Y89328D01*
X115027Y90491D01*
X112014Y90887D01*
X109002Y90491D01*
X106194Y89328D01*
X103784Y87478D01*
X101934Y85068D01*
X100771Y82261D01*
X100374Y79248D01*
X100768Y76259D01*
X100794Y75990D01*
X99986Y74989D01*
X88010D01*
Y77390D01*
X66930D01*
Y62310D01*
X67401D01*
Y38066D01*
X66892Y37403D01*
X66210Y37313D01*
X66170D01*
X65488Y37403D01*
X64979Y38066D01*
Y62080D01*
X64991D01*
X64550Y65424D01*
X63260Y68540D01*
X62610Y69387D01*
Y77390D01*
X41530D01*
Y74989D01*
X37451D01*
X37217Y74942D01*
X33485Y75310D01*
X29671Y76467D01*
X28860Y76900D01*
X29169Y79250D01*
X28773Y82262D01*
X27610Y85070D01*
X25760Y87480D01*
X23350Y89330D01*
X20543Y90493D01*
X17530Y90890D01*
X14517Y90493D01*
X11710Y89330D01*
X9300Y87480D01*
X7450Y85070D01*
X6287Y82262D01*
X5890Y79250D01*
X6287Y76238D01*
X7450Y73430D01*
X9300Y71020D01*
X11710Y69170D01*
X14517Y68007D01*
X17530Y67611D01*
X20543Y68007D01*
X22396Y68775D01*
X23589Y68044D01*
X28015Y66210D01*
X32674Y65092D01*
X37413Y64719D01*
X37451Y64711D01*
X41530D01*
Y62310D01*
X53459D01*
X54701Y62080D01*
Y38066D01*
X54192Y37403D01*
X53510Y37313D01*
X53470D01*
X52788Y37403D01*
X51804Y38684D01*
X50438Y39733D01*
X48847Y40392D01*
X47140Y40616D01*
X45433Y40392D01*
X43842Y39733D01*
X42476Y38684D01*
X41663Y37625D01*
X-40621D01*
Y37900D01*
X-40655Y38069D01*
Y40279D01*
X-40618D01*
X-41025Y45448D01*
X-42235Y50490D01*
X-44219Y55280D01*
X-46929Y59700D01*
X-50296Y63643D01*
X-50322Y63617D01*
X-76329Y89624D01*
X-76578Y91521D01*
X-77590Y93963D01*
X-79199Y96061D01*
X-81297Y97670D01*
X-83739Y98682D01*
X-86360Y99027D01*
X-88981Y98682D01*
X-91423Y97670D01*
X-93521Y96061D01*
X-95130Y93963D01*
X-96142Y91521D01*
X-96487Y88900D01*
X-96142Y86279D01*
X-95130Y83837D01*
X-93521Y81739D01*
X-91423Y80130D01*
X-88981Y79118D01*
X-87084Y78869D01*
X-61077Y52862D01*
X-60994Y52798D01*
X-58844Y50179D01*
X-57198Y47098D01*
X-56184Y43755D01*
X-55851Y40383D01*
X-55865Y40279D01*
Y38069D01*
X-55899Y37900D01*
Y12900D01*
X-55508Y10934D01*
X-54394Y9266D01*
X-52726Y8152D01*
X-50760Y7761D01*
X-45760D01*
X-43794Y8152D01*
X-42126Y9266D01*
X-41012Y10934D01*
X-40621Y12900D01*
Y22415D01*
X2723D01*
X2727Y22387D01*
X3890Y19580D01*
X5740Y17170D01*
X8150Y15320D01*
X10957Y14157D01*
X13970Y13760D01*
X16983Y14157D01*
X19790Y15320D01*
X22200Y17170D01*
X24050Y19580D01*
X25213Y22387D01*
X25217Y22415D01*
X41663D01*
X42476Y21356D01*
X43842Y20307D01*
X45433Y19648D01*
X47140Y19424D01*
X48847Y19648D01*
X50438Y20307D01*
X51804Y21356D01*
X52788Y22637D01*
X53470Y22727D01*
X53510D01*
X54192Y22637D01*
X55176Y21356D01*
X56542Y20307D01*
X58133Y19648D01*
X59840Y19424D01*
X61547Y19648D01*
X63138Y20307D01*
X64504Y21356D01*
X65488Y22637D01*
X66170Y22727D01*
X66210D01*
X66892Y22637D01*
X67876Y21356D01*
X69242Y20307D01*
X70833Y19648D01*
X72540Y19424D01*
X74247Y19648D01*
X75838Y20307D01*
X77204Y21356D01*
X78188Y22637D01*
X78870Y22727D01*
X78910D01*
X79592Y22637D01*
X80576Y21356D01*
X81942Y20307D01*
X83533Y19648D01*
X85240Y19424D01*
X86947Y19648D01*
X88538Y20307D01*
X89904Y21356D01*
X90953Y22722D01*
X91612Y24313D01*
X91837Y26020D01*
Y34020D01*
X91612Y35727D01*
X90953Y37318D01*
X90379Y38066D01*
Y44704D01*
X90359Y44804D01*
X90608Y46058D01*
X91375Y47205D01*
X92522Y47972D01*
X93776Y48221D01*
X93876Y48201D01*
X155448D01*
Y48191D01*
X158753Y48626D01*
X161833Y49901D01*
X164477Y51931D01*
X166507Y54575D01*
X167782Y57655D01*
X168217Y60960D01*
X168207D01*
Y68991D01*
X168634Y69168D01*
X171044Y71018D01*
X172894Y73428D01*
X173387Y74617D01*
X188976D01*
Y74598D01*
X192556Y75069D01*
X195892Y76451D01*
X198757Y78649D01*
X200955Y81514D01*
X202337Y84850D01*
X202808Y88430D01*
X202789D01*
Y129352D01*
X203433Y129548D01*
X206046Y130944D01*
X208336Y132824D01*
X210216Y135114D01*
X211612Y137727D01*
X212472Y140562D01*
X212763Y143510D01*
X212472Y146458D01*
X211612Y149293D01*
X210216Y151906D01*
X208336Y154196D01*
X206046Y156076D01*
X203433Y157472D01*
X202497Y157757D01*
Y181356D01*
X202520D01*
X202033Y185059D01*
X200604Y188509D01*
X198330Y191472D01*
X195367Y193746D01*
X191917Y195175D01*
X188214Y195662D01*
Y195639D01*
X159460D01*
Y201040D01*
D02*
G37*
G36*
X-29770Y90789D02*
Y82750D01*
X-21731D01*
X-22788Y85302D01*
X-24711Y87809D01*
X-27218Y89732D01*
X-29770Y90789D01*
D02*
G37*
G36*
X-36770Y90789D02*
X-39322Y89732D01*
X-41828Y87809D01*
X-43752Y85302D01*
X-44809Y82750D01*
X-36770D01*
Y90789D01*
D02*
G37*
G36*
X199700Y75955D02*
X197905Y75212D01*
X195711Y73529D01*
X194028Y71335D01*
X193285Y69540D01*
X199700D01*
Y75955D01*
D02*
G37*
G36*
X-473400Y72700D02*
X-481439D01*
X-480382Y70148D01*
X-478459Y67642D01*
X-475952Y65718D01*
X-473400Y64661D01*
Y72700D01*
D02*
G37*
G36*
X-36770Y75750D02*
X-44809D01*
X-43752Y73198D01*
X-41828Y70691D01*
X-39322Y68768D01*
X-36770Y67711D01*
Y75750D01*
D02*
G37*
G36*
X-21731D02*
X-29770D01*
Y67711D01*
X-27218Y68768D01*
X-24711Y70691D01*
X-22788Y73198D01*
X-21731Y75750D01*
D02*
G37*
G36*
X-458361Y72700D02*
X-466400D01*
Y64661D01*
X-463848Y65718D01*
X-461342Y67642D01*
X-459418Y70148D01*
X-458361Y72700D01*
D02*
G37*
G36*
X75240Y130565D02*
X73445Y129822D01*
X71251Y128139D01*
X69568Y125945D01*
X68825Y124150D01*
X75240D01*
Y130565D01*
D02*
G37*
G36*
X-458361Y148900D02*
X-481439D01*
X-480382Y146348D01*
X-478459Y143841D01*
X-475952Y141918D01*
X-473033Y140709D01*
X-470805Y140416D01*
X-470234Y140340D01*
Y139060D01*
X-470805Y138984D01*
X-473033Y138691D01*
X-475952Y137482D01*
X-478459Y135559D01*
X-480382Y133052D01*
X-481439Y130500D01*
X-458361D01*
X-459418Y133052D01*
X-461342Y135559D01*
X-463848Y137482D01*
X-466767Y138691D01*
X-468995Y138984D01*
X-469566Y139060D01*
Y140340D01*
X-468995Y140416D01*
X-466767Y140709D01*
X-463848Y141918D01*
X-461342Y143841D01*
X-459418Y146348D01*
X-458361Y148900D01*
D02*
G37*
G36*
X82240Y130565D02*
Y124150D01*
X88655D01*
X87912Y125945D01*
X86229Y128139D01*
X84035Y129822D01*
X82240Y130565D01*
D02*
G37*
G36*
X-458361Y123500D02*
X-466400D01*
Y115461D01*
X-463848Y116518D01*
X-461342Y118441D01*
X-459418Y120948D01*
X-458361Y123500D01*
D02*
G37*
G36*
X15682Y227202D02*
X602D01*
Y206122D01*
X15682D01*
Y211523D01*
X111506D01*
X111693Y211560D01*
X113553Y211191D01*
X115289Y210031D01*
X116449Y208295D01*
X116819Y206435D01*
X116781Y206248D01*
Y201040D01*
X114380D01*
Y193545D01*
X113434Y193039D01*
X111120Y191140D01*
X109221Y188825D01*
X107809Y186185D01*
X106940Y183320D01*
X106671Y180591D01*
X106621Y180340D01*
Y155142D01*
X105940Y154860D01*
X103530Y153010D01*
X101680Y150600D01*
X100517Y147793D01*
X100120Y144780D01*
X100517Y141768D01*
X101680Y138960D01*
X103530Y136550D01*
X105940Y134700D01*
X106621Y134418D01*
Y119380D01*
X106679Y119091D01*
X106223Y115631D01*
X104776Y112136D01*
X102474Y109136D01*
X99473Y106834D01*
X95979Y105387D01*
X92519Y104931D01*
X92230Y104989D01*
X88010D01*
Y107390D01*
X66930D01*
Y92310D01*
X88010D01*
Y94711D01*
X92230D01*
Y94691D01*
X97046Y95166D01*
X101678Y96570D01*
X105946Y98852D01*
X109688Y101922D01*
X112758Y105664D01*
X115040Y109932D01*
X116445Y114563D01*
X116919Y119380D01*
X116899D01*
Y134418D01*
X117580Y134700D01*
X119990Y136550D01*
X121840Y138960D01*
X123003Y141768D01*
X123399Y144780D01*
X123003Y147793D01*
X121840Y150600D01*
X119990Y153010D01*
X117580Y154860D01*
X116899Y155142D01*
Y179960D01*
X129460D01*
Y201040D01*
X127059D01*
Y206248D01*
X127011Y206486D01*
X126736Y209277D01*
X125853Y212191D01*
X124418Y214875D01*
X122486Y217229D01*
X120133Y219160D01*
X117449Y220595D01*
X114536Y221478D01*
X111744Y221753D01*
X111506Y221801D01*
X15682D01*
Y227202D01*
D02*
G37*
G36*
Y201040D02*
X602D01*
Y179960D01*
X3003D01*
Y154164D01*
X2977D01*
X3473Y150399D01*
X4927Y146890D01*
X5983Y145513D01*
X5886Y144780D01*
X6283Y141768D01*
X7446Y138960D01*
X9296Y136550D01*
X11706Y134700D01*
X14513Y133537D01*
X17526Y133140D01*
X20538Y133537D01*
X23346Y134700D01*
X25756Y136550D01*
X27606Y138960D01*
X27888Y139641D01*
X43246D01*
Y134748D01*
X45647D01*
Y107390D01*
X41530D01*
Y92310D01*
X62610D01*
Y107390D01*
X55925D01*
Y134748D01*
X58326D01*
Y155828D01*
X43246D01*
Y149919D01*
X27888D01*
X27606Y150600D01*
X25756Y153010D01*
X23346Y154860D01*
X20538Y156023D01*
X17526Y156419D01*
X14551Y156028D01*
X14285Y156013D01*
X13281Y156806D01*
Y179960D01*
X15682D01*
Y201040D01*
D02*
G37*
G36*
X75240Y117150D02*
X68825D01*
X69568Y115355D01*
X71251Y113161D01*
X73445Y111478D01*
X75240Y110735D01*
Y117150D01*
D02*
G37*
G36*
X-473400Y123500D02*
X-481439D01*
X-480382Y120948D01*
X-478459Y118441D01*
X-475952Y116518D01*
X-473400Y115461D01*
Y123500D01*
D02*
G37*
G36*
X88655Y117150D02*
X82240D01*
Y110735D01*
X84035Y111478D01*
X86229Y113161D01*
X87912Y115355D01*
X88655Y117150D01*
D02*
G37*
%LPD*%
G36*
X-198120Y213360D02*
Y138430D01*
X-214630Y119380D01*
X-259080D01*
X-261366Y121666D01*
X-337566D01*
Y139954D01*
X-332740Y144780D01*
X-314960D01*
X-309880Y149860D01*
Y167640D01*
X-325120Y182880D01*
X-328422Y183174D01*
X-312420Y199176D01*
Y213360D01*
X-304800Y220980D01*
X-205740D01*
X-198120Y213360D01*
D02*
G37*
G36*
X-332889Y-112724D02*
X-330940Y-114220D01*
X-328133Y-115383D01*
X-325120Y-115779D01*
X-322108Y-115383D01*
X-319300Y-114220D01*
X-317351Y-112724D01*
X-317230Y-112632D01*
X-316291Y-113512D01*
X-316367Y-113626D01*
X-317268Y-114973D01*
X-317659Y-116940D01*
Y-129594D01*
X-318168Y-130257D01*
X-318850Y-130347D01*
X-318890D01*
X-319572Y-130257D01*
X-320556Y-128976D01*
X-321922Y-127927D01*
X-323513Y-127268D01*
X-325220Y-127044D01*
X-326927Y-127268D01*
X-328518Y-127927D01*
X-329884Y-128976D01*
X-330868Y-130257D01*
X-331550Y-130347D01*
X-331590D01*
X-332272Y-130257D01*
X-332781Y-129594D01*
Y-116740D01*
X-333172Y-114774D01*
X-333925Y-113647D01*
X-334085Y-113407D01*
X-333146Y-112528D01*
X-332889Y-112724D01*
D02*
G37*
%LPC*%
G36*
X-115260Y280779D02*
X-117812Y279722D01*
X-120318Y277799D01*
X-122242Y275292D01*
X-123299Y272740D01*
X-115260D01*
Y280779D01*
D02*
G37*
G36*
X-108260D02*
Y272740D01*
X-100221D01*
X-101278Y275292D01*
X-103202Y277799D01*
X-105708Y279722D01*
X-108260Y280779D01*
D02*
G37*
G36*
X-100221Y265740D02*
X-108260D01*
Y257701D01*
X-105708Y258758D01*
X-103202Y260681D01*
X-101278Y263188D01*
X-100221Y265740D01*
D02*
G37*
G36*
X-115260D02*
X-123299D01*
X-122242Y263188D01*
X-120318Y260681D01*
X-117812Y258758D01*
X-115260Y257701D01*
Y265740D01*
D02*
G37*
G36*
X-60960Y280879D02*
X-63973Y280483D01*
X-66780Y279320D01*
X-69190Y277470D01*
X-71040Y275060D01*
X-72203Y272253D01*
X-72600Y269240D01*
X-72203Y266227D01*
X-71040Y263420D01*
X-69190Y261010D01*
X-66780Y259160D01*
X-63973Y257997D01*
X-60960Y257600D01*
X-57948Y257997D01*
X-55140Y259160D01*
X-52730Y261010D01*
X-50880Y263420D01*
X-49717Y266227D01*
X-49320Y269240D01*
X-49717Y272253D01*
X-50880Y275060D01*
X-52730Y277470D01*
X-55140Y279320D01*
X-57948Y280483D01*
X-60960Y280879D01*
D02*
G37*
G36*
X237800Y280779D02*
X235248Y279722D01*
X232742Y277799D01*
X230818Y275292D01*
X229761Y272740D01*
X237800D01*
Y280779D01*
D02*
G37*
G36*
X252839Y265740D02*
X244800D01*
Y257701D01*
X247352Y258758D01*
X249858Y260681D01*
X251782Y263188D01*
X252839Y265740D01*
D02*
G37*
G36*
X28900Y280779D02*
Y272740D01*
X36939D01*
X35882Y275292D01*
X33958Y277799D01*
X31452Y279722D01*
X28900Y280779D01*
D02*
G37*
G36*
X21900D02*
X19348Y279722D01*
X16841Y277799D01*
X14918Y275292D01*
X13861Y272740D01*
X21900D01*
Y280779D01*
D02*
G37*
G36*
X321310Y281888D02*
X318036Y281457D01*
X314986Y280194D01*
X312366Y278184D01*
X310356Y275564D01*
X309093Y272514D01*
X308662Y269240D01*
X309093Y265966D01*
X310356Y262916D01*
X312366Y260296D01*
X314986Y258286D01*
X318036Y257023D01*
X321310Y256592D01*
X324584Y257023D01*
X327634Y258286D01*
X330254Y260296D01*
X332264Y262916D01*
X333527Y265966D01*
X333958Y269240D01*
X333527Y272514D01*
X332264Y275564D01*
X330254Y278184D01*
X327634Y280194D01*
X324584Y281457D01*
X321310Y281888D01*
D02*
G37*
G36*
X36939Y265740D02*
X28900D01*
Y257701D01*
X31452Y258758D01*
X33958Y260681D01*
X35882Y263188D01*
X36939Y265740D01*
D02*
G37*
G36*
X21900D02*
X13861D01*
X14918Y263188D01*
X16841Y260681D01*
X19348Y258758D01*
X21900Y257701D01*
Y265740D01*
D02*
G37*
G36*
X237800D02*
X229761D01*
X230818Y263188D01*
X232742Y260681D01*
X235248Y258758D01*
X237800Y257701D01*
Y265740D01*
D02*
G37*
G36*
X95560Y302015D02*
X93765Y301272D01*
X91571Y299589D01*
X89888Y297395D01*
X89145Y295600D01*
X95560D01*
Y302015D01*
D02*
G37*
G36*
X191460D02*
Y295600D01*
X197875D01*
X197132Y297395D01*
X195449Y299589D01*
X193255Y301272D01*
X191460Y302015D01*
D02*
G37*
G36*
X184460D02*
X182665Y301272D01*
X180471Y299589D01*
X178788Y297395D01*
X178045Y295600D01*
X184460D01*
Y302015D01*
D02*
G37*
G36*
X102560D02*
Y295600D01*
X108975D01*
X108232Y297395D01*
X106549Y299589D01*
X104355Y301272D01*
X102560Y302015D01*
D02*
G37*
G36*
X197875Y288600D02*
X191460D01*
Y282185D01*
X193255Y282928D01*
X195449Y284611D01*
X197132Y286805D01*
X197875Y288600D01*
D02*
G37*
G36*
X244800Y280779D02*
Y272740D01*
X252839D01*
X251782Y275292D01*
X249858Y277799D01*
X247352Y279722D01*
X244800Y280779D01*
D02*
G37*
G36*
X184460Y288600D02*
X178045D01*
X178788Y286805D01*
X180471Y284611D01*
X182665Y282928D01*
X184460Y282185D01*
Y288600D01*
D02*
G37*
G36*
X108975D02*
X102560D01*
Y282185D01*
X104355Y282928D01*
X106549Y284611D01*
X108232Y286805D01*
X108975Y288600D01*
D02*
G37*
G36*
X95560D02*
X89145D01*
X89888Y286805D01*
X91571Y284611D01*
X93765Y282928D01*
X95560Y282185D01*
Y288600D01*
D02*
G37*
G36*
X66040Y281888D02*
X62766Y281457D01*
X59716Y280194D01*
X57096Y278184D01*
X55086Y275564D01*
X53823Y272514D01*
X53392Y269240D01*
X53823Y265966D01*
X55086Y262916D01*
X57096Y260296D01*
X59716Y258286D01*
X62766Y257023D01*
X66040Y256592D01*
X69314Y257023D01*
X72364Y258286D01*
X74984Y260296D01*
X76994Y262916D01*
X78257Y265966D01*
X78688Y269240D01*
X78257Y272514D01*
X76994Y275564D01*
X74984Y278184D01*
X72364Y280194D01*
X69314Y281457D01*
X66040Y281888D01*
D02*
G37*
G36*
X176530Y416349D02*
X172111Y415914D01*
X167863Y414625D01*
X163947Y412532D01*
X160515Y409715D01*
X157698Y406283D01*
X155605Y402367D01*
X154316Y398119D01*
X153881Y393700D01*
X154316Y389281D01*
X155605Y385033D01*
X157698Y381117D01*
X160515Y377685D01*
X163947Y374868D01*
X167863Y372775D01*
X172111Y371486D01*
X176530Y371051D01*
X180949Y371486D01*
X185197Y372775D01*
X189113Y374868D01*
X192545Y377685D01*
X195362Y381117D01*
X197455Y385033D01*
X198744Y389281D01*
X199179Y393700D01*
X198744Y398119D01*
X197455Y402367D01*
X195362Y406283D01*
X192545Y409715D01*
X189113Y412532D01*
X185197Y414625D01*
X180949Y415914D01*
X176530Y416349D01*
D02*
G37*
G36*
X91440D02*
X87021Y415914D01*
X82773Y414625D01*
X78857Y412532D01*
X75425Y409715D01*
X72608Y406283D01*
X70515Y402367D01*
X69226Y398119D01*
X68791Y393700D01*
X69226Y389281D01*
X70515Y385033D01*
X72608Y381117D01*
X75425Y377685D01*
X78857Y374868D01*
X82773Y372775D01*
X87021Y371486D01*
X91440Y371051D01*
X95859Y371486D01*
X100107Y372775D01*
X104023Y374868D01*
X107455Y377685D01*
X110272Y381117D01*
X112365Y385033D01*
X113654Y389281D01*
X114089Y393700D01*
X113654Y398119D01*
X112365Y402367D01*
X110272Y406283D01*
X107455Y409715D01*
X104023Y412532D01*
X100107Y414625D01*
X95859Y415914D01*
X91440Y416349D01*
D02*
G37*
G36*
X-88900D02*
X-93319Y415914D01*
X-97567Y414625D01*
X-101483Y412532D01*
X-104915Y409715D01*
X-107732Y406283D01*
X-109825Y402367D01*
X-111114Y398119D01*
X-111549Y393700D01*
X-111114Y389281D01*
X-109825Y385033D01*
X-107732Y381117D01*
X-104915Y377685D01*
X-101483Y374868D01*
X-97567Y372775D01*
X-93319Y371486D01*
X-88900Y371051D01*
X-84481Y371486D01*
X-80233Y372775D01*
X-76317Y374868D01*
X-72885Y377685D01*
X-70068Y381117D01*
X-67975Y385033D01*
X-66686Y389281D01*
X-66251Y393700D01*
X-66686Y398119D01*
X-67975Y402367D01*
X-70068Y406283D01*
X-72885Y409715D01*
X-76317Y412532D01*
X-80233Y414625D01*
X-84481Y415914D01*
X-88900Y416349D01*
D02*
G37*
G36*
X191460Y350275D02*
Y343860D01*
X197875D01*
X197132Y345655D01*
X195449Y347849D01*
X193255Y349532D01*
X191460Y350275D01*
D02*
G37*
G36*
X184460D02*
X182665Y349532D01*
X180471Y347849D01*
X178788Y345655D01*
X178045Y343860D01*
X184460D01*
Y350275D01*
D02*
G37*
G36*
X102560D02*
Y343860D01*
X108975D01*
X108232Y345655D01*
X106549Y347849D01*
X104355Y349532D01*
X102560Y350275D01*
D02*
G37*
G36*
X-127056Y434857D02*
Y428442D01*
X-120641D01*
X-121384Y430237D01*
X-123067Y432431D01*
X-125261Y434114D01*
X-127056Y434857D01*
D02*
G37*
G36*
X-134056D02*
X-135851Y434114D01*
X-138045Y432431D01*
X-139728Y430237D01*
X-140471Y428442D01*
X-134056D01*
Y434857D01*
D02*
G37*
G36*
X-11740Y434095D02*
Y427680D01*
X-5325D01*
X-6068Y429475D01*
X-7751Y431669D01*
X-9945Y433352D01*
X-11740Y434095D01*
D02*
G37*
G36*
X-5325Y420680D02*
X-11740D01*
Y414265D01*
X-9945Y415008D01*
X-7751Y416691D01*
X-6068Y418885D01*
X-5325Y420680D01*
D02*
G37*
G36*
X-18740D02*
X-25155D01*
X-24412Y418885D01*
X-22729Y416691D01*
X-20535Y415008D01*
X-18740Y414265D01*
Y420680D01*
D02*
G37*
G36*
Y434095D02*
X-20535Y433352D01*
X-22729Y431669D01*
X-24412Y429475D01*
X-25155Y427680D01*
X-18740D01*
Y434095D01*
D02*
G37*
G36*
X-120641Y421442D02*
X-127056D01*
Y415027D01*
X-125261Y415770D01*
X-123067Y417453D01*
X-121384Y419647D01*
X-120641Y421442D01*
D02*
G37*
G36*
X-134056D02*
X-140471D01*
X-139728Y419647D01*
X-138045Y417453D01*
X-135851Y415770D01*
X-134056Y415027D01*
Y421442D01*
D02*
G37*
G36*
X320350Y322335D02*
X318555Y321592D01*
X316361Y319909D01*
X314678Y317715D01*
X313935Y315920D01*
X320350D01*
Y322335D01*
D02*
G37*
G36*
X-287886Y320604D02*
X-299522D01*
Y308968D01*
X-297062Y309715D01*
X-294369Y311154D01*
X-292009Y313091D01*
X-290072Y315451D01*
X-288633Y318144D01*
X-287886Y320604D01*
D02*
G37*
G36*
X-306522D02*
X-318158D01*
X-317411Y318144D01*
X-315972Y315451D01*
X-314035Y313091D01*
X-311675Y311154D01*
X-308982Y309715D01*
X-306522Y308968D01*
Y320604D01*
D02*
G37*
G36*
X327350Y322335D02*
Y315920D01*
X333765D01*
X333022Y317715D01*
X331339Y319909D01*
X329145Y321592D01*
X327350Y322335D01*
D02*
G37*
G36*
X-205082Y320350D02*
X-216718D01*
Y308714D01*
X-214258Y309461D01*
X-211565Y310900D01*
X-209205Y312837D01*
X-207268Y315197D01*
X-205829Y317890D01*
X-205082Y320350D01*
D02*
G37*
G36*
X333765Y308920D02*
X327350D01*
Y302505D01*
X329145Y303248D01*
X331339Y304931D01*
X333022Y307125D01*
X333765Y308920D01*
D02*
G37*
G36*
X320350D02*
X313935D01*
X314678Y307125D01*
X316361Y304931D01*
X318555Y303248D01*
X320350Y302505D01*
Y308920D01*
D02*
G37*
G36*
X-223718Y320350D02*
X-235354D01*
X-234607Y317890D01*
X-233168Y315197D01*
X-231231Y312837D01*
X-228871Y310900D01*
X-226178Y309461D01*
X-223718Y308714D01*
Y320350D01*
D02*
G37*
G36*
X197875Y336860D02*
X191460D01*
Y330445D01*
X193255Y331188D01*
X195449Y332871D01*
X197132Y335065D01*
X197875Y336860D01*
D02*
G37*
G36*
X184460D02*
X178045D01*
X178788Y335065D01*
X180471Y332871D01*
X182665Y331188D01*
X184460Y330445D01*
Y336860D01*
D02*
G37*
G36*
X95560Y350275D02*
X93765Y349532D01*
X91571Y347849D01*
X89888Y345655D01*
X89145Y343860D01*
X95560D01*
Y350275D01*
D02*
G37*
G36*
X-28900Y352670D02*
X-31704Y351509D01*
X-34315Y349505D01*
X-36319Y346894D01*
X-37578Y343853D01*
X-37745Y342590D01*
X-28900D01*
Y352670D01*
D02*
G37*
G36*
X108975Y336860D02*
X102560D01*
Y330445D01*
X104355Y331188D01*
X106549Y332871D01*
X108232Y335065D01*
X108975Y336860D01*
D02*
G37*
G36*
X-216718Y338986D02*
Y327350D01*
X-205082D01*
X-205829Y329810D01*
X-207268Y332503D01*
X-209205Y334863D01*
X-211565Y336800D01*
X-214258Y338239D01*
X-216718Y338986D01*
D02*
G37*
G36*
X-223718D02*
X-226178Y338239D01*
X-228871Y336800D01*
X-231231Y334863D01*
X-233168Y332503D01*
X-234607Y329810D01*
X-235354Y327350D01*
X-223718D01*
Y338986D01*
D02*
G37*
G36*
X-28900Y335590D02*
X-37745D01*
X-37578Y334327D01*
X-36319Y331286D01*
X-34315Y328675D01*
X-31704Y326671D01*
X-28900Y325510D01*
Y335590D01*
D02*
G37*
G36*
X95560Y336860D02*
X89145D01*
X89888Y335065D01*
X91571Y332871D01*
X93765Y331188D01*
X95560Y330445D01*
Y336860D01*
D02*
G37*
G36*
X-299522Y339240D02*
Y327604D01*
X-287886D01*
X-288633Y330064D01*
X-290072Y332757D01*
X-292009Y335117D01*
X-294369Y337054D01*
X-297062Y338493D01*
X-299522Y339240D01*
D02*
G37*
G36*
X-306522D02*
X-308982Y338493D01*
X-311675Y337054D01*
X-314035Y335117D01*
X-315972Y332757D01*
X-317411Y330064D01*
X-318158Y327604D01*
X-306522D01*
Y339240D01*
D02*
G37*
G36*
X324160Y-98750D02*
X317745D01*
X318488Y-100545D01*
X320171Y-102739D01*
X322365Y-104422D01*
X324160Y-105165D01*
Y-98750D01*
D02*
G37*
G36*
X337575D02*
X331160D01*
Y-105165D01*
X332955Y-104422D01*
X335149Y-102739D01*
X336832Y-100545D01*
X337575Y-98750D01*
D02*
G37*
G36*
X331160Y-85335D02*
Y-91750D01*
X337575D01*
X336832Y-89955D01*
X335149Y-87761D01*
X332955Y-86078D01*
X331160Y-85335D01*
D02*
G37*
G36*
X324160D02*
X322365Y-86078D01*
X320171Y-87761D01*
X318488Y-89955D01*
X317745Y-91750D01*
X324160D01*
Y-85335D01*
D02*
G37*
G36*
X297650Y-124587D02*
X294702Y-124878D01*
X291867Y-125738D01*
X289254Y-127134D01*
X286964Y-129014D01*
X285084Y-131304D01*
X283688Y-133917D01*
X282828Y-136752D01*
X282537Y-139700D01*
X282828Y-142648D01*
X283688Y-145483D01*
X285084Y-148096D01*
X286964Y-150386D01*
X289254Y-152266D01*
X291867Y-153662D01*
X294702Y-154522D01*
X297650Y-154813D01*
X300598Y-154522D01*
X303433Y-153662D01*
X306046Y-152266D01*
X308336Y-150386D01*
X310216Y-148096D01*
X311612Y-145483D01*
X312472Y-142648D01*
X312763Y-139700D01*
X312472Y-136752D01*
X311612Y-133917D01*
X310216Y-131304D01*
X308336Y-129014D01*
X306046Y-127134D01*
X303433Y-125738D01*
X300598Y-124878D01*
X297650Y-124587D01*
D02*
G37*
G36*
X353258Y-174135D02*
Y-182174D01*
X361297D01*
X360240Y-179622D01*
X358316Y-177115D01*
X355810Y-175192D01*
X353258Y-174135D01*
D02*
G37*
G36*
X462590Y-131770D02*
X450954D01*
X451701Y-134230D01*
X453140Y-136923D01*
X455077Y-139283D01*
X457437Y-141220D01*
X460130Y-142659D01*
X462590Y-143406D01*
Y-131770D01*
D02*
G37*
G36*
X425346D02*
X413710D01*
Y-143406D01*
X416170Y-142659D01*
X418863Y-141220D01*
X421223Y-139283D01*
X423160Y-136923D01*
X424599Y-134230D01*
X425346Y-131770D01*
D02*
G37*
G36*
X406710D02*
X395074D01*
X395821Y-134230D01*
X397260Y-136923D01*
X399197Y-139283D01*
X401557Y-141220D01*
X404250Y-142659D01*
X406710Y-143406D01*
Y-131770D01*
D02*
G37*
G36*
X349758Y-123234D02*
X346745Y-123631D01*
X343938Y-124794D01*
X341528Y-126644D01*
X339678Y-129054D01*
X338515Y-131861D01*
X338118Y-134874D01*
X338515Y-137886D01*
X339678Y-140694D01*
X341528Y-143104D01*
X343938Y-144954D01*
X346745Y-146117D01*
X349758Y-146514D01*
X352771Y-146117D01*
X355578Y-144954D01*
X357988Y-143104D01*
X359838Y-140694D01*
X361001Y-137886D01*
X361398Y-134874D01*
X361001Y-131861D01*
X359838Y-129054D01*
X357988Y-126644D01*
X355578Y-124794D01*
X352771Y-123631D01*
X349758Y-123234D01*
D02*
G37*
G36*
X469844Y-8461D02*
Y-16500D01*
X477883D01*
X476826Y-13948D01*
X474902Y-11442D01*
X472396Y-9518D01*
X469844Y-8461D01*
D02*
G37*
G36*
X462844D02*
X460292Y-9518D01*
X457785Y-11442D01*
X455862Y-13948D01*
X454805Y-16500D01*
X462844D01*
Y-8461D01*
D02*
G37*
G36*
X286314Y11500D02*
X278814D01*
Y7000D01*
X286314D01*
Y11500D01*
D02*
G37*
G36*
X351008Y19360D02*
X346400D01*
Y4951D01*
X347546Y5179D01*
X349365Y6395D01*
X350581Y8214D01*
X351008Y10360D01*
Y19360D01*
D02*
G37*
G36*
X339400D02*
X334792D01*
Y10360D01*
X335219Y8214D01*
X336435Y6395D01*
X338254Y5179D01*
X339400Y4951D01*
Y19360D01*
D02*
G37*
G36*
X300814Y11500D02*
X293314D01*
Y7000D01*
X300814D01*
Y11500D01*
D02*
G37*
G36*
X289814Y-795D02*
X287193Y-1140D01*
X284751Y-2152D01*
X282653Y-3761D01*
X281044Y-5859D01*
X280381Y-7460D01*
X279274D01*
Y-22540D01*
X284675D01*
Y-46736D01*
X284690Y-46808D01*
X285054Y-49577D01*
X286151Y-52224D01*
X287895Y-54497D01*
X290168Y-56241D01*
X292815Y-57338D01*
X295584Y-57702D01*
X295656Y-57717D01*
X337058D01*
X337130Y-57702D01*
X339899Y-57338D01*
X342546Y-56241D01*
X344819Y-54497D01*
X346563Y-52224D01*
X347660Y-49577D01*
X348024Y-46808D01*
X348039Y-46736D01*
Y-40928D01*
X349034Y-40264D01*
X350148Y-38596D01*
X350539Y-36630D01*
Y-11630D01*
X350148Y-9664D01*
X349034Y-7996D01*
X347366Y-6882D01*
X345400Y-6491D01*
X340400D01*
X338433Y-6882D01*
X336766Y-7996D01*
X335652Y-9664D01*
X335261Y-11630D01*
Y-36630D01*
X335652Y-38596D01*
X336766Y-40264D01*
X337761Y-40928D01*
Y-46477D01*
X337355Y-47033D01*
X336799Y-47439D01*
X295915D01*
X295359Y-47033D01*
X294953Y-46477D01*
Y-22540D01*
X300354D01*
Y-7460D01*
X299247D01*
X298584Y-5859D01*
X296975Y-3761D01*
X294877Y-2152D01*
X292435Y-1140D01*
X289814Y-795D01*
D02*
G37*
G36*
X326399Y-32964D02*
X319984D01*
Y-39379D01*
X321779Y-38636D01*
X323973Y-36953D01*
X325656Y-34759D01*
X326399Y-32964D01*
D02*
G37*
G36*
X312984D02*
X306569D01*
X307312Y-34759D01*
X308995Y-36953D01*
X311189Y-38636D01*
X312984Y-39379D01*
Y-32964D01*
D02*
G37*
G36*
X406710Y-58524D02*
X404250Y-59271D01*
X401557Y-60710D01*
X399197Y-62647D01*
X397260Y-65007D01*
X395821Y-67700D01*
X395074Y-70160D01*
X406710D01*
Y-58524D01*
D02*
G37*
G36*
X462590D02*
X460130Y-59271D01*
X457437Y-60710D01*
X455077Y-62647D01*
X453140Y-65007D01*
X451701Y-67700D01*
X450954Y-70160D01*
X462590D01*
Y-58524D01*
D02*
G37*
G36*
X413710D02*
Y-70160D01*
X425346D01*
X424599Y-67700D01*
X423160Y-65007D01*
X421223Y-62647D01*
X418863Y-60710D01*
X416170Y-59271D01*
X413710Y-58524D01*
D02*
G37*
G36*
X319984Y-19549D02*
Y-25964D01*
X326399D01*
X325656Y-24169D01*
X323973Y-21975D01*
X321779Y-20292D01*
X319984Y-19549D01*
D02*
G37*
G36*
X312984D02*
X311189Y-20292D01*
X308995Y-21975D01*
X307312Y-24169D01*
X306569Y-25964D01*
X312984D01*
Y-19549D01*
D02*
G37*
G36*
X477883Y-23500D02*
X469844D01*
Y-31539D01*
X472396Y-30482D01*
X474902Y-28558D01*
X476826Y-26052D01*
X477883Y-23500D01*
D02*
G37*
G36*
X462844D02*
X454805D01*
X455862Y-26052D01*
X457785Y-28558D01*
X460292Y-30482D01*
X462844Y-31539D01*
Y-23500D01*
D02*
G37*
G36*
X415544Y-8360D02*
X412532Y-8757D01*
X409724Y-9920D01*
X407314Y-11770D01*
X405464Y-14180D01*
X404301Y-16988D01*
X403904Y-20000D01*
X404301Y-23013D01*
X405464Y-25820D01*
X407314Y-28230D01*
X409724Y-30080D01*
X412532Y-31243D01*
X415544Y-31640D01*
X418557Y-31243D01*
X421364Y-30080D01*
X423774Y-28230D01*
X425624Y-25820D01*
X426787Y-23013D01*
X427183Y-20000D01*
X426787Y-16988D01*
X425624Y-14180D01*
X423774Y-11770D01*
X421364Y-9920D01*
X418557Y-8757D01*
X415544Y-8360D01*
D02*
G37*
G36*
X346258Y-174135D02*
X343706Y-175192D01*
X341199Y-177115D01*
X339276Y-179622D01*
X338219Y-182174D01*
X346258D01*
Y-174135D01*
D02*
G37*
G36*
X-168600Y-358385D02*
X-170395Y-359128D01*
X-172589Y-360811D01*
X-174272Y-363005D01*
X-175015Y-364800D01*
X-168600D01*
Y-358385D01*
D02*
G37*
G36*
X9915Y-364180D02*
X3500D01*
Y-370595D01*
X5295Y-369852D01*
X7489Y-368169D01*
X9172Y-365975D01*
X9915Y-364180D01*
D02*
G37*
G36*
X-3500D02*
X-9915D01*
X-9172Y-365975D01*
X-7489Y-368169D01*
X-5295Y-369852D01*
X-3500Y-370595D01*
Y-364180D01*
D02*
G37*
G36*
X270200Y-358385D02*
Y-364800D01*
X276615D01*
X275872Y-363005D01*
X274189Y-360811D01*
X271995Y-359128D01*
X270200Y-358385D01*
D02*
G37*
G36*
X263200D02*
X261405Y-359128D01*
X259211Y-360811D01*
X257528Y-363005D01*
X256785Y-364800D01*
X263200D01*
Y-358385D01*
D02*
G37*
G36*
X-161600D02*
Y-364800D01*
X-155185D01*
X-155928Y-363005D01*
X-157611Y-360811D01*
X-159805Y-359128D01*
X-161600Y-358385D01*
D02*
G37*
G36*
X263200Y-371800D02*
X256785D01*
X257528Y-373595D01*
X259211Y-375789D01*
X261405Y-377472D01*
X263200Y-378215D01*
Y-371800D01*
D02*
G37*
G36*
X-155185D02*
X-161600D01*
Y-378215D01*
X-159805Y-377472D01*
X-157611Y-375789D01*
X-155928Y-373595D01*
X-155185Y-371800D01*
D02*
G37*
G36*
X-168600D02*
X-175015D01*
X-174272Y-373595D01*
X-172589Y-375789D01*
X-170395Y-377472D01*
X-168600Y-378215D01*
Y-371800D01*
D02*
G37*
G36*
X444190Y-364735D02*
Y-371150D01*
X450605D01*
X449862Y-369355D01*
X448179Y-367161D01*
X445985Y-365478D01*
X444190Y-364735D01*
D02*
G37*
G36*
X437190D02*
X435395Y-365478D01*
X433201Y-367161D01*
X431518Y-369355D01*
X430775Y-371150D01*
X437190D01*
Y-364735D01*
D02*
G37*
G36*
X276615Y-371800D02*
X270200D01*
Y-378215D01*
X271995Y-377472D01*
X274189Y-375789D01*
X275872Y-373595D01*
X276615Y-371800D01*
D02*
G37*
G36*
X454970Y-348940D02*
X443334D01*
X444081Y-351400D01*
X445520Y-354093D01*
X447457Y-356453D01*
X449817Y-358390D01*
X452510Y-359829D01*
X454970Y-360576D01*
Y-348940D01*
D02*
G37*
G36*
X-155185Y-289250D02*
X-161600D01*
Y-295665D01*
X-159805Y-294922D01*
X-157611Y-293239D01*
X-155928Y-291045D01*
X-155185Y-289250D01*
D02*
G37*
G36*
X-168600D02*
X-175015D01*
X-174272Y-291045D01*
X-172589Y-293239D01*
X-170395Y-294922D01*
X-168600Y-295665D01*
Y-289250D01*
D02*
G37*
G36*
X444190Y-301235D02*
Y-307650D01*
X450605D01*
X449862Y-305855D01*
X448179Y-303661D01*
X445985Y-301978D01*
X444190Y-301235D01*
D02*
G37*
G36*
X452190Y-279090D02*
X447690D01*
Y-286590D01*
X452190D01*
Y-279090D01*
D02*
G37*
G36*
X143265Y-282900D02*
X136850D01*
Y-289315D01*
X138645Y-288572D01*
X140839Y-286889D01*
X142522Y-284695D01*
X143265Y-282900D01*
D02*
G37*
G36*
X129850D02*
X123435D01*
X124178Y-284695D01*
X125861Y-286889D01*
X128055Y-288572D01*
X129850Y-289315D01*
Y-282900D01*
D02*
G37*
G36*
X461970Y-330304D02*
Y-341940D01*
X473606D01*
X472859Y-339480D01*
X471420Y-336787D01*
X469483Y-334427D01*
X467123Y-332490D01*
X464430Y-331051D01*
X461970Y-330304D01*
D02*
G37*
G36*
X454970D02*
X452510Y-331051D01*
X449817Y-332490D01*
X447457Y-334427D01*
X445520Y-336787D01*
X444081Y-339480D01*
X443334Y-341940D01*
X454970D01*
Y-330304D01*
D02*
G37*
G36*
X473606Y-348940D02*
X461970D01*
Y-360576D01*
X464430Y-359829D01*
X467123Y-358390D01*
X469483Y-356453D01*
X471420Y-354093D01*
X472859Y-351400D01*
X473606Y-348940D01*
D02*
G37*
G36*
X437190Y-301235D02*
X435395Y-301978D01*
X433201Y-303661D01*
X431518Y-305855D01*
X430775Y-307650D01*
X437190D01*
Y-301235D01*
D02*
G37*
G36*
X450605Y-314650D02*
X444190D01*
Y-321065D01*
X445985Y-320322D01*
X448179Y-318639D01*
X449862Y-316445D01*
X450605Y-314650D01*
D02*
G37*
G36*
X437190D02*
X430775D01*
X431518Y-316445D01*
X433201Y-318639D01*
X435395Y-320322D01*
X437190Y-321065D01*
Y-314650D01*
D02*
G37*
G36*
X450605Y-378150D02*
X444190D01*
Y-384565D01*
X445985Y-383822D01*
X448179Y-382139D01*
X449862Y-379945D01*
X450605Y-378150D01*
D02*
G37*
G36*
X364800Y-460700D02*
X358385D01*
X359128Y-462495D01*
X360811Y-464689D01*
X363005Y-466372D01*
X364800Y-467115D01*
Y-460700D01*
D02*
G37*
G36*
X282965D02*
X276550D01*
Y-467115D01*
X278345Y-466372D01*
X280539Y-464689D01*
X282222Y-462495D01*
X282965Y-460700D01*
D02*
G37*
G36*
X269550D02*
X263135D01*
X263878Y-462495D01*
X265561Y-464689D01*
X267755Y-466372D01*
X269550Y-467115D01*
Y-460700D01*
D02*
G37*
G36*
X-161600Y-447285D02*
Y-453700D01*
X-155185D01*
X-155928Y-451905D01*
X-157611Y-449711D01*
X-159805Y-448028D01*
X-161600Y-447285D01*
D02*
G37*
G36*
X-168600D02*
X-170395Y-448028D01*
X-172589Y-449711D01*
X-174272Y-451905D01*
X-175015Y-453700D01*
X-168600D01*
Y-447285D01*
D02*
G37*
G36*
X378215Y-460700D02*
X371800D01*
Y-467115D01*
X373595Y-466372D01*
X375789Y-464689D01*
X377472Y-462495D01*
X378215Y-460700D01*
D02*
G37*
G36*
X-16200D02*
X-22615D01*
X-21872Y-462495D01*
X-20189Y-464689D01*
X-17995Y-466372D01*
X-16200Y-467115D01*
Y-460700D01*
D02*
G37*
G36*
X-155185D02*
X-161600D01*
Y-467115D01*
X-159805Y-466372D01*
X-157611Y-464689D01*
X-155928Y-462495D01*
X-155185Y-460700D01*
D02*
G37*
G36*
X-168600D02*
X-175015D01*
X-174272Y-462495D01*
X-172589Y-464689D01*
X-170395Y-466372D01*
X-168600Y-467115D01*
Y-460700D01*
D02*
G37*
G36*
X143265D02*
X136850D01*
Y-467115D01*
X138645Y-466372D01*
X140839Y-464689D01*
X142522Y-462495D01*
X143265Y-460700D01*
D02*
G37*
G36*
X129850D02*
X123435D01*
X124178Y-462495D01*
X125861Y-464689D01*
X128055Y-466372D01*
X129850Y-467115D01*
Y-460700D01*
D02*
G37*
G36*
X-2785D02*
X-9200D01*
Y-467115D01*
X-7405Y-466372D01*
X-5211Y-464689D01*
X-3528Y-462495D01*
X-2785Y-460700D01*
D02*
G37*
G36*
X-16200Y-447285D02*
X-17995Y-448028D01*
X-20189Y-449711D01*
X-21872Y-451905D01*
X-22615Y-453700D01*
X-16200D01*
Y-447285D01*
D02*
G37*
G36*
X88900Y-372321D02*
X84481Y-372756D01*
X80233Y-374045D01*
X76317Y-376138D01*
X72885Y-378955D01*
X70068Y-382387D01*
X67975Y-386303D01*
X66686Y-390551D01*
X66251Y-394970D01*
X66686Y-399389D01*
X67975Y-403637D01*
X70068Y-407553D01*
X72885Y-410985D01*
X76317Y-413802D01*
X80233Y-415895D01*
X84481Y-417184D01*
X88900Y-417619D01*
X93319Y-417184D01*
X97567Y-415895D01*
X101483Y-413802D01*
X104915Y-410985D01*
X107732Y-407553D01*
X109825Y-403637D01*
X111114Y-399389D01*
X111549Y-394970D01*
X111114Y-390551D01*
X109825Y-386303D01*
X107732Y-382387D01*
X104915Y-378955D01*
X101483Y-376138D01*
X97567Y-374045D01*
X93319Y-372756D01*
X88900Y-372321D01*
D02*
G37*
G36*
X-91440D02*
X-95859Y-372756D01*
X-100107Y-374045D01*
X-104023Y-376138D01*
X-107455Y-378955D01*
X-110272Y-382387D01*
X-112365Y-386303D01*
X-113654Y-390551D01*
X-114089Y-394970D01*
X-113654Y-399389D01*
X-112365Y-403637D01*
X-110272Y-407553D01*
X-107455Y-410985D01*
X-104023Y-413802D01*
X-100107Y-415895D01*
X-95859Y-417184D01*
X-91440Y-417619D01*
X-87021Y-417184D01*
X-82773Y-415895D01*
X-78857Y-413802D01*
X-75425Y-410985D01*
X-72608Y-407553D01*
X-70515Y-403637D01*
X-69226Y-399389D01*
X-68791Y-394970D01*
X-69226Y-390551D01*
X-70515Y-386303D01*
X-72608Y-382387D01*
X-75425Y-378955D01*
X-78857Y-376138D01*
X-82773Y-374045D01*
X-87021Y-372756D01*
X-91440Y-372321D01*
D02*
G37*
G36*
X371800Y-447285D02*
Y-453700D01*
X378215D01*
X377472Y-451905D01*
X375789Y-449711D01*
X373595Y-448028D01*
X371800Y-447285D01*
D02*
G37*
G36*
X437190Y-378150D02*
X430775D01*
X431518Y-379945D01*
X433201Y-382139D01*
X435395Y-383822D01*
X437190Y-384565D01*
Y-378150D01*
D02*
G37*
G36*
X356870Y-372321D02*
X352451Y-372756D01*
X348203Y-374045D01*
X344287Y-376138D01*
X340855Y-378955D01*
X338038Y-382387D01*
X335945Y-386303D01*
X334656Y-390551D01*
X334221Y-394970D01*
X334656Y-399389D01*
X335945Y-403637D01*
X338038Y-407553D01*
X340855Y-410985D01*
X344287Y-413802D01*
X348203Y-415895D01*
X352451Y-417184D01*
X356870Y-417619D01*
X361289Y-417184D01*
X365537Y-415895D01*
X369453Y-413802D01*
X372885Y-410985D01*
X375702Y-407553D01*
X377795Y-403637D01*
X379084Y-399389D01*
X379519Y-394970D01*
X379084Y-390551D01*
X377795Y-386303D01*
X375702Y-382387D01*
X372885Y-378955D01*
X369453Y-376138D01*
X365537Y-374045D01*
X361289Y-372756D01*
X356870Y-372321D01*
D02*
G37*
G36*
X176530D02*
X172111Y-372756D01*
X167863Y-374045D01*
X163947Y-376138D01*
X160515Y-378955D01*
X157698Y-382387D01*
X155605Y-386303D01*
X154316Y-390551D01*
X153881Y-394970D01*
X154316Y-399389D01*
X155605Y-403637D01*
X157698Y-407553D01*
X160515Y-410985D01*
X163947Y-413802D01*
X167863Y-415895D01*
X172111Y-417184D01*
X176530Y-417619D01*
X180949Y-417184D01*
X185197Y-415895D01*
X189113Y-413802D01*
X192545Y-410985D01*
X195362Y-407553D01*
X197455Y-403637D01*
X198744Y-399389D01*
X199179Y-394970D01*
X198744Y-390551D01*
X197455Y-386303D01*
X195362Y-382387D01*
X192545Y-378955D01*
X189113Y-376138D01*
X185197Y-374045D01*
X180949Y-372756D01*
X176530Y-372321D01*
D02*
G37*
G36*
X136850Y-447285D02*
Y-453700D01*
X143265D01*
X142522Y-451905D01*
X140839Y-449711D01*
X138645Y-448028D01*
X136850Y-447285D01*
D02*
G37*
G36*
X129850D02*
X128055Y-448028D01*
X125861Y-449711D01*
X124178Y-451905D01*
X123435Y-453700D01*
X129850D01*
Y-447285D01*
D02*
G37*
G36*
X-9200D02*
Y-453700D01*
X-2785D01*
X-3528Y-451905D01*
X-5211Y-449711D01*
X-7405Y-448028D01*
X-9200Y-447285D01*
D02*
G37*
G36*
X364800D02*
X363005Y-448028D01*
X360811Y-449711D01*
X359128Y-451905D01*
X358385Y-453700D01*
X364800D01*
Y-447285D01*
D02*
G37*
G36*
X276550D02*
Y-453700D01*
X282965D01*
X282222Y-451905D01*
X280539Y-449711D01*
X278345Y-448028D01*
X276550Y-447285D01*
D02*
G37*
G36*
X269550D02*
X267755Y-448028D01*
X265561Y-449711D01*
X263878Y-451905D01*
X263135Y-453700D01*
X269550D01*
Y-447285D01*
D02*
G37*
G36*
X463690Y-279090D02*
X459190D01*
Y-286590D01*
X463690D01*
Y-279090D01*
D02*
G37*
G36*
X361297Y-189174D02*
X353258D01*
Y-197213D01*
X355810Y-196156D01*
X358316Y-194233D01*
X360240Y-191726D01*
X361297Y-189174D01*
D02*
G37*
G36*
X346258D02*
X338219D01*
X339276Y-191726D01*
X341199Y-194233D01*
X343706Y-196156D01*
X346258Y-197213D01*
Y-189174D01*
D02*
G37*
G36*
X468320Y-199635D02*
Y-206050D01*
X474735D01*
X473992Y-204255D01*
X472309Y-202061D01*
X470115Y-200378D01*
X468320Y-199635D01*
D02*
G37*
G36*
X461320D02*
X459525Y-200378D01*
X457331Y-202061D01*
X455648Y-204255D01*
X454905Y-206050D01*
X461320D01*
Y-199635D01*
D02*
G37*
G36*
X452190Y-264590D02*
X447690D01*
Y-272090D01*
X452190D01*
Y-264590D01*
D02*
G37*
G36*
X136850Y-269485D02*
Y-275900D01*
X143265D01*
X142522Y-274105D01*
X140839Y-271911D01*
X138645Y-270228D01*
X136850Y-269485D01*
D02*
G37*
G36*
X129850D02*
X128055Y-270228D01*
X125861Y-271911D01*
X124178Y-274105D01*
X123435Y-275900D01*
X129850D01*
Y-269485D01*
D02*
G37*
G36*
X21900Y-258971D02*
X19348Y-260028D01*
X16841Y-261952D01*
X14918Y-264458D01*
X13861Y-267010D01*
X21900D01*
Y-258971D01*
D02*
G37*
G36*
X433230Y-265050D02*
X418150D01*
Y-267985D01*
X381231D01*
X379713Y-266820D01*
X377271Y-265808D01*
X374650Y-265463D01*
X372029Y-265808D01*
X369587Y-266820D01*
X367489Y-268429D01*
X365880Y-270527D01*
X364868Y-272969D01*
X364523Y-275590D01*
X364868Y-278211D01*
X365880Y-280653D01*
X367489Y-282751D01*
X369587Y-284360D01*
X372029Y-285372D01*
X374650Y-285717D01*
X377271Y-285372D01*
X379713Y-284360D01*
X381231Y-283195D01*
X418150D01*
Y-286130D01*
X433230D01*
Y-276084D01*
X433295Y-275590D01*
X433230Y-275096D01*
Y-265050D01*
D02*
G37*
G36*
X463690Y-264590D02*
X459190D01*
Y-272090D01*
X463690D01*
Y-264590D01*
D02*
G37*
G36*
X21900Y-274010D02*
X13861D01*
X14918Y-276562D01*
X16841Y-279069D01*
X19348Y-280992D01*
X21900Y-282049D01*
Y-274010D01*
D02*
G37*
G36*
X-161600Y-275835D02*
Y-282250D01*
X-155185D01*
X-155928Y-280455D01*
X-157611Y-278261D01*
X-159805Y-276578D01*
X-161600Y-275835D01*
D02*
G37*
G36*
X-168600D02*
X-170395Y-276578D01*
X-172589Y-278261D01*
X-174272Y-280455D01*
X-175015Y-282250D01*
X-168600D01*
Y-275835D01*
D02*
G37*
G36*
X303639Y-274010D02*
X295600D01*
Y-282049D01*
X298152Y-280992D01*
X300658Y-279069D01*
X302582Y-276562D01*
X303639Y-274010D01*
D02*
G37*
G36*
X288600D02*
X280561D01*
X281618Y-276562D01*
X283542Y-279069D01*
X286048Y-280992D01*
X288600Y-282049D01*
Y-274010D01*
D02*
G37*
G36*
X36939D02*
X28900D01*
Y-282049D01*
X31452Y-280992D01*
X33958Y-279069D01*
X35882Y-276562D01*
X36939Y-274010D01*
D02*
G37*
G36*
X28900Y-258971D02*
Y-267010D01*
X36939D01*
X35882Y-264458D01*
X33958Y-261952D01*
X31452Y-260028D01*
X28900Y-258971D01*
D02*
G37*
G36*
X474735Y-213050D02*
X468320D01*
Y-219465D01*
X470115Y-218722D01*
X472309Y-217039D01*
X473992Y-214845D01*
X474735Y-213050D01*
D02*
G37*
G36*
X461320D02*
X454905D01*
X455648Y-214845D01*
X457331Y-217039D01*
X459525Y-218722D01*
X461320Y-219465D01*
Y-213050D01*
D02*
G37*
G36*
X295600Y-258971D02*
Y-267010D01*
X303639D01*
X302582Y-264458D01*
X300658Y-261952D01*
X298152Y-260028D01*
X295600Y-258971D01*
D02*
G37*
G36*
X288600D02*
X286048Y-260028D01*
X283542Y-261952D01*
X281618Y-264458D01*
X280561Y-267010D01*
X288600D01*
Y-258971D01*
D02*
G37*
G36*
X473328Y300560D02*
X468828D01*
Y293060D01*
X473328D01*
Y300560D01*
D02*
G37*
G36*
X461828D02*
X457328D01*
Y293060D01*
X461828D01*
Y300560D01*
D02*
G37*
G36*
X473328Y286060D02*
X468828D01*
Y278560D01*
X473328D01*
Y286060D01*
D02*
G37*
G36*
X461828D02*
X457328D01*
Y278560D01*
X461828D01*
Y286060D01*
D02*
G37*
G36*
X353766Y200007D02*
Y191968D01*
X361805D01*
X360748Y194520D01*
X358825Y197027D01*
X356318Y198950D01*
X353766Y200007D01*
D02*
G37*
G36*
X346766D02*
X344214Y198950D01*
X341707Y197027D01*
X339784Y194520D01*
X338727Y191968D01*
X346766D01*
Y200007D01*
D02*
G37*
G36*
Y184968D02*
X338727D01*
X339784Y182416D01*
X341707Y179909D01*
X344214Y177986D01*
X346766Y176929D01*
Y184968D01*
D02*
G37*
G36*
X361805D02*
X353766D01*
Y176929D01*
X356318Y177986D01*
X358825Y179909D01*
X360748Y182416D01*
X361805Y184968D01*
D02*
G37*
G36*
X469590Y222005D02*
Y215590D01*
X476005D01*
X475262Y217385D01*
X473579Y219579D01*
X471385Y221262D01*
X469590Y222005D01*
D02*
G37*
G36*
X462590D02*
X460795Y221262D01*
X458601Y219579D01*
X456918Y217385D01*
X456175Y215590D01*
X462590D01*
Y222005D01*
D02*
G37*
G36*
X476005Y208590D02*
X469590D01*
Y202175D01*
X471385Y202918D01*
X473579Y204601D01*
X475262Y206795D01*
X476005Y208590D01*
D02*
G37*
G36*
X462590D02*
X456175D01*
X456918Y206795D01*
X458601Y204601D01*
X460795Y202918D01*
X462590Y202175D01*
Y208590D01*
D02*
G37*
G36*
X356870Y416349D02*
X352451Y415914D01*
X348203Y414625D01*
X344287Y412532D01*
X340855Y409715D01*
X338038Y406283D01*
X335945Y402367D01*
X334656Y398119D01*
X334221Y393700D01*
X334656Y389281D01*
X335945Y385033D01*
X338038Y381117D01*
X340855Y377685D01*
X344287Y374868D01*
X348203Y372775D01*
X352451Y371486D01*
X356870Y371051D01*
X361289Y371486D01*
X365537Y372775D01*
X369453Y374868D01*
X372885Y377685D01*
X375702Y381117D01*
X377795Y385033D01*
X379084Y389281D01*
X379519Y393700D01*
X379084Y398119D01*
X377795Y402367D01*
X375702Y406283D01*
X372885Y409715D01*
X369453Y412532D01*
X365537Y414625D01*
X361289Y415914D01*
X356870Y416349D01*
D02*
G37*
G36*
X268280Y408695D02*
X266485Y407952D01*
X264291Y406269D01*
X262608Y404075D01*
X261865Y402280D01*
X268280D01*
Y408695D01*
D02*
G37*
G36*
X281695Y395280D02*
X275280D01*
Y388865D01*
X277075Y389608D01*
X279269Y391291D01*
X280952Y393485D01*
X281695Y395280D01*
D02*
G37*
G36*
X268280D02*
X261865D01*
X262608Y393485D01*
X264291Y391291D01*
X266485Y389608D01*
X268280Y388865D01*
Y395280D01*
D02*
G37*
G36*
X442868Y353440D02*
X427788D01*
Y350505D01*
X414251D01*
X412733Y351670D01*
X410291Y352682D01*
X407670Y353027D01*
X405049Y352682D01*
X402607Y351670D01*
X400509Y350061D01*
X398900Y347963D01*
X397888Y345521D01*
X397543Y342900D01*
X397888Y340279D01*
X398900Y337837D01*
X400509Y335739D01*
X402607Y334130D01*
X405049Y333118D01*
X407670Y332773D01*
X410291Y333118D01*
X412733Y334130D01*
X414251Y335295D01*
X427788D01*
Y332360D01*
X442868D01*
Y353440D01*
D02*
G37*
G36*
X473328Y353900D02*
X468828D01*
Y346400D01*
X473328D01*
Y353900D01*
D02*
G37*
G36*
X461828D02*
X457328D01*
Y346400D01*
X461828D01*
Y353900D01*
D02*
G37*
G36*
X352100Y443540D02*
X345685D01*
X346428Y441745D01*
X348111Y439551D01*
X350305Y437868D01*
X352100Y437125D01*
Y443540D01*
D02*
G37*
G36*
X359100Y456955D02*
Y450540D01*
X365515D01*
X364772Y452335D01*
X363089Y454529D01*
X360895Y456212D01*
X359100Y456955D01*
D02*
G37*
G36*
X352100D02*
X350305Y456212D01*
X348111Y454529D01*
X346428Y452335D01*
X345685Y450540D01*
X352100D01*
Y456955D01*
D02*
G37*
G36*
X365515Y443540D02*
X359100D01*
Y437125D01*
X360895Y437868D01*
X363089Y439551D01*
X364772Y441745D01*
X365515Y443540D01*
D02*
G37*
G36*
X275280Y408695D02*
Y402280D01*
X281695D01*
X280952Y404075D01*
X279269Y406269D01*
X277075Y407952D01*
X275280Y408695D01*
D02*
G37*
G36*
X410916Y326145D02*
Y319730D01*
X417331D01*
X416588Y321525D01*
X414905Y323719D01*
X412711Y325402D01*
X410916Y326145D01*
D02*
G37*
G36*
X403916D02*
X402121Y325402D01*
X399927Y323719D01*
X398244Y321525D01*
X397501Y319730D01*
X403916D01*
Y326145D01*
D02*
G37*
G36*
X442868Y300100D02*
X427788D01*
Y297165D01*
X414251D01*
X412733Y298330D01*
X410291Y299342D01*
X407670Y299687D01*
X405049Y299342D01*
X402607Y298330D01*
X400509Y296721D01*
X398900Y294623D01*
X397888Y292181D01*
X397543Y289560D01*
X397888Y286939D01*
X398900Y284497D01*
X400509Y282399D01*
X402607Y280790D01*
X405049Y279778D01*
X407670Y279433D01*
X410291Y279778D01*
X412733Y280790D01*
X414251Y281955D01*
X427788D01*
Y279020D01*
X442868D01*
Y300100D01*
D02*
G37*
G36*
X417331Y312730D02*
X410916D01*
Y306315D01*
X412711Y307058D01*
X414905Y308741D01*
X416588Y310935D01*
X417331Y312730D01*
D02*
G37*
G36*
X403916D02*
X397501D01*
X398244Y310935D01*
X399927Y308741D01*
X402121Y307058D01*
X403916Y306315D01*
Y312730D01*
D02*
G37*
G36*
X461828Y339400D02*
X457328D01*
Y331900D01*
X461828D01*
Y339400D01*
D02*
G37*
G36*
X473328D02*
X468828D01*
Y331900D01*
X473328D01*
Y339400D01*
D02*
G37*
G36*
X346400Y40769D02*
Y26360D01*
X351008D01*
Y35360D01*
X350581Y37506D01*
X349365Y39325D01*
X347546Y40541D01*
X346400Y40769D01*
D02*
G37*
G36*
X339400D02*
X338254Y40541D01*
X336435Y39325D01*
X335219Y37506D01*
X334792Y35360D01*
Y26360D01*
X339400D01*
Y40769D01*
D02*
G37*
G36*
X406710Y68890D02*
X395074D01*
X395821Y66430D01*
X397260Y63737D01*
X399197Y61377D01*
X401557Y59440D01*
X404250Y58001D01*
X406710Y57254D01*
Y68890D01*
D02*
G37*
G36*
X477883Y16500D02*
X469844D01*
Y8461D01*
X472396Y9518D01*
X474902Y11442D01*
X476826Y13948D01*
X477883Y16500D01*
D02*
G37*
G36*
X462844D02*
X454805D01*
X455862Y13948D01*
X457785Y11442D01*
X460292Y9518D01*
X462844Y8461D01*
Y16500D01*
D02*
G37*
G36*
X415544Y31640D02*
X412532Y31243D01*
X409724Y30080D01*
X407314Y28230D01*
X405464Y25820D01*
X404301Y23013D01*
X403904Y20000D01*
X404301Y16988D01*
X405464Y14180D01*
X407314Y11770D01*
X409724Y9920D01*
X412532Y8757D01*
X415544Y8360D01*
X418557Y8757D01*
X421364Y9920D01*
X423774Y11770D01*
X425624Y14180D01*
X426787Y16988D01*
X427183Y20000D01*
X426787Y23013D01*
X425624Y25820D01*
X423774Y28230D01*
X421364Y30080D01*
X418557Y31243D01*
X415544Y31640D01*
D02*
G37*
G36*
X300814Y23000D02*
X293314D01*
Y18500D01*
X300814D01*
Y23000D01*
D02*
G37*
G36*
X286314D02*
X278814D01*
Y18500D01*
X286314D01*
Y23000D01*
D02*
G37*
G36*
X469844Y31539D02*
Y23500D01*
X477883D01*
X476826Y26052D01*
X474902Y28558D01*
X472396Y30482D01*
X469844Y31539D01*
D02*
G37*
G36*
X462844D02*
X460292Y30482D01*
X457785Y28558D01*
X455862Y26052D01*
X454805Y23500D01*
X462844D01*
Y31539D01*
D02*
G37*
G36*
X462590Y142136D02*
X460130Y141389D01*
X457437Y139950D01*
X455077Y138013D01*
X453140Y135653D01*
X451701Y132960D01*
X450954Y130500D01*
X462590D01*
Y142136D01*
D02*
G37*
G36*
X413710D02*
Y130500D01*
X425346D01*
X424599Y132960D01*
X423160Y135653D01*
X421223Y138013D01*
X418863Y139950D01*
X416170Y141389D01*
X413710Y142136D01*
D02*
G37*
G36*
X406710D02*
X404250Y141389D01*
X401557Y139950D01*
X399197Y138013D01*
X397260Y135653D01*
X395821Y132960D01*
X395074Y130500D01*
X406710D01*
Y142136D01*
D02*
G37*
G36*
X462590Y68890D02*
X450954D01*
X451701Y66430D01*
X453140Y63737D01*
X455077Y61377D01*
X457437Y59440D01*
X460130Y58001D01*
X462590Y57254D01*
Y68890D01*
D02*
G37*
G36*
X425346D02*
X413710D01*
Y57254D01*
X416170Y58001D01*
X418863Y59440D01*
X421223Y61377D01*
X423160Y63737D01*
X424599Y66430D01*
X425346Y68890D01*
D02*
G37*
G36*
X297650Y158623D02*
X294702Y158332D01*
X291867Y157472D01*
X289254Y156076D01*
X286964Y154196D01*
X285084Y151906D01*
X283688Y149293D01*
X282828Y146458D01*
X282537Y143510D01*
X282828Y140562D01*
X283688Y137727D01*
X285084Y135114D01*
X286964Y132824D01*
X289254Y130944D01*
X291867Y129548D01*
X294702Y128688D01*
X297650Y128397D01*
X300598Y128688D01*
X303433Y129548D01*
X306046Y130944D01*
X308336Y132824D01*
X310216Y135114D01*
X311612Y137727D01*
X312472Y140562D01*
X312763Y143510D01*
X312472Y146458D01*
X311612Y149293D01*
X310216Y151906D01*
X308336Y154196D01*
X306046Y156076D01*
X303433Y157472D01*
X300598Y158332D01*
X297650Y158623D01*
D02*
G37*
G36*
X350266Y149307D02*
X347253Y148911D01*
X344446Y147748D01*
X342036Y145898D01*
X340186Y143488D01*
X339023Y140681D01*
X338627Y137668D01*
X339023Y134656D01*
X340186Y131848D01*
X342036Y129438D01*
X344446Y127588D01*
X347253Y126425D01*
X350266Y126028D01*
X353279Y126425D01*
X356086Y127588D01*
X358496Y129438D01*
X360346Y131848D01*
X361509Y134656D01*
X361906Y137668D01*
X361509Y140681D01*
X360346Y143488D01*
X358496Y145898D01*
X356086Y147748D01*
X353279Y148911D01*
X350266Y149307D01*
D02*
G37*
%LPD*%
D10*
X59840Y62080D02*
G03*
X52070Y69850I-7770J0D01*
G01*
X19490Y77290D02*
G03*
X37451Y69850I17960J17960D01*
G01*
X102616D02*
G03*
X112014Y79248I0J9398D01*
G01*
X77470Y69850D02*
G03*
X72540Y64920I0J-4930D01*
G01*
X50786Y101134D02*
G03*
X52070Y99850I1284J0D01*
G01*
X8142Y154164D02*
G03*
X17526Y144780I9384J0D01*
G01*
X121920Y206248D02*
G03*
X111506Y216662I-10414J0D01*
G01*
X121920Y190500D02*
G03*
X111760Y180340I0J-10160D01*
G01*
X92230Y99850D02*
G03*
X111760Y119380I0J19530D01*
G01*
X197612Y-90170D02*
G03*
X184912Y-77470I-12700J0D01*
G01*
X172250Y-188720D02*
G03*
X197650Y-163320I0J25400D01*
G01*
X162560Y-71882D02*
G03*
X137160Y-46482I-25400J0D01*
G01*
X72644Y-40894D02*
G03*
X78232Y-46482I5588J0D01*
G01*
X105410Y-139700D02*
G03*
X111760Y-133350I0J6350D01*
G01*
X197358Y143802D02*
G03*
X197650Y143510I292J0D01*
G01*
X197358Y181356D02*
G03*
X188214Y190500I-9144J0D01*
G01*
X188976Y79756D02*
G03*
X197650Y88430I0J8674D01*
G01*
X163830Y79756D02*
G03*
X163068Y78994I0J-762D01*
G01*
X155448Y53340D02*
G03*
X163068Y60960I0J7620D01*
G01*
X93876Y53340D02*
G03*
X85240Y44704I0J-8636D01*
G01*
X85700Y30480D02*
G03*
X85240Y30020I0J-460D01*
G01*
X-449580Y-48260D02*
G03*
X-443448Y-50800I6132J6132D01*
G01*
X-452120Y-42128D02*
G03*
X-449580Y-48260I8672J0D01*
G01*
X-452120Y-25400D02*
G03*
X-457508Y-12392I-18396J0D01*
G01*
X-449580Y0D02*
G03*
X-446158Y-8262I11685J0D01*
G01*
X-465564Y49004D02*
G03*
X-469900Y50800I-4336J-4336D01*
G01*
X-449580Y22499D02*
G03*
X-457020Y40459I-25400J0D01*
G01*
X-447040Y-127000D02*
G03*
X-439420Y-134620I7620J0D01*
G01*
X-437029Y-78137D02*
G03*
X-447040Y-88148I0J-10011D01*
G01*
X-449314Y-71386D02*
G03*
X-437029Y-78137I17754J17754D01*
G01*
X-216960Y209804D02*
G03*
X-218186Y209296I0J-1734D01*
G01*
X8140Y-214630D02*
G03*
X8394Y-214884I254J0D01*
G01*
X111760Y-106680D02*
G03*
X101360Y-96280I-10400J-0D01*
G01*
X111760Y-214884D02*
G03*
X121666Y-204978I0J9906D01*
G01*
X121920Y-188720D02*
G03*
X121666Y-188974I0J-254D01*
G01*
X111760Y-178560D02*
G03*
X121920Y-188720I10160J0D01*
G01*
X115030Y-28480D02*
G03*
X118110Y-25400I0J3080D01*
G01*
X-416560Y-157480D02*
G03*
X-411480Y-162560I5080J0D01*
G01*
X-409448Y-106680D02*
G03*
X-416560Y-113792I0J-7112D01*
G01*
X-370586Y-120219D02*
G03*
X-363370Y-137640I24637J0D01*
G01*
X-370586Y-107188D02*
G03*
X-371812Y-106680I-1226J-1226D01*
G01*
X-363147Y-84508D02*
G03*
X-370586Y-102469I17960J-17960D01*
G01*
X-337640Y-59001D02*
G03*
X-330200Y-41041I-17960J17960D01*
G01*
X15582Y-144951D02*
G03*
X8142Y-162911I17960J-17960D01*
G01*
X25502Y-139700D02*
G03*
X17530Y-143002I0J-11274D01*
G01*
X50800Y-96520D02*
G03*
X48500Y-102073I5553J-5553D01*
G01*
X36576Y-67310D02*
G03*
X22701Y-73057I0J-19623D01*
G01*
X77470Y-62230D02*
G03*
X69850Y-54610I-7620J0D01*
G01*
X59840Y-44600D02*
G03*
X69850Y-54610I10010J0D01*
G01*
X108010Y-73720D02*
G03*
X90049Y-66280I-17960J-17960D01*
G01*
X-381000Y-219202D02*
G03*
X-375412Y-224790I5588J0D01*
G01*
X-373380Y-162560D02*
G03*
X-381000Y-170180I0J-7620D01*
G01*
Y-154940D02*
G03*
X-373380Y-162560I7620J0D01*
G01*
X-381000Y-142240D02*
G03*
X-388620Y-134620I-7620J0D01*
G01*
X-366536Y-225298D02*
G03*
X-367044Y-224790I-508J0D01*
G01*
X-359410Y-162560D02*
G03*
X-350520Y-153670I0J8890D01*
G01*
X-218057Y-11305D02*
G03*
X-236018Y-3865I-17960J-17960D01*
G01*
X289814Y-46736D02*
G03*
X295656Y-52578I5842J0D01*
G01*
X337058D02*
G03*
X342900Y-46736I0J5842D01*
G01*
X-261366Y121666D02*
G03*
X-259080Y119380I2286J0D01*
G01*
X59840Y30020D02*
Y62080D01*
X17530Y79250D02*
X19490Y77290D01*
X37451Y69850D02*
X52070D01*
X77470D02*
X102616D01*
X72540Y30020D02*
Y64920D01*
X50786Y101134D02*
Y145288D01*
X17526Y144780D02*
X50278D01*
X8142Y154164D02*
Y190500D01*
X121920D02*
Y206248D01*
X111760Y144780D02*
Y180340D01*
X8142Y216662D02*
X111506D01*
X77470Y99850D02*
X92230D01*
X162560Y-77470D02*
X184912D01*
X197612Y-139700D02*
Y-90170D01*
X162560Y-77470D02*
Y-71882D01*
X72540Y-34440D02*
X72644D01*
X78232Y-46482D02*
X137160D01*
X72644Y-40894D02*
Y-34440D01*
X151920Y-188720D02*
X172250D01*
X197650Y-163320D02*
Y-139700D01*
X197612D02*
X197650D01*
Y88430D02*
Y143510D01*
X197358Y143802D02*
Y181356D01*
X163830Y79756D02*
X188976D01*
X163068Y60960D02*
Y78994D01*
X151920Y190500D02*
X188214D01*
X93876Y53340D02*
X155448D01*
X85240Y30020D02*
Y44704D01*
X111760Y119380D02*
Y144780D01*
X50278D02*
X50786Y145288D01*
X78740Y120650D02*
Y140970D01*
X-452120Y-42128D02*
Y-25400D01*
X-443448Y-50800D02*
X-431560D01*
X-469900Y0D02*
X-457508Y-12392D01*
X-449580Y0D02*
Y22499D01*
X-465564Y49004D02*
X-457020Y40459D01*
X-439420Y-134620D02*
X-431560D01*
X-447040Y-127000D02*
Y-88148D01*
X-469900Y-50800D02*
X-449314Y-71386D01*
X72540Y-34440D02*
Y-28480D01*
X342900Y-46736D02*
Y-24130D01*
X-431560Y-190246D02*
Y-162560D01*
X342900Y-24130D02*
Y-15000D01*
X-312520Y-116940D02*
X-299720Y-104140D01*
X-312520Y-137640D02*
Y-116940D01*
X-337920Y-137640D02*
Y-116740D01*
X-350520Y-104140D02*
X-337920Y-116740D01*
X-350520Y-106680D02*
Y-104140D01*
X-337920Y-137640D02*
X-325220D01*
X-350620D02*
X-350520D01*
X-337566Y121666D02*
X-312166D01*
X-286766D01*
X-328422Y183174D02*
X-263422D01*
X-446158Y-8262D02*
X-431560Y-22860D01*
X-212090Y182880D02*
Y183174D01*
X-263422D02*
X-261366D01*
X47140Y-64770D02*
Y-28480D01*
X78740Y-139121D02*
Y-116840D01*
X-231380Y-190500D02*
Y-162560D01*
X8394Y-214884D02*
X111760D01*
X77470Y-96280D02*
X101360D01*
X121666Y-204978D02*
Y-188974D01*
X111760Y-133350D02*
Y-106680D01*
Y-178560D02*
Y-143000D01*
X-411480Y-162560D02*
X-401560D01*
X-416560Y-157480D02*
Y-113792D01*
X-370586Y-120219D02*
Y-107188D01*
X-409448Y-106680D02*
X-401560D01*
X-371812D01*
X-370586Y-107188D02*
Y-102469D01*
X-363147Y-84508D02*
X-337640Y-59001D01*
X-330200Y-41041D02*
Y-22952D01*
X8142Y-188722D02*
Y-162911D01*
X15582Y-144951D02*
X17530Y-143002D01*
X25502Y-139700D02*
X48500D01*
Y-102073D01*
X18288Y-77470D02*
X22701Y-73057D01*
X36576Y-67310D02*
X46990D01*
X59840Y-44600D02*
Y-28480D01*
X108010Y-73720D02*
X111760Y-77470D01*
X77470Y-66280D02*
Y-62230D01*
Y-66280D02*
X90049D01*
X-381000Y-219202D02*
Y-170180D01*
X-401560Y-134620D02*
X-388620D01*
X-381000Y-154940D02*
Y-142240D01*
X-375412Y-224790D02*
X-367044D01*
X-373380Y-162560D02*
X-359410D01*
X-350520Y-153670D02*
Y-137640D01*
X-189738Y-39370D02*
X-130810D01*
X-218057Y-11305D02*
X-189738Y-39624D01*
X-260333Y-3865D02*
X-236018D01*
X289814Y-46736D02*
Y-15000D01*
X295656Y-52578D02*
X337058D01*
X-286766Y121666D02*
X-261366D01*
Y183174D01*
X-212090D01*
D11*
X-35560Y-193105D02*
G03*
X-45125Y-170014I-32657J0D01*
G01*
X-107121Y-108017D02*
G03*
X-121502Y-102060I-14382J-14382D01*
G01*
X-35560Y-208026D02*
G03*
X-28956Y-214630I6604J0D01*
G01*
X-276860Y-30480D02*
G03*
X-279091Y-29556I-2231J-2231D01*
G01*
X-214342Y-92998D02*
G03*
X-192464Y-102060I21878J21878D01*
G01*
X-25654Y216662D02*
G03*
X-34544Y207772I0J-8890D01*
G01*
X-38352Y173738D02*
G03*
X-34544Y182934I-9200J9196D01*
G01*
X-38354Y173736D02*
G03*
X-38352Y173738I-9198J9198D01*
G01*
X-184051Y38560D02*
G03*
X-166091Y45999I0J25400D01*
G01*
X-253325Y38560D02*
G03*
X-266700Y33020I0J-18915D01*
G01*
X-276540Y28944D02*
G03*
X-266700Y33020I0J13916D01*
G01*
X-27587Y176668D02*
G03*
X-21858Y190500I-13832J13832D01*
G01*
X-184051Y33020D02*
G03*
X-162173Y42082I0J30940D01*
G01*
X-253325Y33020D02*
G03*
X-262783Y29103I0J-13375D01*
G01*
X-278858Y22444D02*
G03*
X-262783Y29103I0J22734D01*
G01*
X-352484Y-29556D02*
G03*
X-366786Y-35480I0J-20226D01*
G01*
X-392627Y-50800D02*
G03*
X-374667Y-43361I0J25400D01*
G01*
X-347714Y-23056D02*
G03*
X-348187Y-22860I-473J-473D01*
G01*
X-260350Y15748D02*
G03*
X-267721Y12695I0J-10425D01*
G01*
X-273781Y9444D02*
G03*
X-268986Y11430I0J6781D01*
G01*
X-250009Y-32185D02*
G03*
X-232049Y-39624I17960J17960D01*
G01*
X-266446Y-15748D02*
G03*
X-280188Y-10056I-13742J-13742D01*
G01*
X-355154Y-55033D02*
G03*
X-347714Y-37072I-17960J17960D01*
G01*
X-389382Y-78740D02*
G03*
X-371421Y-71301I0J25400D01*
G01*
X-342392Y91440D02*
G03*
X-337566Y96266I0J4826D01*
G01*
X78500Y-139700D02*
G03*
X78740Y-139121I-579J579D01*
G01*
X-261366Y-108472D02*
G03*
X-260872Y-108966I494J0D01*
G01*
Y-106680D02*
G03*
X-260350Y-106158I0J522D01*
G01*
X-273759Y-25746D02*
G03*
X-280254Y-23056I-6495J-6495D01*
G01*
X-210425Y-89080D02*
G03*
X-192464Y-96520I17960J17960D01*
G01*
X-102289Y-103960D02*
G03*
X-120249Y-96520I-17960J-17960D01*
G01*
X-312520Y-209450D02*
G03*
X-306070Y-215900I6450J0D01*
G01*
X-218437D02*
G03*
X-211969Y-209431I0J6469D01*
G01*
X-212090Y-114300D02*
G03*
X-219710Y-106680I-7620J0D01*
G01*
X-212090Y-162320D02*
G03*
X-211850Y-162560I240J0D01*
G01*
X-286766Y96266D02*
G03*
X-274320Y83820I12446J0D01*
G01*
X-233680D02*
G03*
X-226060Y91440I0J7620D01*
G01*
X-401560Y5080D02*
G03*
X-396403Y2944I5157J5157D01*
G01*
X-394120Y45300D02*
G03*
X-401560Y27339I17960J-17960D01*
G01*
X-331974Y56134D02*
G03*
X-347714Y40394I0J-15740D01*
G01*
X-255016Y56134D02*
G03*
X-245110Y66040I0J9906D01*
G01*
X-235015Y77216D02*
G03*
X-245110Y67121I0J-10095D01*
G01*
X-202702Y77216D02*
G03*
X-196334Y83585I0J6369D01*
G01*
X-341134Y28944D02*
G03*
X-336550Y33528I0J4584D01*
G01*
X-328676Y48514D02*
G03*
X-336550Y40640I0J-7874D01*
G01*
X-251327Y48514D02*
G03*
X-233367Y55953I0J25400D01*
G01*
X-330200Y-22952D02*
G03*
X-336596Y-16556I-6396J0D01*
G01*
X-338536Y9444D02*
G03*
X-330200Y17780I0J8336D01*
G01*
X-431800Y71120D02*
G03*
X-424180Y63500I7620J0D01*
G01*
X-431560Y91440D02*
G03*
X-431800Y91200I0J-240D01*
G01*
X-370840Y22860D02*
G03*
X-363924Y15944I6916J0D01*
G01*
X-370840Y55880D02*
G03*
X-378460Y63500I-7620J0D01*
G01*
X-251460Y106172D02*
G03*
X-261366Y96266I0J-9906D01*
G01*
X-189738Y63500D02*
G03*
X-184658Y68580I0J5080D01*
G01*
Y98552D02*
G03*
X-192278Y106172I-7620J0D01*
G01*
X-286640Y-137160D02*
G03*
X-287120Y-137640I0J-480D01*
G01*
X-272468Y-60780D02*
G03*
X-290429Y-53340I-17960J-17960D01*
G01*
X-308610Y-45212D02*
G03*
X-300482Y-53340I8128J0D01*
G01*
X-299836Y35444D02*
G03*
X-308610Y26670I0J-8774D01*
G01*
X-287020Y-156210D02*
G03*
X-280670Y-162560I6350J0D01*
G01*
X-256540Y-137160D02*
G03*
X-246380Y-127000I0J10160D01*
G01*
Y-97389D02*
G03*
X-253820Y-79429I-25400J0D01*
G01*
X-318770Y-86360D02*
G03*
X-325120Y-92710I0J-6350D01*
G01*
X-260350Y-96302D02*
G03*
X-270292Y-86360I-9942J0D01*
G01*
X-401560Y119380D02*
G03*
X-390892Y108712I10668J0D01*
G01*
X-312166Y96266D02*
G03*
X-324612Y108712I-12446J0D01*
G01*
X-35560Y-208026D02*
Y-193105D01*
X-107121Y-108017D02*
X-45125Y-170013D01*
X-28956Y-214630D02*
X-21860D01*
X-286754Y-29556D02*
X-279091D01*
X-192464Y-102060D02*
X-121502D01*
X-276860Y-30480D02*
X-214342Y-92998D01*
X-25654Y216662D02*
X-21858D01*
X-34544Y182934D02*
Y207772D01*
X-38354Y173736D02*
X-38352Y173738D01*
X-166091Y45999D02*
X-38354Y173736D01*
X-253325Y38560D02*
X-184051D01*
X-286754Y28944D02*
X-276540D01*
X-162173Y42082D02*
X-27587Y176668D01*
X-253325Y33020D02*
X-184051D01*
X-286754Y22444D02*
X-278858D01*
X-212090Y-118364D02*
X-191262D01*
X-352484Y-29556D02*
X-347714D01*
X-374667Y-43361D02*
X-366786Y-35480D01*
X-401560Y-50800D02*
X-392627D01*
X-401560Y-22860D02*
X-348187D01*
X-365760Y-10056D02*
X-347714D01*
X-260350Y15748D02*
X-223520D01*
X-268986Y11430D02*
X-267721Y12695D01*
X-286754Y9444D02*
X-273781D01*
X-232049Y-39624D02*
X-222758D01*
X-266446Y-15748D02*
X-250009Y-32185D01*
X-286754Y-10056D02*
X-280188D01*
X-371421Y-71301D02*
X-355154Y-55033D01*
X-401560Y-78740D02*
X-389382D01*
X-312520Y-196140D02*
X-312420D01*
X-299820D02*
Y-137640D01*
X-347714Y-37072D02*
Y-36056D01*
X-365760Y-10160D02*
Y-10056D01*
X-397750Y96520D02*
X-338582D01*
X-265375Y-3865D02*
X-260333D01*
X-286754Y-3556D02*
X-264922D01*
X-211969Y-190500D02*
X-211850D01*
X-273759Y-25746D02*
X-210425Y-89080D01*
X-286754Y-23056D02*
X-280254D01*
X-102289Y-103960D02*
X-24384Y-181864D01*
X-192464Y-96520D02*
X-120249D01*
X-312520Y-209450D02*
Y-196140D01*
X-306070Y-215900D02*
X-218437D01*
X-230872Y-106680D02*
X-219710D01*
X-211969Y-209431D02*
Y-190500D01*
X-211850D02*
Y-162560D01*
X-212090Y-162320D02*
Y-118364D01*
Y-114300D01*
X-274320Y83820D02*
X-233680D01*
X-396403Y2944D02*
X-347714D01*
X-401560Y5080D02*
Y27339D01*
X-394120Y45300D02*
X-391160Y48260D01*
X-347714Y35444D02*
Y40394D01*
X-331974Y56134D02*
X-255016D01*
X-245110Y66040D02*
Y67121D01*
X-235015Y77216D02*
X-202702D01*
X-347714Y28944D02*
X-341134D01*
X-336550Y33528D02*
Y40640D01*
X-328676Y48514D02*
X-251327D01*
X-233367Y55953D02*
X-225820Y63500D01*
X-347714Y9444D02*
X-338536D01*
X-347714Y-16556D02*
X-336596D01*
X-424180Y63500D02*
X-378460D01*
X-431800Y71120D02*
Y91200D01*
X-363924Y15944D02*
X-347714D01*
X-370840Y22860D02*
Y55880D01*
X-251460Y106172D02*
X-192278D01*
X-195820Y63500D02*
X-189738D01*
X-184658Y68580D02*
Y98552D01*
X-287120Y-137640D02*
X-287020D01*
X-300482Y-53340D02*
X-290429D01*
X-308610Y-45212D02*
Y26670D01*
X-299836Y35444D02*
X-286754D01*
X-287020Y-156210D02*
Y-137640D01*
X-280670Y-162560D02*
X-261380D01*
X-286640Y-137160D02*
X-256540D01*
X-272468Y-60780D02*
X-253820Y-79429D01*
X-246380Y-127000D02*
Y-97389D01*
X-325120Y-104140D02*
Y-92710D01*
X-318770Y-86360D02*
X-270292D01*
X-260350Y-106158D02*
Y-96302D01*
X-390892Y108712D02*
X-324612D01*
D12*
X-169418Y323850D02*
G03*
X-164338Y328930I0J5080D01*
G01*
X266700Y-193040D02*
G03*
X279400Y-205740I12700J0D01*
G01*
X241300Y443230D02*
G03*
X226060Y458470I-15240J0D01*
G01*
X294386Y-334264D02*
G03*
X296672Y-336550I2286J0D01*
G01*
X294386Y-334264D02*
G03*
X292100Y-336550I0J-2286D01*
G01*
X331470Y-220980D02*
G03*
X316230Y-205740I-15240J0D01*
G01*
X421020Y-343989D02*
G03*
X403059Y-336550I-17960J-17960D01*
G01*
X283210Y214630D02*
G03*
X266700Y198121I0J-16510D01*
G01*
X314615Y362874D02*
G03*
X298450Y369570I-16164J-16164D01*
G01*
X337820Y214630D02*
G03*
X353060Y229870I0J15240D01*
G01*
X314624Y362865D02*
G03*
X314615Y362874I-16174J-16155D01*
G01*
X353060Y313908D02*
G03*
X345620Y331868I-25400J0D01*
G01*
X-412750Y406400D02*
G03*
X-397510Y391160I15240J0D01*
G01*
X-317500D02*
G03*
X-303530Y405130I0J13970D01*
G01*
X-412750Y429260D02*
G03*
X-426190Y442700I-13440J0D01*
G01*
X-289560Y482600D02*
G03*
X-303530Y468630I0J-13970D01*
G01*
X-237490Y472440D02*
G03*
X-247650Y482600I-10160J0D01*
G01*
X195406Y-24857D02*
G03*
X232410Y12147I0J37004D01*
G01*
X246380Y240030D02*
G03*
X232410Y226060I0J-13970D01*
G01*
X279400Y240030D02*
G03*
X292100Y252730I0J12700D01*
G01*
X-143764Y283972D02*
G03*
X-133604Y294132I0J10160D01*
G01*
X-353822Y297180D02*
G03*
X-340614Y283972I13208J0D01*
G01*
X-123190Y312420D02*
G03*
X-133604Y302006I0J-10414D01*
G01*
X-353060Y321564D02*
G03*
X-353822Y320802I0J-762D01*
G01*
X-353060Y321564D02*
G03*
X-354330Y322834I-1270J0D01*
G01*
X-10160Y312420D02*
G03*
X0Y322580I0J10160D01*
G01*
X-48260Y40279D02*
G03*
X-55700Y58239I-25400J0D01*
G01*
X-115115Y159205D02*
G03*
X-122555Y141244I17960J-17960D01*
G01*
X-32840Y241481D02*
G03*
X-25400Y259441I-17960J17960D01*
G01*
X-6350Y293370D02*
G03*
X-25400Y274320I0J-19050D01*
G01*
X3810Y293370D02*
G03*
X25400Y314960I0J21590D01*
G01*
X-131061Y-253006D02*
G03*
X-113558Y-270510I17504J0D01*
G01*
X-387350Y355600D02*
G03*
X-412750Y330200I0J-25400D01*
G01*
X-180042Y120650D02*
G03*
X-178816Y121158I0J1734D01*
G01*
X-130810Y-253006D02*
Y-138430D01*
X-25400Y-336550D02*
Y-270510D01*
X-50439D02*
X-25400D01*
X292100Y252730D02*
Y269240D01*
X331470Y-336550D02*
Y-222250D01*
X374650Y-275590D02*
X425690D01*
X-130810Y-39370D02*
Y-21590D01*
Y-57404D02*
Y-39370D01*
X25400Y-336550D02*
X241300D01*
X407670Y342900D02*
X434340D01*
X407670Y289560D02*
X429500D01*
X0Y322580D02*
Y339090D01*
X25400Y314960D02*
Y339090D01*
X292100Y269240D02*
Y340360D01*
X241300Y-336550D02*
Y-275082D01*
Y340360D02*
Y369570D01*
X-237236Y416052D02*
X-203454D01*
X-276860Y416560D02*
Y458470D01*
Y339090D02*
Y416560D01*
X-237490Y458470D02*
X-203200D01*
X266686Y-184150D02*
X266700D01*
X353060Y229870D02*
Y311150D01*
X-25400Y259441D02*
Y269240D01*
X266686Y-184150D02*
X266700Y198120D01*
Y198121D01*
X-164338Y328930D02*
Y448564D01*
X241300Y369570D02*
X298450D01*
X-163830Y458470D02*
X226060D01*
X241300Y369570D02*
Y443230D01*
X296672Y-336550D02*
X331470D01*
X279400Y-205740D02*
X316230D01*
X331470Y-336550D02*
X403059D01*
X421020Y-343989D02*
X422470Y-345440D01*
X266700Y-193040D02*
Y-184150D01*
X314615Y362874D02*
X314624Y362865D01*
X283210Y214630D02*
X337820D01*
X314624Y362865D02*
X345620Y331868D01*
X-412750Y406400D02*
Y429260D01*
X-397510Y391160D02*
X-317500D01*
X-440922Y442700D02*
X-426190D01*
X-303530Y405130D02*
Y468630D01*
X-237490Y458470D02*
Y472440D01*
X-289560Y482600D02*
X-247650D01*
X177220Y-24857D02*
X195406D01*
X232410Y12147D02*
Y226060D01*
X246380Y240030D02*
X279400D01*
X-340614Y283972D02*
X-143764D01*
X-353822Y297180D02*
Y320802D01*
X-133604Y294132D02*
Y302006D01*
X-123190Y312420D02*
X-10160D01*
X-122555Y125095D02*
Y141244D01*
X-46990Y30020D02*
X44450D01*
X-86360Y88900D02*
X-55700Y58239D01*
X-48260Y25400D02*
Y40279D01*
X-115115Y159205D02*
X-32840Y241481D01*
X-25400Y269240D02*
Y274320D01*
X-6350Y293370D02*
X3810D01*
X-113558Y-270510D02*
X-60960D01*
X-412750Y280416D02*
Y330200D01*
X-387350Y355600D02*
X-317500D01*
X-196060Y120650D02*
X-180042D01*
D13*
X-204724Y409702D02*
G03*
X-203708Y410718I0J1016D01*
G01*
X-442976Y444754D02*
G03*
X-440922Y442700I2054J0D01*
G01*
X175260Y-25400D02*
G03*
X177220Y-24857I0J3810D01*
G01*
X-446278Y203200D02*
G03*
X-445262Y205653I-2453J2453D01*
G01*
Y230886D01*
X-372971Y171042D02*
Y182651D01*
X-362204Y160274D02*
X-328422D01*
X-381000Y203200D02*
X-372971Y195172D01*
Y182651D02*
Y195172D01*
X85290Y-28480D02*
X115030D01*
X118110Y-25400D02*
X175260D01*
X-372971Y171042D02*
X-362204Y160274D01*
X-469900Y203200D02*
X-446278D01*
X-381000D01*
D14*
X-416560Y78740D02*
G03*
X-408940Y71120I7620J0D01*
G01*
X-416560Y114300D02*
G03*
X-421640Y119380I-5080J0D01*
G01*
X-363220Y27940D02*
G03*
X-357724Y22444I5496J0D01*
G01*
X-363220Y58420D02*
G03*
X-375920Y71120I-12700J0D01*
G01*
X-196060Y83585D02*
Y91440D01*
X-416560Y78740D02*
Y114300D01*
X-431560Y119380D02*
X-421640D01*
X-357724Y22444D02*
X-347714D01*
X-408940Y71120D02*
X-375920D01*
X-363220Y27940D02*
Y58420D01*
D15*
X-336536Y-225298D02*
D03*
X-366536D02*
D03*
X-401560Y-162560D02*
D03*
X-431560D02*
D03*
X151920Y-188720D02*
D03*
X121920D02*
D03*
Y190500D02*
D03*
X151920D02*
D03*
X80786Y145288D02*
D03*
X50786D02*
D03*
X-231380Y-162560D02*
D03*
X-261380D02*
D03*
Y-190500D02*
D03*
X-231380D02*
D03*
X-181850Y-162560D02*
D03*
X-211850D02*
D03*
X-230872Y-106680D02*
D03*
X-260872D02*
D03*
X-181850Y-190500D02*
D03*
X-211850D02*
D03*
X-401560Y-134620D02*
D03*
X-431560D02*
D03*
Y91440D02*
D03*
X-401560D02*
D03*
X-431560Y119380D02*
D03*
X-401560D02*
D03*
X-225820Y63500D02*
D03*
X-195820D02*
D03*
X-196060Y91440D02*
D03*
X-226060D02*
D03*
Y120650D02*
D03*
X-196060D02*
D03*
X-401560Y-22860D02*
D03*
X-431560D02*
D03*
X-401560Y-50800D02*
D03*
X-431560D02*
D03*
X-401560Y-78740D02*
D03*
X-431560D02*
D03*
X-401560Y5080D02*
D03*
X-431560D02*
D03*
Y-190246D02*
D03*
X-401560D02*
D03*
X465328Y342900D02*
D03*
X435328D02*
D03*
Y289560D02*
D03*
X465328D02*
D03*
X8142Y190500D02*
D03*
X-21858D02*
D03*
X8142Y216662D02*
D03*
X-21858D02*
D03*
X8142Y-188722D02*
D03*
X-21858D02*
D03*
X8140Y-214630D02*
D03*
X-21860D02*
D03*
X48500Y-139700D02*
D03*
X78500D02*
D03*
X-431560Y-106680D02*
D03*
X-401560D02*
D03*
X425690Y-275590D02*
D03*
X455690D02*
D03*
D16*
X342900Y-24130D02*
D03*
Y22860D02*
D03*
X-130810Y25400D02*
D03*
Y-21590D02*
D03*
X179070D02*
D03*
Y25400D02*
D03*
X-48260Y-21590D02*
D03*
Y25400D02*
D03*
D17*
X289814Y15000D02*
D03*
Y-15000D02*
D03*
X77470Y99850D02*
D03*
Y69850D02*
D03*
X52070Y99850D02*
D03*
Y69850D02*
D03*
X50800Y-66520D02*
D03*
Y-96520D02*
D03*
X77470Y-66280D02*
D03*
Y-96280D02*
D03*
D18*
X-222758Y-39624D02*
D03*
X-189738D02*
D03*
X-424180Y48260D02*
D03*
X-391160D02*
D03*
X-190500Y15748D02*
D03*
X-223520D02*
D03*
D19*
X85240Y30020D02*
D03*
X72540D02*
D03*
X59840D02*
D03*
X47140D02*
D03*
X85290Y-28480D02*
D03*
X72540D02*
D03*
X59840D02*
D03*
X47140D02*
D03*
X-287120Y-137640D02*
D03*
X-299820D02*
D03*
X-312520D02*
D03*
X-325220D02*
D03*
X-337920D02*
D03*
X-350620D02*
D03*
X-363370D02*
D03*
X-287120Y-196140D02*
D03*
X-299820D02*
D03*
X-312520D02*
D03*
X-325220D02*
D03*
X-337920D02*
D03*
X-350620D02*
D03*
X-363320D02*
D03*
D20*
X-237490Y458470D02*
D03*
X-276860D02*
D03*
X-163830D02*
D03*
X-203200D02*
D03*
X-237490Y416560D02*
D03*
X-276860D02*
D03*
X-163830D02*
D03*
X-203200D02*
D03*
D21*
X-328422Y160274D02*
D03*
Y206074D02*
D03*
Y183174D02*
D03*
D22*
X-263422D02*
D03*
D23*
X-165100Y182880D02*
D03*
X-212090D02*
D03*
X-419962Y182651D02*
D03*
X-372971D02*
D03*
D24*
X-286754Y35444D02*
D03*
Y15944D02*
D03*
Y-3556D02*
D03*
Y-10056D02*
D03*
Y2944D02*
D03*
Y9444D02*
D03*
Y-16556D02*
D03*
Y-36056D02*
D03*
X-347714D02*
D03*
Y-16556D02*
D03*
Y-23056D02*
D03*
Y-29556D02*
D03*
Y9444D02*
D03*
Y2944D02*
D03*
Y-10056D02*
D03*
Y-3556D02*
D03*
Y22444D02*
D03*
Y15944D02*
D03*
Y28944D02*
D03*
Y35444D02*
D03*
X-286754Y28944D02*
D03*
Y22444D02*
D03*
Y-23056D02*
D03*
Y-29556D02*
D03*
D25*
X410210Y72390D02*
X466090D01*
X410210D02*
Y100330D01*
Y127000D01*
Y128270D01*
X466090Y72390D02*
Y100330D01*
Y127000D01*
Y128270D01*
X410210Y-128270D02*
X466090D01*
Y-100330D01*
Y-73660D01*
Y-72390D01*
X410210Y-128270D02*
Y-100330D01*
Y-73660D01*
Y-72390D01*
X466090D01*
X410210Y128270D02*
X466090D01*
D26*
X406400Y100330D02*
D03*
X469900D02*
D03*
X406400Y-100330D02*
D03*
X469900D02*
D03*
D27*
X349758Y-134874D02*
D03*
Y-185674D02*
D03*
X350266Y188468D02*
D03*
Y137668D02*
D03*
X111760Y-143000D02*
D03*
X162560D02*
D03*
X111760Y-77470D02*
D03*
X162560D02*
D03*
X-33270Y79250D02*
D03*
X17530D02*
D03*
X-33274Y144780D02*
D03*
X17526D02*
D03*
X13970Y-25400D02*
D03*
Y25400D02*
D03*
X118110D02*
D03*
Y-25400D02*
D03*
X-350520Y-104140D02*
D03*
X-325120D02*
D03*
X292100Y-270510D02*
D03*
X241300D02*
D03*
X25400D02*
D03*
X-25400D02*
D03*
X-469900Y127000D02*
D03*
Y152400D02*
D03*
Y177800D02*
D03*
Y76200D02*
D03*
Y50800D02*
D03*
Y25400D02*
D03*
Y0D02*
D03*
Y-25400D02*
D03*
Y-76200D02*
D03*
Y-50800D02*
D03*
Y-203200D02*
D03*
Y-177800D02*
D03*
Y-152400D02*
D03*
X-286766Y121666D02*
D03*
X-312166D02*
D03*
X-286766Y96266D02*
D03*
X-312166D02*
D03*
X-286766Y70866D02*
D03*
X-312166D02*
D03*
X-337566D02*
D03*
X-111760Y269240D02*
D03*
X-60960D02*
D03*
X-463550Y280416D02*
D03*
X-412750D02*
D03*
X292100Y269240D02*
D03*
X241300D02*
D03*
X-25400D02*
D03*
X25400D02*
D03*
X415544Y-20000D02*
D03*
X466344D02*
D03*
X415544Y20000D02*
D03*
X466344D02*
D03*
X162560Y144780D02*
D03*
X111760D02*
D03*
X162814Y79248D02*
D03*
X112014D02*
D03*
X17530Y-77470D02*
D03*
X-33270D02*
D03*
X17530Y-143002D02*
D03*
X-33270D02*
D03*
D28*
X422470Y-345440D02*
D03*
X458470D02*
D03*
X297650Y143510D02*
D03*
X197650D02*
D03*
X297650Y-139700D02*
D03*
X197650D02*
D03*
X-169418Y323850D02*
D03*
X-220218D02*
D03*
X-303022Y324104D02*
D03*
X-353822D02*
D03*
X466090Y100330D02*
D03*
X410210D02*
D03*
Y72390D02*
D03*
X466090D02*
D03*
Y127000D02*
D03*
X410210D02*
D03*
X466090Y-100330D02*
D03*
X410210D02*
D03*
Y-128270D02*
D03*
X466090D02*
D03*
Y-73660D02*
D03*
X410210D02*
D03*
D29*
X-299720Y-104140D02*
D03*
X-261366Y121666D02*
D03*
D30*
X25400Y-336550D02*
D03*
X0D02*
D03*
X-25400D02*
D03*
X292100D02*
D03*
X266700D02*
D03*
X241300D02*
D03*
Y340360D02*
D03*
X266700D02*
D03*
X292100D02*
D03*
X25400Y339090D02*
D03*
X0D02*
D03*
X-25400D02*
D03*
D31*
X176530Y-394970D02*
D03*
X356870D02*
D03*
X91440Y393700D02*
D03*
X-88900D02*
D03*
X356870D02*
D03*
X176530D02*
D03*
X88900Y-394970D02*
D03*
X-91440D02*
D03*
D32*
X-355600Y-444500D02*
D03*
X444500Y444500D02*
D03*
X-355600D02*
D03*
X444500Y-444500D02*
D03*
D33*
X-469900Y203200D02*
D03*
Y-127000D02*
D03*
D34*
X-337566Y121666D02*
D03*
X-261366Y96266D02*
D03*
X-337566D02*
D03*
X-261366Y70866D02*
D03*
D35*
X-442976Y444754D02*
D03*
D36*
Y406654D02*
D03*
Y368554D02*
D03*
Y330454D02*
D03*
X321310Y269240D02*
D03*
X66040D02*
D03*
X-60960Y-270510D02*
D03*
X-106172Y212344D02*
D03*
D37*
X438150Y100330D02*
D03*
Y-100330D02*
D03*
D38*
X78740Y120650D02*
D03*
X-191262Y-118364D02*
D03*
X-259842Y-70612D02*
D03*
X0Y-360680D02*
D03*
X-130556Y424942D02*
D03*
X316484Y-29464D02*
D03*
X289814Y-10922D02*
D03*
X440690Y-374650D02*
D03*
X464820Y-209550D02*
D03*
X466090Y212090D02*
D03*
X207010Y213360D02*
D03*
X-106680Y-184150D02*
D03*
X214376Y-185166D02*
D03*
X245110Y-15240D02*
D03*
X-371958Y160958D02*
D03*
X374650Y-275590D02*
D03*
X-130810Y-57404D02*
D03*
X78740Y-116840D02*
D03*
X407670Y289560D02*
D03*
Y342900D02*
D03*
X-130810Y-138430D02*
D03*
X-305816Y-70104D02*
D03*
X-260333Y-3865D02*
D03*
X-86360Y88900D02*
D03*
X-122555Y125095D02*
D03*
X407416Y316230D02*
D03*
X323850Y312420D02*
D03*
X355600Y447040D02*
D03*
X-15240Y424180D02*
D03*
X187960Y340360D02*
D03*
X99060D02*
D03*
Y292100D02*
D03*
X187960D02*
D03*
X271780Y398780D02*
D03*
X-165100Y-285750D02*
D03*
Y-457200D02*
D03*
Y-368300D02*
D03*
X-12700Y-457200D02*
D03*
X133350D02*
D03*
X273050D02*
D03*
X368300D02*
D03*
X440690Y-311150D02*
D03*
X266700Y-368300D02*
D03*
X133350Y-279400D02*
D03*
X-107950Y25400D02*
D03*
X-69850Y-19050D02*
D03*
X-107950D02*
D03*
X-69850Y25400D02*
D03*
X203200D02*
D03*
X156210D02*
D03*
X66040Y0D02*
D03*
X203200Y66040D02*
D03*
X327660Y-95250D02*
D03*
X-237236Y416052D02*
D03*
D39*
X-445262Y230886D02*
D03*
X-330200Y-22952D02*
D03*
Y17780D02*
D03*
D40*
X-430276Y165354D02*
D03*
X-328422Y206074D02*
D03*
X-172720Y160020D02*
D03*
X-196060Y120650D02*
D03*
X-365760Y-10160D02*
D03*
M02*
